<?xml version="1.0" standalone="no"?>
<!DOCTYPE svg PUBLIC "-//W3C//DTD SVG 1.1//EN" "http://www.w3.org/Graphics/SVG/1.1/DTD/svg11.dtd" >
<svg>
<metadata>
Created by FontForge 20110222 at Mon Mar  7 11:46:17 2011
 By www-data
Typeface (c) (your company). 2010. All Rights Reserved
</metadata>
<defs>
<font id="TicTacToe" horiz-adv-x="1014" >
  <font-face 
    font-family="TicTacToe"
    font-weight="400"
    font-stretch="normal"
    units-per-em="2048"
    panose-1="2 0 5 0 0 0 0 0 0 0"
    ascent="1638"
    descent="-410"
    x-height="1050"
    cap-height="1443"
    bbox="-485 -434 2426 1748"
    underline-thickness="150"
    underline-position="-142"
    unicode-range="U+0020-2122"
  />
    <missing-glyph />
    <glyph glyph-name="space" unicode=" " horiz-adv-x="508" 
 />
    <glyph glyph-name="space" unicode="&#xa0;" horiz-adv-x="508" 
 />
    <glyph glyph-name="exclam" unicode="!" horiz-adv-x="672" 
d="M353 1495h19v-19h-19v19zM333 1466h20v-10l-20 -29v-9h39l213 29q67 -10 67 -29q-125 -70 -174 -203q-19 -87 -135 -319l-87 -357h-9q-29 0 -29 222v290l-10 58q12 137 48 241q-9 19 -9 29q17 0 86 87zM247 1157v-473q3 -20 19 -20q0 130 203 580q0 73 145 183h-10
q-309 -48 -309 -67q-48 -105 -48 -203zM218 317h48q19 -3 19 -20v-9q0 -20 -19 -20q0 14 -29 29q-60 -26 -87 -154q26 -87 48 -87h39l48 10v9q-39 0 -48 49q0 93 87 164q19 -3 19 -20q-30 0 -77 -106v-38q0 -20 29 -20q7 0 58 10q19 -10 29 -10q3 36 38 58q20 -3 20 -19
q-74 -116 -261 -116q-58 74 -58 126q29 131 97 164z" />
    <glyph glyph-name="quotedbl" unicode="&#x22;" horiz-adv-x="672" 
d="M197 1108h-30l-62 359q-4 23 -4 33q0 37 20.5 57t59.5 20t60.5 -19.5t21.5 -56.5q0 -8 -4 -34zM509 1108h-30l-62 359q-4 23 -4 33q0 37 20.5 57t59.5 20t60.5 -19.5t21.5 -56.5q0 -8 -4 -34z" />
    <glyph glyph-name="numbersign" unicode="#" horiz-adv-x="1487" 
d="M577 1435h15v-139q0 -41 -15 -104l15 -23q-15 -17 -30 -127l30 -12h151q63 0 166 12q26 -12 60 -12q30 42 30 93v115q0 12 15 12l-15 23q11 150 45 150l30 -57l-30 -81q0 -12 15 -12l-30 -231h136l150 11v-11l31 11q79 -11 90 -11q29 11 45 11v-35l-150 -11h-302
q-15 -83 -15 -93l15 -81h-15l15 -23v-81q0 -11 -15 -11l15 -24l-15 -69q190 11 226 11l106 -11v-23h-317q-48 0 -60 -278l15 -69l-15 -139h-45v11q0 52 15 151q-15 46 -15 81h15q0 11 -15 11l30 220q-15 0 -15 12l-106 -12h-331v-104q0 -12 -15 -12q0 -11 15 -11l-15 -58
v-46q0 -26 15 -47q-15 -20 -15 -46v-23q0 -42 15 -104q-38 -139 -60 -139l-30 58q30 52 30 150v151q0 75 15 231h-15q-29 -11 -45 -11v11q-245 -35 -302 -35h-60v35q236 23 407 23q30 0 75 324q-15 23 -15 35q15 0 15 12q-15 0 -15 11l-75 -11q-15 0 -15 11l-30 -11h-15
q-130 0 -347 -35l-15 23q228 58 467 58h45q30 303 30 393zM1225 1308h60q91 -41 91 -104v-35q-74 -81 -166 -81q-105 0 -105 81v11q0 78 120 128zM351 1285l16 -24q-39 -3 -106 -81l60 -57l-30 -12q-49 23 -90 23q-53 -69 -75 -69h-16v23l76 81l-76 69l31 12l75 -46
q71 48 135 81zM1150 1204v-12l15 -58q166 34 166 81q-30 53 -61 58h-15q-105 -55 -105 -69zM849 1273q60 -46 60 -69q-19 -139 -181 -139q-75 23 -75 69q33 139 180 139h16zM713 1134v-11q0 -17 45 -35h15q91 40 91 104v12q-46 0 -46 11q-105 -9 -105 -81zM909 995h-347
q0 -23 -15 -23l15 -23q-35 -231 -45 -231l15 -24l-15 -69h452q0 48 15 127q0 7 -15 151q15 63 15 92q-45 0 -45 12zM683 914l60 -104h15q10 0 75 58h76v-12l-121 -92l61 -58l-31 -12h-15l-45 24h-15l-75 -47q0 12 -15 12l60 92q-34 44 -60 128zM231 856q87 0 136 -81v-11
q0 -17 -106 -81h-120q-40 0 -61 81q58 92 151 92zM1331 856q-91 -101 -91 -115v-35q-23 0 -60 -23q-30 0 -30 23q4 23 30 23l-60 81l30 12l60 -47q53 81 121 81zM126 752q22 -46 45 -46h30q82 0 120 69q-1 16 -75 47h-30q-90 -35 -90 -70zM141 393q0 -34 90 -69q23 46 45 46
l15 -23q-22 0 -45 -46q49 -35 75 -35v-35h-15q-49 24 -90 24q-21 -48 -75 -70h-15v23l60 70v11l-76 70v11q5 23 31 23zM846 354l15 -23l-45 -23h-16v12q0 16 46 34zM1165 382q181 -31 181 -104q-20 -104 -136 -104h-30q-121 5 -121 92q46 116 106 116zM1135 324l-30 -35
q15 -22 15 -34h-15q0 -40 105 -58q62 16 90 58v34q0 18 -60 47l-30 -12h-75zM698 336q30 -29 30 -47h30l45 23h15v-11l-30 -35q61 -51 61 -58v-11q-41 0 -91 23q-30 -38 -30 -58h-45v23q45 45 45 70q-21 0 -60 57q4 24 30 24z" />
    <glyph glyph-name="dollar" unicode="$" 
d="M577 1552v-102q68 -8 141 -35q10 -6 19 -6q25 0 41 45h50l103 -282h-49q-60 134 -168 179q-74 30 -137 39v-540q241 -93 322.5 -183t81.5 -264q0 -197 -119.5 -300t-284.5 -120v-239h-73v237q-188 3 -266 38q-10 6 -19 6q-25 0 -41 -45h-50v331h49q50 -183 152.5 -226
t174.5 -43v635q-214 67 -299 153q-92 91 -92 249q0 166 125 271q105 88 266 102v100h73zM577 655v-610q125 17 211.5 96t86.5 219q0 116 -69 183q-62 59 -229 112zM504 873v520q-119 -5 -199 -72q-86 -73 -86 -182q0 -98 55 -153q52 -54 230 -113z" />
    <glyph glyph-name="percent" unicode="%" horiz-adv-x="1520" 
d="M808 1495q26 -4 26 -26h-26v26zM428 1482h13q107 0 144 -184v-13q0 -262 -197 -262q-96 0 -157 157q55 302 197 302zM834 1456l118 -13q20 0 210 13l13 -27l-223 -52q-69 0 -118 79zM270 1180q30 -84 105 -118h13q158 0 158 171q-21 157 -66 157h-65q-117 0 -145 -210z
M1201 1403h14v-26q-109 -160 -236 -603q-125 -215 -197 -604l-40 -26q0 13 -13 13q79 300 328 958q0 91 144 288zM939 1351q0 -13 13 -13q-318 -1007 -432 -1220h-14q-26 0 -26 26q158 262 341 944q103 263 118 263zM1215 472l13 -26q-60 -26 -66 -53q302 -56 302 -144
q-117 -206 -276 -236q-57 0 -118 197v92q0 29 13 52v39q110 79 132 79zM1097 302q0 -141 91 -250q115 0 236 184v13q0 62 -275 105q-21 0 -52 -52zM585 79q221 -28 223 -66l-26 -13q-44 26 -236 39q-99 -26 -105 -26l-13 26v13q34 0 157 27z" />
    <glyph glyph-name="ampersand" unicode="&#x26;" horiz-adv-x="1349" 
d="M290 1539q22 0 87 -137l-50 -298h12q163 124 274 124h49q187 -107 187 -124v-62l-62 -112v-12h124q286 -96 286 -286v-25q0 -175 -149 -248q-137 -41 -137 -62l-62 12h-38q-37 -144 -37 -199v-87l13 -74l-13 -25q32 -162 50 -162v-25h-13q-13 0 -37 13q-128 -25 -223 -25
v37h49q15 0 137 25h25v50q0 11 -25 99v199q0 101 37 162l-161 37v-13q25 -210 25 -236v-161l12 -87l-25 -13l-25 38v174q-25 279 -25 298v12l-12 25l-25 -12h-12q-25 0 -25 25q0 19 50 49q55 -49 62 -49h12q6 49 37 49q137 -16 137 -62q-12 0 -12 -12l24 -13h50
q124 40 124 187q0 190 -198 310h24q154 0 212 -310q-13 -98 -62 -162h24q174 80 174 236q0 227 -323 286q-31 0 -248 -137h-25l-12 25v13q87 69 87 124v49q0 98 -174 174l-112 -62v-12l12 -25q-87 -33 -87 -75h-12v25l12 25h-25q-40 -25 -74 -25v13q34 62 112 62l37 323
l-37 62q-162 -9 -162 -25q-20 13 -62 13v12q0 12 62 62q0 -37 50 -37q72 0 112 62zM116 1415h25q20 -87 37 -87l-13 -87v-100l13 -87l-25 -12q-21 0 -37 62q12 146 12 211q0 11 -12 100zM526 1179v-25q149 -75 149 -174v-100h12q55 0 137 212q-161 99 -199 99h-12zM675 396
v-12l62 -13l12 25h-74z" />
    <glyph glyph-name="quotesingle" unicode="'" horiz-adv-x="346" 
d="M197 1108h-30l-62 359q-4 23 -4 33q0 37 20.5 57t59.5 20t60.5 -19.5t21.5 -56.5q0 -8 -4 -34z" />
    <glyph glyph-name="parenleft" unicode="(" horiz-adv-x="758" 
d="M587 1600h20q28 0 58 -59q0 -39 -39 -39h-97q-254 -300 -254 -332q-137 -322 -156 -468q0 -918 390 -918h98v-39q-44 0 -78 -20q-469 0 -469 996q0 363 391 781q19 0 136 98z" />
    <glyph glyph-name="parenright" unicode=")" horiz-adv-x="849" 
d="M187 1484h21q377 -359 581 -935q21 -136 21 -270q0 -420 -727 -581v42q665 185 665 539q0 464 -561 1163v42z" />
    <glyph glyph-name="asterisk" unicode="*" horiz-adv-x="1509" 
d="M719 1484q21 0 46 -92q66 0 122 -336q0 -52 398 -199q199 -77 199 -107v-31q-32 -49 -367 -153v-15q30 -63 30 -92h-15q25 -30 46 -275q-15 -26 -15 -77v-31l-77 -15l-275 230q-56 0 -214 -138q-128 -66 -184 -122l-76 15q0 -22 -46 -46q-31 0 -31 31q27 46 77 321
q19 4 61 168l-31 15l-30 -15q-239 77 -276 153q-61 0 -61 31v15q105 108 367 214q253 212 276 383q26 0 61 168h15zM750 1285q0 -117 61 -138v16q-31 114 -31 122h-30zM673 1132q-37 -162 -122 -306h-31q-15 0 -15 15l-61 -30l-77 15q-260 -48 -260 -107q119 -138 337 -138
q0 -15 15 -15q-61 -367 -61 -428h15l321 244q31 -4 31 -30l31 15h30q195 -187 245 -214h31v199q0 62 -108 199q30 52 383 183v16q-218 107 -337 107q-168 12 -168 30l-31 -15h-30q-107 87 -107 260h-31zM811 1086v-30q0 -113 46 -123h15q31 0 31 31q-62 21 -62 122h-30z
M490 872h15q30 0 61 107q-15 0 -76 -107zM382 903v-31h31q24 0 61 61v16h-15q-50 -46 -77 -46z" />
    <glyph glyph-name="plus" unicode="+" 
d="M459 1292q88 0 88 -377v-29h290l145 29v-58q0 -59 -58 -59h-406v-145l-29 -145l58 -29q-44 -116 -88 -116q-58 0 -58 58v377h-203q-65 0 -116 -29q-56 29 -87 29v59h145l290 29v232l-29 145z" />
    <glyph glyph-name="comma" unicode="," horiz-adv-x="557" 
d="M238 258q44 0 88.5 -65.5t44.5 -151.5q0 -109 -71 -226.5t-139 -117.5v43q73 43 87 190q0 119 -129 161v42z" />
    <glyph glyph-name="hyphen" unicode="-" horiz-adv-x="932" 
d="M471 849h67q267 0 267 -50l-33 -17q-25 0 -234 17q-83 0 -417 -100l-17 33v50h33q17 0 17 -16q263 83 317 83z" />
    <glyph glyph-name="hyphen" unicode="&#xad;" horiz-adv-x="932" 
d="M471 849h67q267 0 267 -50l-33 -17q-25 0 -234 17q-83 0 -417 -100l-17 33v50h33q17 0 17 -16q263 83 317 83z" />
    <glyph glyph-name="period" unicode="." horiz-adv-x="557" 
d="M391 403l90 -45q0 -233 -157 -314h-67q-23 0 -23 22l-44 -22q-33 0 -68 67v23l23 45q-35 0 -90 89v23q0 33 90 67q43 -23 67 -23q126 68 179 68zM324 335v-22q7 -45 45 -45h22v67h-67zM145 291q0 -23 -23 -23q23 -43 23 -67h45v45q0 45 -45 45zM257 179q22 -44 22 -68h23
q0 45 89 112v23h-22z" />
    <glyph glyph-name="slash" unicode="/" horiz-adv-x="569" 
d="M575 1479h20q41 -6 41 -41q-217 -306 -466 -1195q-82 -190 -183 -243h-20v20q142 139 365 973q126 338 202 405q0 81 41 81z" />
    <glyph glyph-name="zero" unicode="0" horiz-adv-x="728" 
d="M250 1435q207 0 207 -87q40 -207 119 -207q44 -70 87 -217q0 -11 -11 -11l11 -109v-173q0 -40 -11 -98q11 -21 11 -33q0 -424 -206 -500q-252 0 -392 326q0 27 -65 348q41 609 109 609q0 70 141 152zM43 804v-152q46 -368 120 -445q90 -107 141 -131h11
q-108 228 -108 402v11l10 44q-65 222 -65 261q0 10 11 10l-11 22q68 487 98 555q22 0 22 21h-11q-207 -122 -207 -500q-11 0 -11 -98zM380 1392l-21 -33l-55 11h-21q-33 -49 -76 -446l-22 -22l11 -21l-11 -98q63 -201 87 -511q56 -207 141 -207l44 -11q0 25 54 33v-11
q76 0 109 370v21q0 11 11 11l-11 22q0 57 11 98q-11 146 -11 250v65q0 20 -55 185h-21v-54h-11q-22 0 -76 141q-120 39 -120 65q21 11 33 11q54 -33 76 -33q0 11 11 11q-40 153 -77 153z" />
    <glyph glyph-name="one" unicode="1" horiz-adv-x="943" 
d="M539 1457h12v-24l-110 -184q-12 -64 -12 -74q0 -50 24 -208q-12 0 -12 -12q31 0 49 -110q-25 -179 -37 -221q54 -502 73 -502q72 0 294 13l98 -25v-24h-12q-54 0 -110 24l-318 -24v-13q205 -24 232 -24l61 12v-12q-25 -49 -61 -49l-232 37q-129 -25 -160 -25v25l13 24
h-25q-139 -24 -196 -24h-37v24l62 12v-12q75 25 98 25v-13q138 37 232 37q0 105 -36 368v159q0 43 24 208q0 37 -49 37v24h25v12q-32 44 -62 270h-24q-134 -119 -319 -209q-24 0 -24 25q338 174 343 233h12l-12 24q0 12 12 12l-12 62q9 61 37 61l61 -74q37 78 98 135z
M624 1457q25 -74 25 -184l-12 -49l12 -24q-25 -98 -25 -233l13 -24l-13 -25q74 -218 74 -587q-12 -88 -12 -98q12 -22 12 -49l-25 -13q-24 0 -24 37q0 82 12 380q-49 245 -73 440q12 331 36 331q-24 49 -24 86zM404 86q4 -25 25 -25q23 12 36 12v13h-61z" />
    <glyph glyph-name="two" unicode="2" horiz-adv-x="1201" 
d="M516 1446q480 0 603 -189l63 -201h-13l13 -25q0 -223 -629 -893v-12q25 -13 38 -13q124 0 214 25l25 -12q17 0 138 25l63 -13l63 13l13 -25q0 -21 -491 -51l-50 13q-247 0 -440 -88l-13 25v13q0 60 755 830q20 181 37 188q0 255 -264 340l-113 12q-327 -82 -327 -239
q0 -62 -25 -62l-13 25v37q0 186 353 277zM754 1396q189 -138 189 -327q-51 -302 -126 -302q-2 -23 -578 -591q0 -25 -50 -88q12 0 12 -13q286 41 327 63q0 43 164 189q452 536 452 717q-76 314 -226 314q-86 15 -113 38h-51zM0 1081h13q291 -12 301 -12v-13l25 13h38v-38
h-50q-28 0 -50 13l-26 -13q-137 13 -238 13h-13v37z" />
    <glyph glyph-name="three" unicode="3" horiz-adv-x="1174" 
d="M625 1434q227 -34 345 -153l38 -128q-18 0 -77 -76q230 -123 230 -396q0 -318 -319 -523q-120 -122 -268 -153h-13q-161 0 -306 230v38h13q155 -217 242 -217q307 461 307 485q42 175 51 179q0 12 -13 12l13 90v12q0 65 -77 153h-38v-51q-131 -25 -281 -114h-13l-12 25
q157 68 204 140h25q-76 319 -255 319q-57 0 -115 26q-104 -47 -178 -166l12 -64v-25l-51 51q0 242 536 306zM396 1357v-12q212 0 280 -204q13 -64 26 -64q24 13 38 13q0 -19 38 -39q55 0 192 115q-58 217 -358 217h-25q-184 -26 -191 -26zM151 1099q29 -23 141 -39v-25h-13
q-13 0 -13 13q-22 -10 -153 -26v13l-25 -13h-51q-26 0 -26 26l38 25h13q13 0 13 -13q76 9 76 39zM842 1013q64 -115 64 -153q0 -363 -230 -613q-127 -182 -127 -204h38q136 0 485 383l51 204l-13 26v38q0 13 13 13q-63 331 -230 331q-51 -2 -51 -25zM319 351
q120 -39 128 -39v-38h-26l-38 25l-51 -38h-77q-55 0 -102 26q-22 -13 -51 -13l-13 25v13q173 -13 255 -13l-25 39v13z" />
    <glyph glyph-name="four" unicode="4" 
d="M790 1495q27 -4 27 -28q-14 -27 -14 -41h14q42 0 97 27h42v14h27q20 0 42 -41q-130 -42 -152 -42h-111q0 -22 -97 -69q-235 -190 -235 -277q-191 -314 -416 -443l-14 28q0 29 263 291v13h-13l-11 -88l-14 28q212 282 398 462q42 0 42 55q-14 27 -14 42q100 10 139 69z
M1039 1384h14q23 0 41 -69q0 -66 -14 -138q14 -226 14 -443v-111q220 14 263 14l14 -28l-28 -14h-97l-69 -14q0 14 -14 14q0 -27 -55 -27q14 -206 14 -277h-14l14 -28v-194l-14 -27l-69 13h-56q-242 -55 -263 -55l-14 28q0 31 139 55l-14 28h28l69 -14l152 28l-14 27v97
q0 66 14 139l-27 221h13q-13 29 -27 208q9 110 27 110q-27 60 -27 222v235zM748 1329h14v-97q0 -14 -14 -14l14 -28v-110q0 -272 41 -789v-139q0 -27 -27 -27l-14 27v56q-42 761 -42 830v42q-212 -243 -373 -471v-14l96 14l70 -14l27 14q56 -11 56 -28l27 14h70
q27 -4 27 -27q0 -28 -27 -28q-28 0 -28 14q-12 0 -111 -14q-313 14 -387 14q-27 14 -42 14q0 -28 -94 27h-55v41h55q66 -23 80 1q91 -14 139 -42q154 123 456 540q0 69 14 69q0 14 -14 14q14 111 42 111z" />
    <glyph glyph-name="five" unicode="5" 
d="M782 1501q13 0 63 -88q-18 0 -37 -38v-63l12 -63l-25 -13q-32 35 -38 151h-25q-214 -50 -731 -66v25q0 25 38 25q13 0 13 -12l327 28h12q204 0 379 51v25l-13 25zM164 1350h13l25 -13q-25 -276 -25 -391l25 -13q103 51 227 51q505 -93 505 -442v-126q0 -295 -139 -340
q-181 -76 -227 -76l-63 13l-25 -13q-434 60 -434 115v38l93 11q0 -88 366 -126q366 42 366 176l25 114v101q0 28 -13 50q0 13 13 13q0 330 -341 429q-87 25 -151 25q-214 -29 -214 -63q0 -13 -13 -38l13 -76h-38l-13 63v101q0 133 25 417zM644 1211l113 -13q25 13 38 13
l25 -38v-13q-73 0 -202 13q-325 -38 -403 -38l-13 25q235 38 442 51zM479 969q311 -250 341 -313v-114q0 -224 -303 -265h-12q-429 22 -517 -26v12q172 78 542 40q252 54 252 252q0 25 13 25l-13 25q0 13 13 13q-17 72 -329 313l-12 25zM0 328h26v-38q-26 0 -26 25v13z
M13 277h13q37 0 -18 -149l43 -115h-38q13 156 13 164q-13 69 -13 100z" />
    <glyph glyph-name="six" unicode="6" horiz-adv-x="1113" 
d="M555 1468h12q91 0 99 -37v-12h-12l-62 12v-25q383 -407 420 -407v-24q-85 0 -297 234l-24 12h-74q-183 0 -444 -370q0 -136 -25 -234q0 -13 12 -13l-12 -61q49 -407 197 -407v24q-37 48 -37 111v50q0 12 13 12q0 12 -13 12q40 408 370 408q0 12 99 12q284 -72 284 -370
v-13q0 -168 -234 -296q0 -33 -321 -86h-25q-282 123 -333 123q-136 165 -136 494q-12 0 -12 24q0 13 12 13l-12 61v112q0 360 284 542q136 99 271 99zM37 839v-62q0 -558 185 -641h25v12q-136 133 -136 395q27 271 37 271l-12 25q117 247 357 382q173 45 173 62
q-28 0 -136 148q-182 0 -394 -234q-99 -192 -99 -358zM703 728v-25q124 -29 161 -333q0 -156 -642 -435v12q605 320 605 435q0 131 -149 333q-270 0 -333 -320l13 -62v-12l-13 -74q31 -99 74 -99l-37 -62q87 0 87 -49h24q348 0 494 247q37 63 37 123q0 229 -234 321h-87z
" />
    <glyph glyph-name="seven" unicode="7" horiz-adv-x="1322" 
d="M73 1462l44 -44l29 15q57 -29 161 -29h161l44 29l44 -29q32 0 58 14q28 -14 44 -14q15 0 44 14l87 -14h44l-14 29v14q73 -3 73 -29l73 15h146l176 -15v-29q-30 0 -30 -15l-146 15h-131q0 -44 -30 -44h-73l-219 -585q-88 -369 -146 -687h102q33 0 59 -15q14 0 14 15
q176 -22 176 -58v-15q-138 29 -220 29h-204q-17 0 -161 -29h-15v44q234 0 234 161q0 235 336 1140l-29 15h-29l-526 -103q-180 -204 -191 -204q-22 0 -58 58q11 161 29 161l-8 90v29q4 30 29 30l29 -44l-35 -251h14q196 204 220 204q15 0 44 -14q146 14 146 44h-176
q-242 79 -248 73q4 29 29 29zM1340 1514q0 -15 15 -15q-198 -525 -220 -525h-15v14q198 526 220 526zM1199 1213l14 -29q-83 -253 -204 -760q-103 -209 -146 -351h-15l-15 29v15q185 389 293 965q57 131 73 131zM278 906l29 -14h307q29 -5 29 -29l-102 -30q-26 15 -59 15
q-204 -162 -204 -292l-29 -15q-12 39 -30 175h15l-15 30q15 25 48 168h29q-33 -154 -18 -212h14q0 47 117 146q-15 0 -43 15q-26 -15 -59 -15q-21 0 -44 44q15 0 15 14z" />
    <glyph glyph-name="eight" unicode="8" horiz-adv-x="910" 
d="M502 1451q59 -29 235 -167q0 -12 -11 -12l33 -122q0 -238 -167 -369q256 -89 256 -223v-56l-11 -67q11 -21 11 -33q0 -141 -201 -290q-83 -56 -156 -56v11q-69 -13 -123 -67h-33q-48 59 -134 78q-140 77 -201 190v56q0 213 257 357q0 31 -112 45q-145 68 -145 357
q104 268 234 268q119 100 268 100zM45 1060v-22l11 -67l-11 -22q21 -179 167 -179q-22 37 -22 67v67q0 246 234 435l11 -22q-282 -1479 -308 -1479l275 1434q-179 -145 -179 -379v-45q16 -111 101 -111q5 0 44 11v-11q57 22 78 22v11h-11q-19 0 -67 -22v33q92 34 134 34
l45 -11q179 86 179 334v12q-51 0 -67 11q0 -23 -23 -23h-22v23q71 22 89 22q0 101 -167 101v22h11l100 -11v22q-19 0 -156 101q-446 -107 -446 -358zM435 703q0 -25 -11 -44q145 -295 145 -369q-15 -102 -89 -190l22 -11q313 110 313 335q-11 22 -11 34h11l-11 22l11 22
q-11 20 -11 45l11 22q0 49 -134 134q-22 -3 -22 -22q-89 22 -213 22h-11zM313 681v-11h44q22 0 22 22h-11zM313 636l-56 11q-224 -145 -224 -346q0 -86 190 -189q45 -23 78 -23q158 0 190 67v11q-11 0 -11 12q28 0 56 111q0 89 -145 346v23z" />
    <glyph glyph-name="nine" unicode="9" horiz-adv-x="1075" 
d="M611 1435q162 -5 253 -80q20 0 53 -26h13l93 13l13 -27l-39 -39l-67 13h-80v-93q-39 -172 -39 -226v-133q0 -13 -14 -13l14 -27v-40q0 -13 -14 -13q0 -13 14 -13q0 -14 -14 -40q0 -30 14 -53q-14 -113 -14 -186v-200q0 -13 -13 -13l13 -26q0 -14 -13 -14l13 -26
q-13 -97 -26 -120q108 0 172 -13v26h14q19 0 40 -39l-14 -27l-226 27q-22 -14 -66 -14h-13v27h79l-13 66l13 27q0 13 -13 13q27 385 27 811h-14q-130 -146 -146 -146l13 -27q0 -23 -172 -53q-31 -37 -186 -67q-253 64 -253 253l-13 80v13q129 425 611 425zM40 997
q36 -279 199 -279h13q88 0 266 66l-66 106v266q40 146 79 146h14q0 -50 -67 -146l14 -93l-14 -53q2 -76 53 -186h27q253 193 253 385q0 42 -54 93v13q0 27 40 27q0 40 -186 40q-26 -33 -26 -53h-27l13 66h-13q-227 -40 -332 -106q-186 -164 -186 -292zM983 1249
q27 -53 27 -93q-40 -380 -53 -438q0 -14 13 -14l-40 -638h-13q-27 0 -27 27q0 18 27 146l-13 67q13 171 26 199q0 13 -13 13l53 638l-13 80z" />
    <glyph glyph-name="colon" unicode=":" horiz-adv-x="557" 
d="M145 167l82 84q15 14 29 14q13 0 31 -16l80 -86q12 -16 12 -29q0 -15 -14 -31l-80 -88q-20 -20 -29 -20q-16 0 -29 14l-88 101q-10 13 -10 26q0 15 16 31zM145 860l82 84q15 14 29 14q13 0 31 -16l80 -86q12 -16 12 -29q0 -15 -14 -31l-80 -88q-20 -20 -29 -20
q-16 0 -29 14l-88 101q-10 13 -10 26q0 15 16 31z" />
    <glyph glyph-name="semicolon" unicode=";" horiz-adv-x="557" 
d="M145 859l82 84q15 14 29 14q13 0 31 -16l80 -86q12 -16 12 -29q0 -15 -14 -31l-80 -88q-20 -20 -29 -20q-16 0 -29 14l-88 101q-10 13 -10 26q0 15 16 31zM238 258q44 0 88.5 -65.5t44.5 -151.5q0 -109 -71 -226.5t-139 -117.5v43q73 43 87 190q0 119 -129 161v42z" />
    <glyph glyph-name="semicolon" unicode="&#x37e;" horiz-adv-x="557" 
d="M145 859l82 84q15 14 29 14q13 0 31 -16l80 -86q12 -16 12 -29q0 -15 -14 -31l-80 -88q-20 -20 -29 -20q-16 0 -29 14l-88 101q-10 13 -10 26q0 15 16 31zM238 258q44 0 88.5 -65.5t44.5 -151.5q0 -109 -71 -226.5t-139 -117.5v43q73 43 87 190q0 119 -129 161v42z" />
    <glyph glyph-name="less" unicode="&#x3c;" 
d="M912 1303h46q46 -7 46 -46q-2 -26 -575 -276l-369 -208v-23q0 -138 861 -572v-46h-23q-953 434 -953 618q190 196 921 507q7 46 46 46z" />
    <glyph glyph-name="equal" unicode="=" 
d="M884 950l14 -28q0 -28 -28 -28h-28q-325 -28 -770 -42v14q0 20 42 42q42 0 42 -14l238 28q74 -14 140 -14q126 28 182 28h98zM730 656q15 0 42 -14l84 14h42q28 -4 28 -28v-14h-14q-31 0 -56 14q-21 -23 -574 -56q0 -14 -210 -28l-28 42q106 28 686 70z" />
    <glyph glyph-name="greater" unicode="&#x3e;" 
d="M5 1210q682 -129 1038 -233h26v-52q-300 -420 -960 -623v26l571 311q285 255 285 286q-20 0 -934 207l-26 52v26z" />
    <glyph glyph-name="question" unicode="?" horiz-adv-x="800" 
d="M241 1424q375 0 540 -221q0 -145 -319 -462l-125 -96q19 -44 29 -193l-20 -9q-26 174 -38 192q-19 -10 -29 -10l-10 20q116 133 281 394q-41 181 -348 221q-52 39 -96 39l-58 -10v10l-19 -10h-10q-19 0 -19 20q58 35 106 86q107 29 135 29zM87 1337v-9h9q35 0 87 -10
q18 10 29 10v-10l-10 -19q348 -65 348 -192q20 0 38 -97q-179 -176 -232 -288h38q348 259 348 471v48q-165 76 -338 135q-89 19 -154 19q-163 -25 -163 -58zM394 241q49 -13 49 -29v-10l-49 10q-18 -10 -28 -10v-10q68 -9 77 -9q0 9 9 9q48 -37 48 -77q0 -77 -163 -115
q-61 0 -106 77q25 144 115 144q0 20 48 20zM260 87q18 -44 38 -49h77q54 0 96 68v19q0 29 -144 58q-67 -43 -67 -96z" />
    <glyph glyph-name="at" unicode="@" horiz-adv-x="2019" 
d="M1198 1446h19q207 0 484 -115q174 0 270 -181v-230q0 -319 -502 -476h-213q-135 52 -135 148l58 32q0 -16 19 -16l-19 -33v-33q33 0 96 -49h116q209 0 290 559v16q-58 197 -154 197q-34 0 -116 -33l-20 33q35 33 194 33q-105 99 -348 99h-39q-518 0 -947 -395
q-147 -118 -193 -246q0 -707 618 -707q-295 132 -405 313q-99 57 -155 164l39 16q289 -285 289 -312q310 -164 503 -164l1022 560v-16q0 -50 -1041 -610h-58q-20 0 -20 16l-38 -16h-116q-405 0 -599 279q-58 149 -97 460q0 198 618 576q236 131 580 131zM1604 1298v-33
q77 0 135 -180q-77 -543 -174 -543h20q328 118 328 444h19l-19 33v16q0 17 19 17q0 213 -309 246h-19zM850 1101h97q174 -33 174 -82l88 -473h-58q-88 506 -262 506q-53 0 60 138q-176 -138 -215 -138q-309 -153 -309 -345v-83q0 -147 193 -147h97q-155 144 -155 180
q126 345 389 516v-16q-311 -395 -311 -533q62 -115 174 -115q129 44 231 132h39v-17q-179 -197 -367 -197h-155q-174 0 -193 197v99q111 378 483 378z" />
    <glyph glyph-name="A" unicode="A" horiz-adv-x="1349" 
d="M810 1451h12q23 -4 18 21h-12q12 -38 46 -46q22 12 35 12q46 0 80 -184h-11l172 -782q79 -318 147 -318l-11 -23v-35l34 -46q0 -23 -69 -23v-11l23 -35q-11 0 -11 -11q-179 34 -242 34q-22 -11 -34 -11q-45 69 -81 69v69q18 0 46 23h58q149 0 149 46q-112 283 -147 479
q-11 0 -11 11q-23 -11 -35 -11l12 -23q0 -23 -23 -23q-38 23 -69 23h-69q-64 0 -161 -12l-23 12q-21 0 -69 -104q-35 -3 -92 -264q-12 0 -81 -161v-12q46 0 46 -23t-46 -23l23 -34q-26 -27 -172 -35q-118 12 -184 12q-23 -12 -35 -12l-23 35q69 96 115 345q73 284 253 759
q81 0 81 80l23 69l-12 69q35 8 46 46q-11 22 -11 35q22 11 34 11l23 -11q71 23 92 23q20 -12 46 -12q22 12 35 12l11 -23q-11 0 -11 -12h69l-7 14zM886 1380v-11q3 -23 23 -23v34h-23zM92 104h23q10 0 92 11q20 -11 46 -11q69 234 242 552q-12 22 -12 34q72 0 219 483
q17 0 46 104q-12 22 -12 34q23 0 23 23l-11 23q-184 -31 -184 -46q-135 -319 -230 -609q-69 -101 -184 -541q-16 0 -58 -57zM644 736q139 19 334 104q0 47 -127 471h-11q-75 -91 -207 -575h11zM863 771v-12h57q69 12 69 35l-23 11q-76 -34 -103 -34z" />
    <glyph glyph-name="B" unicode="B" horiz-adv-x="1179" 
d="M78 1462h22q170 -67 201 -67q164 48 168 56q284 0 535 -301l34 -67q-14 -224 -112 -224l-22 -33v-11q51 0 145 -179q112 -45 112 -156v-123q-173 -234 -380 -234q-125 -101 -178 -101l-12 23q0 28 45 33v22q-171 -14 -201 -22l-22 11l-56 -44q-22 0 -22 33h-156l-56 11
q0 -89 -34 -89l-11 22v11q0 12 11 12q-11 55 -22 55q-22 -11 -34 -11l-11 23q0 22 56 22q11 111 11 167v56l-11 67q0 11 11 11l-11 56v380q0 25 -11 44q11 20 11 45q0 38 -11 234l11 45q-11 18 -11 56v22q-67 0 -67 33l22 12l34 -23q11 34 11 67q-34 0 -34 23zM100 1440v-34
h34v11q0 23 -22 23h-12zM502 1406v-22q65 -2 380 -357v-11q-77 -141 -112 -179h34q200 60 200 223v34q-110 185 -334 268q0 18 -168 44zM413 1395v-22q33 0 78 -45h11v11q0 15 -56 56h-33zM179 1362v-12h55q0 23 -22 23q-22 -11 -33 -11zM112 1150v-45l33 22q17 0 34 -44
q-12 -188 -12 -291v-134q0 -11 -11 -11q0 -11 11 -11q-22 -147 -22 -201q0 -11 11 -11l-11 -56v-245h167q23 147 23 290v33q0 41 -11 101q0 11 11 11l-11 56v234q0 451 33 491h-22q-212 -17 -212 -89q-11 -60 -11 -100zM402 1328v-11q-23 -230 -23 -313v-33q0 -59 12 -190
q103 11 134 45h11q22 -4 22 -22q-11 0 -11 -12h22q123 14 123 34q-11 21 -11 33l22 12q20 -12 45 -12q33 69 33 90q-11 79 -11 89h11q0 43 -156 178q0 41 -100 90q-22 -11 -34 -11q-56 33 -89 33zM123 1083v-23h11v23h-11zM112 1049q3 -22 22 -22v22h-22zM804 1027v-45h11
q22 0 22 34q-11 21 -11 33q-22 -3 -22 -22zM123 1004q0 -46 -11 -122q11 -22 11 -34h11v156h-11zM848 804q14 0 112 -90v11q-14 0 -67 101h-22q-23 -4 -23 -22zM658 781v-11h23v11h-23zM725 781v-11q4 -22 23 -22h11v11q0 22 -22 22h-12zM391 759q-12 -297 -12 -469v-134
l79 -22q223 56 223 134q156 89 156 167q-16 0 -33 34v11q33 0 33 11q-213 234 -246 234q-28 0 -200 34zM804 748v-23q78 -115 78 -334q0 -94 -101 -224h45v23h11q11 0 11 -11q223 70 223 223q-122 335 -256 335q0 11 -11 11zM692 692q1 -24 100 -101h12q0 101 -112 101z
M1060 580v-22q45 -128 45 -190h22l11 67q-21 139 -55 145h-23zM781 301q-102 -124 -190 -145q4 -22 23 -22q101 0 190 123v44h-23zM658 100v-22h12q22 0 22 22h-34z" />
    <glyph glyph-name="C" unicode="C" horiz-adv-x="1102" 
d="M936 1467q12 -15 24 -168h-12l47 -249v-12h72q24 -4 24 -24q-29 -24 -48 -24l36 -48q-23 -55 -48 -60h-24l-36 24h-143l-48 -36q-75 24 -84 60q48 36 48 60q0 132 -24 287h-12q-232 0 -372 -551l-12 -192q0 -254 156 -432q114 -36 168 -36q156 24 156 96h24v60
q0 12 12 12q16 176 -24 216q0 17 36 36q21 -12 0 -36q36 31 36 72h23v-48h144l36 24h24q24 -4 24 -24l-144 -96l12 -60q0 -13 -12 -36q0 -12 12 -12q0 -27 -12 -48q12 -201 18 -208v-36q0 -24 -24 -24h-24q-26 1 -65 35l-24 12q0 -24 -24 -24q-24 5 -36 5q-64 -36 -204 -48
q-115 0 -132 84q-252 0 -252 108q-204 109 -228 576q0 19 12 144q-12 23 -12 36q282 575 504 575h36q114 0 312 -96q0 12 12 12l-12 24v36q0 12 12 12l-12 24l36 -194l24 36q0 13 -12 36q12 120 36 120zM48 666q46 -516 288 -516h48v12q-96 211 -96 348v36l12 72l-12 24
q91 456 156 456q0 85 204 215l84 24q0 -12 12 -12v36q-107 48 -168 48q-113 -60 -192 -72q-336 -263 -336 -671zM792 1289q0 -36 -36 -36q24 -46 24 -131v-96h84q24 0 24 24v24q-36 0 -36 24v24q0 27 12 47q-21 120 -60 120h-12zM792 990v-12h24v12h-24zM888 390v-24
q-24 -24 -24 0zM876 270v-24h12v24h-12zM300 90v-12l60 -12h12v12l-48 12h-24zM792 54v-12h24v12h-24zM564 -6q-21 12 -48 12q0 -18 48 -36q216 29 216 72h-12z" />
    <glyph glyph-name="D" unicode="D" horiz-adv-x="1201" 
d="M105 1490h14q129 -26 145 -26h52l40 26h13q42 -36 369 -92q6 -13 304 -198q145 -224 145 -475v-66q0 -29 -13 -52q13 -24 13 -53v-53q-144 -396 -383 -396l-118 -65q-31 -40 -40 -40q-26 0 -26 53l-158 -40q-53 13 -93 13l-311 -40q-26 13 -40 13v40l285 14q23 0 79 26
l132 -13q290 70 290 290q40 0 40 185v145q-31 296 -290 646q-53 26 -53 39l13 27q-26 0 -132 26v-13l71 -1363l-26 -14h-26v66q0 14 13 14q-32 130 -32 242v185l-13 79l13 26q-26 132 -26 264v132q0 29 -13 52q13 24 13 53l-13 53q13 25 13 39t-13 40q13 71 13 119
q0 26 -26 26h-106q-11 0 -105 26l-53 -26l13 -26v-66q0 -13 -13 -13q0 -7 66 -132v-13h-13q23 -70 39 -370l-13 -26l13 -79v-13q0 -14 -13 -14l13 -26v-13q0 -102 13 -185q-16 -173 -26 -197q13 -24 13 -53v-79q0 -69 -39 -79l-14 26v13q0 224 -39 224l13 93q0 290 -39 909
q13 0 13 14q-53 10 -53 26l26 92q-26 0 -26 27l26 13q23 -13 53 -13q4 26 26 26zM712 1319v-27q211 -336 211 -606q0 -14 -13 -14l13 -65v-132q0 -13 -13 -13q0 -14 13 -14q0 -49 -66 -197q93 0 224 303q13 86 40 145q0 62 -79 329q0 207 -330 291zM633 1292
q108 -193 145 -211v13q-66 168 -132 198h-13zM1081 1015l13 -92h27l-13 92h-27zM831 936v-13q13 -92 39 -92v26q-26 43 -26 79h-13zM857 765v-13h26v13h-26zM1121 593q0 -140 -198 -356q-171 -98 -171 -118h26q303 127 303 250q22 0 79 172q-13 23 -13 52h-26zM857 422v-26
h13v26h-13zM844 369v-26h13v26h-13z" />
    <glyph glyph-name="E" unicode="E" horiz-adv-x="1185" 
d="M972 1572q28 0 43 -100l-15 -29q15 -27 15 -42q-26 -115 -58 -115q-9 86 -57 86q-75 0 -128 -14q-94 14 -186 14h-57l-72 -14v-29l29 -43q0 -43 -14 -43q14 -55 28 -343q-14 -25 -14 -57q14 0 14 -14l129 28q14 0 14 -14l100 14h72v15q-15 27 -15 43l29 14q32 0 43 -72
q0 -35 -29 -214h-43v14l15 86q-19 72 -43 72q-272 -34 -272 -43q0 -15 -14 -15l28 -314h-14l14 -29v-171l15 -29l28 15h43q349 -72 400 -72q28 14 43 14q24 -14 72 -14v14q0 15 -15 15l15 71v157h28q29 -4 29 -28v-114q0 -52 14 -129q-18 -72 -43 -72q-28 0 -28 29l14 29
l-129 -29q-14 0 -14 14q-270 -14 -472 -71q-25 14 -57 14q-143 -57 -281 36h-43v43l268 -46l-72 -4h-15q-32 0 -57 -15q-157 0 -157 301v57q0 762 -100 1100l29 14q42 -110 13 -128l58 -29q57 -720 57 -1029v-85q0 -158 115 -158l85 15h86l29 14q-58 911 -115 1243h-57
q-71 0 -71 29l-29 -14h-115q-28 0 -28 28l28 14h258v43h29v-43h42l-14 29v14q5 29 29 29h14l14 -100l57 14q286 -14 429 -14v128q5 29 29 29zM529 171v-42l86 14v14l-72 14h-14z" />
    <glyph glyph-name="F" unicode="F" horiz-adv-x="1079" 
d="M114 1423h65q0 -20 -62 -2q52 13 284 39l26 -13l90 13q381 -43 439 -65l26 13l26 -13q23 13 52 13q116 -37 116 -51l26 -297q-16 -117 -39 -117l-90 117l-39 -26q-64 34 -65 51l39 26q-17 142 -129 142q-298 -79 -357 -79v26q233 92 305 92v26q-191 13 -258 26
q-50 -13 -104 -13h-38l13 -65v-38q161 1 155 -39q0 -33 -155 -39v-181q4 -26 25 -26q15 0 143 26q67 -13 77 -13l26 13q70 -13 116 -13h52q26 -4 26 -26q0 -232 -39 -232q-34 103 -52 103l-64 -13q-110 26 -142 26l-155 -13v-543l12 -64l-25 -13q0 26 -26 26
q-13 238 -13 349v323l-26 38l26 39v52l-13 77q13 23 13 52q-13 94 -26 116q13 23 13 52q-26 0 -26 26q-53 -26 -77 -26l-13 26q0 39 193 39v25h-193q-29 0 -52 -12q-23 12 -52 12l-26 -12q11 -52 26 -52q-13 -116 -26 -116l13 -26v-65q0 -172 39 -426q0 -13 -13 -13
q13 -64 52 -427q-23 -12 -52 -12v-91h13l129 -13l78 13l26 -39l-26 -13h-65l-77 13q-22 -13 -65 -13q-13 0 -13 13q-77 -30 -77 -51h13q330 150 334 202v-38q36 -27 3 -92q-52 19 -52 39l51 -150h-181q-47 0 -117 -13q-64 0 -103 65q26 77 65 77h25q0 92 -25 594h13l-13 26
v13q0 217 -26 401q13 93 13 232l10 -50q-26 0 -26 26q4 26 26 26zM1034 1344l-13 -26v-13q26 -26 78 -220h38v155q0 13 13 13q0 91 -116 91zM905 1331v-13q0 -21 77 -52v13q0 20 -51 52h-26zM440 879q13 -25 13 -39l64 13h246q29 0 51 -13q35 5 52 64q-13 0 -13 13
q-13 0 -13 -13q-14 0 -39 13q-306 -13 -361 -38z" />
    <glyph glyph-name="G" unicode="G" horiz-adv-x="1479" 
d="M546 1455q354 0 409 -157q15 0 48 -84l-12 -60v-24q25 -156 73 -156q84 0 84 -12l24 12h12v-25q-33 0 -72 -24q-170 12 -289 12h-24l-24 -12l-12 24q0 16 84 49l60 -12h48v204q0 62 -36 72q0 -13 -12 -36l12 -24q-12 -23 -12 -36l12 -24q-12 -21 -12 -48l12 -24
q-15 -60 -36 -60h-12q-24 0 -24 24q23 12 36 12q0 24 -12 24l12 144v84q-36 97 -144 97q-40 0 -96 24q-307 0 -470 -337q-132 -165 -132 -373q0 -76 12 -313q16 0 108 -216q63 -102 217 -133h24q89 0 96 36q-124 0 -144 301v144l12 73q-12 20 -12 60q48 307 96 457
q138 240 349 240l12 -24q-177 -23 -289 -156q-84 -154 -132 -529v-325q28 -229 192 -229q32 0 85 36l24 -12q92 0 252 253q48 156 48 168q-12 0 -12 13l-72 -13q-162 13 -276 13l-12 24q0 24 36 24l-24 36q0 31 228 48l229 -48h36l120 12l12 -24q-27 0 -48 -85q0 -12 12 -12
q0 -12 -12 -36q12 -106 12 -132q-24 -244 -24 -277q24 -39 24 -60l-24 -12q0 24 -24 24h-12l-24 -12q-12 24 -12 36q0 94 12 445h36v24q-74 37 -96 37h-12q-24 0 -49 -253v-120q0 -12 -12 -12q0 -12 12 -12l-12 -121v-72q124 15 145 24q21 -12 48 -12v-24q-174 -24 -313 -24
l-12 24q12 12 96 12l-12 24v36l12 72q0 12 -12 12l24 193l-24 12q0 -70 -228 -229q-136 -60 -157 -60q-23 12 -36 12q-49 -24 -144 -48q-205 48 -301 217q-21 105 -84 228q0 12 12 12l-12 145v84q0 374 385 710q117 60 156 60z" />
    <glyph glyph-name="H" unicode="H" horiz-adv-x="1300" 
d="M1114 1506h37q0 -33 27 -12v-12l-12 -25q25 -12 9 -12q-12 -24 -12 -37q0 -247 49 -551h-12l12 -24q0 -13 -12 -13q49 -247 49 -257q0 -12 -12 -12l36 -343h-12q25 -45 25 -98h-13l13 -24v-25q-98 25 -233 25l-12 -25q-98 12 -98 37q20 12 61 12v12q0 63 -61 429l12 24
q-24 24 -61 392l12 25q0 71 -61 110v24l12 74q-12 21 -12 49h12q-24 48 -24 135v61q-49 0 -49 24q12 0 12 13l147 -13h171v37zM318 1482l37 -74q-24 -12 -37 -12q42 0 74 -600v-49h61q77 0 233 -37q44 25 219 25h49q24 -4 24 -25l-305 -37q-42 0 -195 37h-49l-37 -24
q73 -401 73 -466v-36l-12 -123q135 -28 135 -61h-13l-24 12q-12 0 -12 -12l-86 12h-135q-208 12 -208 49q49 10 49 25q0 49 -49 379l12 49q-43 106 -73 661q-8 0 -49 196q30 25 49 25v12h-49v25l196 12q87 -12 98 -12q0 49 24 49zM857 1433v-37h12v37h-12zM894 1433
q37 -116 61 -723l86 -588h208q-22 96 -61 613q-25 0 -25 73l12 61q-49 257 -49 564h-232zM37 1371v-24q32 0 85 -465q-12 -24 -12 -37q0 -12 12 -12l-12 -49l49 -331l-12 -24q24 -100 61 -368h208q3 61 25 61q0 34 -74 551q13 0 13 13q-25 0 -25 24q0 12 12 12l-24 245
l12 25q-24 63 -49 392l-171 12q-20 0 -98 -25z" />
    <glyph glyph-name="I" unicode="I" horiz-adv-x="657" 
d="M155 1443q216 -51 760 -51v-39h-13q-74 0 -322 -13q-47 26 -103 26h-103v-464q0 -71 -13 -180l13 -26q0 -14 -13 -39q0 -221 116 -502l26 -13l12 26v38q61 -78 49 -56q25 124 25 141l-13 26q56 114 30 250l-13 129v335q0 84 24 368h25q0 -39 13 -39q-24 -239 -24 -303
v-335q0 -54 13 -142l-13 -26q56 -451 91 -451q129 0 129 -39q0 -19 -129 -64l-13 26q18 0 38 38q-106 0 -309 39h-129q-46 0 -219 -26v26q85 39 194 39h51q26 0 39 90q0 53 -39 206v129h-39q39 48 39 180v387q0 71 -13 181q13 22 13 51q-75 26 -167 39q-129 -13 -155 -39
h-13v39zM628 356q0 -52 -13 -52q0 -13 13 -13q-13 -105 -26 -128q0 -13 13 -13l-74 56v-38q0 -19 39 -39h26v26q0 43 13 64l-13 77l13 52q-26 47 -26 103v26z" />
    <glyph glyph-name="J" unicode="J" horiz-adv-x="1113" 
d="M976 1542q15 -23 15 -70q21 0 127 28q99 -14 99 -42v-15h-28l-43 29q0 -43 -155 -43l14 -70v-340l14 -85q0 -14 -14 -14q70 -449 70 -467q0 -14 -14 -14l14 -71v-127q-112 -213 -398 -245h-70v29h42q294 32 384 244q0 18 -14 141q0 15 14 15l-71 537v142q0 32 -14 56
l14 29q0 14 -14 14l14 71v113q0 28 -28 28h-170q-14 0 -14 14l-28 -14q-25 14 -57 14v-14l14 -28q0 -14 -14 -14q85 -405 85 -581q0 -15 -14 -42q0 -14 14 -14l-14 -71v-198q0 -14 -14 -14q0 -14 14 -14l-14 -71v-113q0 -14 -14 -14l14 -29q-115 -195 -96 -212h-159
q-215 0 -325 368q0 58 -15 113h-99q-28 0 -28 28l156 85q0 15 14 15q14 -25 14 -57h71l70 14q0 -42 43 -42v-29h-14l-71 14q0 -28 -113 -28q0 -244 226 -424q31 0 244 -15q-62 -32 53 524q0 49 15 297l-71 496h14l-28 84q-141 -28 -241 -28l-14 28l212 43q142 -28 283 -28
h99l-14 70z" />
    <glyph glyph-name="K" unicode="K" horiz-adv-x="1316" 
d="M1065 1473l12 -25q-22 -12 -50 -12l25 -37q0 -25 -25 -25q-40 25 -74 25q-90 -55 -334 -384q52 -3 235 -371q332 -472 347 -557h74q18 0 37 -37q-45 -25 -99 -25v12q-143 -16 -161 -37q-15 19 -148 37v13q30 24 49 24l-12 25q12 22 12 50q-40 0 -148 272
q-59 102 -174 210q-42 55 -74 136q-31 0 -37 50h-37q-18 0 -75 -74v-87l13 -148h-13l13 -25q0 -123 12 -297q-12 -22 -12 -50q25 -4 25 -25q-25 -3 -25 -24v-13q37 0 37 -24q-24 -13 -37 -13q-62 37 -87 37q-15 0 -124 -12l-61 25q8 74 24 74l-12 62v12q0 45 12 112
q0 12 -12 12l12 62v25q0 27 -12 49q0 13 12 13q-12 262 -37 383l13 25q-35 103 -50 322q12 24 12 37q0 115 -111 136v12q0 25 37 25q59 0 124 -12l235 25v-25q0 -25 -49 -25q19 -40 37 -111q0 -13 -13 -13q25 -161 25 -433v-62h12l458 582v12h-99q-24 0 -24 25
q160 35 161 50l61 -13q79 25 100 25zM136 1386l13 -62q0 -245 61 -656h-12l12 -24v-495q135 -38 161 -38q13 112 25 112q-34 224 -49 755q12 24 12 37q-25 228 -25 322l-25 -13h-12q0 34 25 75h-161zM508 842q62 -23 210 -260q69 0 161 -273q24 0 86 -136q30 -66 149 -99
q22 13 50 13v12q-210 346 -347 532l-149 273l-24 61h-37q-34 -13 -99 -123z" />
    <glyph glyph-name="L" unicode="L" horiz-adv-x="1128" 
d="M236 1501q17 0 285 -50v-37h-99q0 -37 -13 -37l-24 12q-84 -37 -137 -37h-12q-71 40 -148 40l-63 22q-25 0 -25 25t161 37q0 25 75 25zM211 1439v-12h25v12h-25zM125 1438l13 -24v-109q0 -24 -25 -24t-25 37q19 120 37 120zM380 1426h37q0 -49 12 -49l-7 -161
q0 -166 12 -273q-12 -85 -12 -261l12 -25q-12 -21 -12 -49q12 -287 12 -298q-25 -4 -25 -25q0 -186 38 -186h37q80 0 248 -12l12 25l62 -13h224l86 13q13 167 13 248v25q0 12 12 12q-12 24 -12 37h-13q-192 -322 -496 -322h-37l-99 -43q0 34 223 105q123 73 360 235l-13 25
q24 57 50 62h25q0 -17 62 -49v-25q0 -13 -13 -13l13 -24l-13 -124q0 -13 13 -13l-13 -62v-87q0 -21 -148 -49q0 -13 -13 -13h-248l-74 -12q-56 25 -162 25h-37q-11 0 -99 -25q-28 0 -50 12q-106 -25 -186 -25v25q0 20 236 62q-25 152 -37 571q25 228 25 409q0 13 12 13
l-12 24zM124 1278v-25q25 -575 25 -658q-13 -301 -13 -347q13 -22 13 -50q-25 0 3 -217h-25l-25 12q-3 371 -3 863l-12 62q12 24 12 37q-12 24 -12 37h12l-12 25q0 13 12 13l-12 62v12q0 12 12 12l-12 25v37q0 92 37 100zM99 37h13q24 -4 24 -25v-12h-37v37z" />
    <glyph glyph-name="M" unicode="M" horiz-adv-x="1437" 
d="M41 1457h14q0 -41 41 -41l275 41q0 -14 14 -14l-14 -68v-14q0 -49 96 -289h-13q24 -51 68 -343l42 -28h55q81 252 302 646q0 55 69 55v-41q45 27 82 27h245v-41l-217 -14h-124q-133 -159 -330 -646q151 -13 151 -41q-41 0 -41 -55q-95 28 -165 28h-96l-69 -14l-14 27
q9 42 97 42v13q-37 48 -97 440q-41 8 -41 96h-27q-14 -161 -14 -233v-344q0 -14 -14 -14l14 -27q0 -111 -14 -261q0 -14 14 -14l-14 -69l22 -214q0 -28 -27 -28l-14 28l-22 159q0 177 14 385q0 15 -14 41q14 75 14 124v261q4 234 27 234l-14 27q28 45 28 83q-14 26 -14 41
q-194 -27 -261 -27v-220q0 -14 -14 -14l14 -28q0 -124 14 -481q-14 -277 -14 -385l-14 -27q14 -24 14 -55v-41q0 -28 -28 -28l-27 41q0 23 14 165l-14 97h14q0 13 -14 13l14 69v14q0 151 13 192q-13 130 -13 248v357q0 70 27 165zM1265 1402h27q20 0 41 -41v-96
q0 -14 -13 -14q0 -14 13 -14q-17 -141 -27 -165q14 -24 14 -55q-42 -251 -42 -426q0 -24 28 -220l-17 -321h-13l-28 14l17 335q-28 95 -28 165v41l14 82q0 14 -14 14q14 153 41 302q0 14 -13 14q18 236 41 275q-14 23 -14 69h-14l-27 -14l-14 28q4 27 28 27zM990 1397
l13 -27h-13l13 -28q-27 -453 -27 -545q0 -14 14 -41q0 -14 -14 -14l14 -96v-69q0 -31 -14 -55q14 -26 14 -41l-14 -55q14 -24 14 -55h-14l14 -27v-14q0 -69 -14 -206h-41q13 161 13 233q-13 98 -13 110h13q0 14 -13 14l13 69v206q0 31 -13 55q0 14 13 14l-13 68v55
q0 14 13 14q0 14 -13 14q22 421 55 421zM96 110q46 0 261 -69v-14q0 -27 -27 -27q-275 72 -275 96q27 14 41 14zM990 96q129 -27 206 -27q28 0 192 27l14 -27q0 -28 -27 -28q-14 0 -14 14l-193 -41q-206 27 -206 68z" />
    <glyph glyph-name="N" unicode="N" horiz-adv-x="1327" 
d="M438 1501q85 -41 150 -325q263 -543 263 -588h12q17 212 25 238q-9 39 -25 212l13 25l-13 25q25 125 25 250q-75 17 -75 38q41 25 75 25l75 -13l350 63l13 -25q0 -17 -250 -75q0 -13 -25 -13l-125 13v-13q0 -147 -25 -262q12 -109 12 -188v-50q0 -28 13 -50
q-13 -22 -13 -50v-113l-12 -75q9 -21 25 -150l-13 -25l13 -50q-9 -100 -25 -100l12 -25v-25q0 -28 -12 -50q12 -62 50 -62q34 0 250 12l12 -25l-25 -12q-28 0 -50 12q0 -25 -338 -37v37q51 0 51 38q12 46 12 112q-138 124 -213 400q-108 129 -187 363q-50 88 -63 88
q13 -95 25 -125q-12 -25 -12 -38l-15 -133q-1 30 -29 0q31 -430 -8 -507q31 -204 1 -225q75 -16 75 -37q-12 0 -12 -13q-195 38 -263 38h-37q-13 0 -13 12q-12 0 -12 -12l-88 12h-25v38l63 12h62q-62 249 -62 350l12 25q-12 25 -12 38h12q14 116 13 640q-9 369 -9 376h25
q0 -13 12 -37q10 -320 10 -389q22 -96 -13 -628q0 -13 -13 -37q0 -90 75 -363h25l150 -12l13 25q0 12 -13 12q25 99 -30 150q55 166 44 363l7 28q-55 -28 17 312l13 25q-43 334 -113 337v13q13 67 13 112h-13q-72 0 -200 13q-22 -13 -50 -13l-25 38q37 12 37 25l63 -13h250
q46 38 88 38zM400 1463v-25h38v25h-38zM338 1401q34 -197 212 -563q181 -318 225 -475l101 -113v125q0 118 -201 513q-112 235 -187 450l-13 63h-137zM113 1401l12 -25v-13h-37v13q3 25 25 25zM1213 1363q0 -12 13 -12l-38 -213q0 -12 13 -12q-16 -153 -25 -175
q12 -25 12 -38l-12 -25q0 -12 12 -12l-50 -401q0 -12 13 -12l-13 -63v-25l13 -75q-13 -22 -13 -50l13 -25q-15 -20 2 -169h-38q-14 191 -14 257q0 12 12 12l-12 25v50q0 28 12 50q0 13 -12 13l50 413l-13 25l25 225q0 12 -12 12q17 225 62 225z" />
    <glyph glyph-name="O" unicode="O" horiz-adv-x="976" 
d="M587 1446q70 0 241 -210q78 -90 115 -555l31 -230v-21q-34 -208 -104 -283q-122 -147 -315 -147h-73q-325 67 -325 157q-147 249 -147 618q-10 0 -10 63q42 247 136 419q53 59 220 147q4 21 21 21h11l31 -21q77 42 168 42zM545 1404v-10q76 0 278 -148v-32h-21
q0 31 -215 127h-11q126 -443 126 -482v-105q0 -57 11 -146q-99 -493 -325 -493h-32q-31 0 -125 32v21h10q20 -11 31 -11v11q-104 69 -104 283q-11 0 -21 52q0 10 10 10l-10 74v42q42 138 42 178q0 10 -11 10q84 445 115 514q-129 -49 -199 -241l-63 -241q42 -524 84 -524
q74 -252 241 -252l105 -42q11 0 11 11l52 -11h21q358 0 398 430l-42 241q0 11 11 11q-40 530 -220 618q-35 48 -105 84q-19 -11 -42 -11zM189 503v-31q21 -34 127 -289l-21 -10q0 15 -31 31l-44 68q93 -125 105 -125h63q207 0 293 482q-21 78 -21 84l11 73q0 178 -147 566
l-32 21h-41q-147 -15 -147 -126q-105 -360 -105 -671q-10 0 -10 -73zM168 660v-21h10v21h-10z" />
    <glyph glyph-name="P" unicode="P" horiz-adv-x="1120" 
d="M387 1484q137 -45 237 -172q247 -181 247 -312q19 0 32 -97q5 -187 -134 -258l-231 -43h-22l-147 16v21l179 -5q119 156 119 388l-43 107h10q-77 258 -150 258q-118 -15 -118 -86q0 -11 10 -11q-15 -230 -21 -236q11 -21 11 -32q0 -33 -11 -76q21 -237 21 -344h-10
q21 -56 21 -226v-215l11 -75q-11 0 -11 -11q75 0 108 -53l-22 -11q-11 32 -64 32q-278 -18 -334 -43l-10 22v10l10 22l54 -11h11v11q0 85 11 226q-11 20 -11 32q11 19 11 43q0 11 -11 11q0 11 11 32q-33 491 -33 581v86q0 24 -10 43q10 18 10 43q0 11 -10 32q0 11 10 11
q-13 100 -21 129q11 19 11 43v21q0 9 -33 32l-21 -10h-54v21q28 0 183 43h64q25 0 43 -11q19 11 97 22zM129 1409q22 -253 22 -409h-11l11 -21q0 -33 -11 -76q32 -295 32 -387v-140q0 -24 11 -43q-11 -18 -11 -43q0 -32 11 -32l-11 -75v-129q19 0 172 21v-10q21 10 32 10
l-21 33v32q0 75 11 86l-22 322h11l-11 22q-11 273 -11 398q0 8 -10 64h10q0 11 -10 11q14 190 21 204q-11 19 -11 43v43h-32v11q32 48 32 97h-172q-15 0 -32 -32zM613 1269q43 -91 75 -258v-65q0 -108 -75 -290h11q153 0 247 140q0 266 -161 408q0 30 -97 65z" />
    <glyph glyph-name="Q" unicode="Q" horiz-adv-x="1228" 
d="M554 1435q104 0 226 -113q116 -36 135 -305v-45l-11 -68q0 -11 11 -11l-11 -68q0 -260 -34 -260h-23q-20 0 -67 260h11q-65 226 -113 226q-269 0 -407 -576q-22 -3 -34 -80q33 -169 158 -169q38 0 57 -11q186 50 203 113l23 11q22 0 22 -34q-49 -261 -225 -305h-34
l-68 11l-57 -11q-261 0 -316 373q0 299 68 441q124 415 384 587q0 20 102 34zM45 633q0 -12 11 -12q-22 -109 -22 -214q32 -362 260 -362q25 0 45 -11q234 68 260 90q56 77 56 113v23h-11q-100 -79 -158 -79q-232 0 -283 169v34q120 446 260 610q105 91 215 91
q72 0 124 -181q11 0 11 -23h-11q45 -135 45 -248l-11 -23l23 -11h11v124q0 62 11 158l-11 23l11 68v79q-5 100 -68 203l-22 -11h-11q-100 147 -181 147q-45 0 -45 11q-120 0 -317 -271q-135 -280 -135 -294q0 -39 -57 -203zM10 1426q48 -146 657 -810q101 -28 271 -288
q0 -31 192 -272q0 -22 142 -170l-199 148q-142 49 -282 248q-136 147 -136 215q-47 54 -612 833q6 16 544 -720q-561 725 -611 783q0 16 34 33zM436 797l209 -244q60 -157 349 -440q182 -111 68 -23q-147 151 -192 283q-148 181 -434 424zM441 56v-22h34q0 22 -23 22h-11z
" />
    <glyph glyph-name="R" unicode="R" horiz-adv-x="1100" 
d="M16 1495h61q61 -3 61 -24q12 0 12 12q134 -15 134 -37l24 13l24 -13l49 13l304 -73q251 -131 316 -316v-37q-18 -125 -85 -206q-77 -77 -158 -86l12 -24l88 -222l-112 198l-49 36q-97 -12 -97 -36q250 -606 267 -608q182 -12 195 -24q23 12 36 12q49 -18 49 -37l-25 -12
q-79 0 -243 25q0 -25 -24 -25q-94 45 -109 61q20 12 60 12q-213 532 -255 596q0 12 -12 12q-67 -12 -97 -12v12l-25 -12q-24 0 -24 24t122 37q0 12 12 12h12q24 -4 24 -25q25 0 183 49l24 -12q182 88 182 267q0 176 -328 316h-24q182 -141 182 -364q0 -28 12 -49
q-12 -17 -24 -134h-37q0 70 25 146q-34 248 -110 292q-84 158 -376 158q0 21 -146 24h-12v-12q0 -12 12 -12q-25 -129 -25 -207l13 -48q0 -12 -13 -12l25 -256h-12l12 -24q0 -12 -12 -12l12 -24v-171l-4 -212q-8 -107 -8 -189l-13 -194l25 -12h60q44 0 110 -13q21 13 48 13
q24 -13 37 -13v-24l-24 12l-61 -24q-83 12 -134 12h-24l-61 -12l-24 36q12 37 24 37q0 12 -12 12l12 195q0 63 9 164q0 13 3 200v158q0 28 -12 49q0 12 12 12q-16 195 -24 219q0 12 12 12l-12 61v146l12 145l-36 25h-13l13 -61h-13q-36 12 -36 73zM344 1373h25q0 -50 12 -97
l-24 -413l12 -24q-25 -97 -25 -146l13 -25q-13 -21 -13 -48q0 -37 13 -37l-13 -60v-110q0 -12 -12 -12l12 -24v-37q-24 -243 -48 -243q0 25 -24 25q36 162 36 218v219q0 12 12 12l-12 25q0 42 24 255q0 12 -12 12q12 85 24 425l-12 25q12 20 12 60zM794 668
q170 -332 170 -437q22 0 100 -197l-24 -13q-40 0 -161 404q-109 153 -109 231z" />
    <glyph glyph-name="S" unicode="S" horiz-adv-x="1036" 
d="M580 1457h12q231 0 432 -333v-25h-12l-62 49q-172 -12 -310 -72v25q243 84 273 84v13q-130 210 -284 210q0 12 -37 12q-92 -25 -99 -25v-24q173 -98 173 -260q13 0 13 -12l-25 -12l-111 209l-62 50h-12l-13 -148v-124q0 -83 74 -259v-37q0 -25 -24 -25q0 -39 222 -99
q191 -142 284 -308q0 -152 -198 -309q-185 -37 -382 -37q-112 0 -441 396v37q4 25 25 25h12q0 -77 293 -359q-28 308 -99 308h-111q-13 0 -13 13q-24 -13 -37 -13l-61 13v25l12 24q98 -24 234 -24h38q24 -4 24 -25h-12l74 -321q45 -37 86 -37l25 12v-12l-12 -25q24 0 24 -12
q39 12 149 12l-25 37v12q111 0 111 247v149l-12 74q12 24 12 37q-52 53 -395 136q-222 117 -222 246q0 194 197 359q176 123 272 123zM148 988q0 -168 308 -247h13l24 12q0 13 -12 13l12 61q-74 127 -74 173v272l13 86q-260 -136 -260 -308q-12 0 -24 -62zM753 568l12 -86
v-186q0 -146 -99 -247h13q216 0 296 284v13q-142 196 -210 222h-12z" />
    <glyph glyph-name="T" unicode="T" horiz-adv-x="1179" 
d="M26 1451l27 -13l26 13q13 0 13 -13q10 0 79 13q76 0 159 -26l79 13h26q30 0 53 -13q52 26 145 26q435 -31 435 -79q20 32 20 2l13 11q9 -11 33 0h14q39 -8 -77 -94l-13 -66h-40v13l130 81l-27 13q-66 -139 -66 -198h-13l-26 14q13 118 26 118q-17 79 -39 79
q-20 -52 -40 -52h-13v26l26 40l-26 13h-119q-40 0 -40 13l-65 -13q-33 0 -343 13l-14 -26q27 -153 66 -251q0 -13 -13 -13q26 -99 26 -185v-13q0 -30 -13 -53l132 -725l66 13h198q-79 178 -79 382q-13 0 -13 27h13q-23 0 -79 778l26 13q27 -29 40 -145l-13 -66
q79 -963 145 -963l-27 -39q27 0 79 -66l27 13h13q20 0 40 -53l-27 -13q0 53 -409 53q0 -27 -26 -27l-53 40h-92l-66 13v27h158q26 0 26 26v13q-39 195 -118 726l13 26q-26 252 -79 422l26 53q-180 26 -277 26q-13 -23 -26 -118q13 -73 13 -106l-26 -13q-31 0 -40 198
q0 25 26 92z" />
    <glyph glyph-name="U" unicode="U" horiz-adv-x="1501" 
d="M897 1495q350 -26 416 -39q25 13 39 13l26 -39v-13l-130 13h-52v-247q0 -29 13 -52q0 -13 -13 -13l13 -52q0 -225 39 -520q0 -364 -273 -546h-130q-218 0 -520 156q-221 238 -221 559q39 361 39 533v52h39q0 -272 -39 -585q0 -277 195 -507q257 -169 572 -169
q52 69 52 221v78q0 13 13 13q0 13 -13 13q0 14 13 39q-13 481 -26 689h13l-13 26q0 13 13 13l-13 26v39q0 13 13 13q-13 25 -13 39l13 26q-42 198 -42 223l26 13q26 0 55 -275q-13 -71 -13 -104q13 -93 13 -104q0 -26 -13 -26l13 -130v-182q0 -29 13 -52q0 -13 -13 -13
l26 -195l-52 -364h13q221 160 221 481q-35 241 -65 884q-228 13 -273 13l-13 26q0 26 39 26zM299 1443q78 -13 78 -39v-13h-195q-26 -4 -26 -26l13 -26l-26 -13q-13 22 -13 65h-104q-26 0 -26 26l26 13q45 0 273 13zM1404 1430h26v-26h-26v26zM403 1352h26v-26h-26v26z
M429 1326q84 0 91 -286l-13 -91l13 -26q0 -13 -13 -13l91 -416q39 -377 351 -289l26 13h26q0 -19 -39 -39l-169 -88q-234 55 -234 351q-13 0 -13 13q13 25 13 39q-91 300 -91 468v156q0 66 -39 208z" />
    <glyph glyph-name="V" unicode="V" horiz-adv-x="1456" 
d="M1104 1545l13 -28l-41 -138h28q144 69 413 69l14 -27v-42q-179 -1021 -262 -1255q66 0 138 -69q-27 -14 -41 -14q-46 28 -83 28l27 -41v-28l-344 55q-440 -14 -621 -14l-14 28v14h83l41 27q28 -4 28 -27q9 14 124 14q-113 130 -248 524q-304 529 -304 662v55l14 28
q-28 0 -28 27l28 14q26 -214 290 -717q55 -64 207 -469q51 0 82 -124h69q42 0 42 13l69 -13q116 0 427 41v28q207 888 207 1227q-414 -51 -414 -83q-65 -306 -110 -731l-55 -138q0 -63 -31 -74q-8 30 -8 -100l-27 -14l-28 14q28 115 52 133q-32 20 -110 276q-78 61 -152 414
q-17 0 -55 152l28 13q92 -222 124 -400q133 -234 165 -386q64 0 111 607q7 211 152 469zM28 1490q55 -11 55 -28l27 14h97q345 -65 345 -193l-3 -93q-61 189 -204 189h-28q0 56 -96 56h-55q0 -56 -28 -56h-14v56l-27 -14q-97 14 -97 41q4 28 28 28zM1117 83v-14l125 -28h13
v28l-96 14h-42z" />
    <glyph glyph-name="W" unicode="W" horiz-adv-x="1817" 
d="M1371 1539q215 -15 366 -15h46q42 0 61 -122q-137 -651 -137 -930q0 -33 30 -228q-15 -183 -30 -198q-38 0 -122 15q-167 -15 -290 -15q-145 233 -274 655h-46l-183 -351q-61 -207 -61 -228q30 -15 46 -15v-16h-46q0 16 -15 16q0 -107 -274 -107h-76q-107 78 -107 91
l31 46q-68 0 -229 610l-61 442v167q0 24 61 61h61q72 0 152 15q57 -15 137 -15h31v76h15q22 0 46 -45q0 -16 -15 -16q61 -122 152 -503l30 16q31 -5 31 -31q-46 -59 -46 -91l61 -46h15l-15 76q259 295 259 473q-15 29 -15 45l30 16q193 -172 320 -595h46l-15 31q0 15 15 15
l-15 31v396q0 15 15 15q0 15 -15 15q0 16 15 46q-15 82 -15 137v31q5 30 30 30zM1402 1478v-46l46 -76q-16 -29 -16 -46q0 -15 16 -15l-16 -76v-137q-15 -374 -76 -381q-66 15 -213 289q-41 31 -107 199q-94 -86 -289 -473h-92l-30 15q-24 -182 -61 -182l-15 30l15 107
q0 187 -153 533v30q0 16 16 16q-16 23 -16 91q-120 -30 -365 -46v-15q0 -129 45 -183l-15 -30q87 0 198 -716q30 0 76 -244l183 30h137q181 583 229 595q15 -30 15 -46q11 0 107 107q85 -147 213 -549q73 -137 92 -137l30 -15l61 30l76 -15q30 15 46 15q30 -15 46 -15
q26 15 61 15v168q0 385 76 746l-15 31q25 107 45 107l-15 76q0 34 15 61q-15 26 -15 61l31 45v31h-183zM457 1326q15 -30 15 -46l-15 -31q92 -243 92 -274h30v46q-46 49 -91 320zM76 1021v-61q0 -100 92 -411h30q-107 441 -107 472h-15zM366 76l15 -30l183 15h61q30 0 30 30
l-106 16q-29 0 -183 -31z" />
    <glyph glyph-name="X" unicode="X" horiz-adv-x="1350" 
d="M1266 1528q97 -19 97 -55q0 -28 -28 -28q0 14 -13 14q0 -27 -14 -27l14 -28v-14q0 -19 -42 -41h-27v69q-96 27 -166 27h-82q-84 0 -138 -179q-330 -624 -495 -839q-110 -198 -165 -312q357 -2 357 -87q0 -28 -27 -28q0 87 -517 11v14q-27 -14 -41 -14q-83 32 -83 55
l28 14l41 -28h82q173 150 338 485q110 96 262 440q63 75 248 455q-110 0 -110 27q0 31 179 41q13 0 13 -13q234 41 289 41zM1225 1487v-14h55v14h-55zM124 1473h14q189 -69 220 -69v-41q-83 0 -83 -28q28 -4 28 -27l-28 -14q0 41 -179 83l-13 27q13 0 13 14q104 -28 124 -28
q0 28 -96 55v28zM179 1322h14q222 -157 344 -331q21 0 55 -55v-41h-14q-48 7 -206 220q-154 99 -221 179q5 28 28 28zM1239 1322h14v-42q-638 -1009 -807 -1239h-27v28l737 1142q51 102 83 111zM881 619h28q0 -27 -28 -27v27zM909 578q267 -395 357 -395l27 -42
q0 -27 -27 -27h-14q-291 201 -371 437v13zM1280 73l137 -28q23 14 69 14l14 -28q-84 -41 -248 -41l-69 14v14q0 27 97 55z" />
    <glyph glyph-name="Y" unicode="Y" horiz-adv-x="1233" 
d="M26 1473q44 -26 80 -26h145l80 13q145 -17 145 -53l-13 -27q-43 27 -79 27h-212q26 -84 26 -106l-26 -13q-26 0 -40 79q27 0 27 27q-159 13 -159 53q4 26 26 26zM397 1380h26v-13h-26v13zM437 1407q13 62 13 48q0 -63 -13 -132q30 -463 98 -540h66v-27l-66 -13h-13
q-99 77 -125 540q0 212 40 124zM1058 1455l132 13l14 -26q0 -27 -53 -27v-13q0 -30 13 -53q0 -13 -13 -13q16 -370 39 -370q-13 -98 -26 -371q13 -25 13 -39q0 -230 -225 -450q-191 -106 -291 -106q-119 8 -119 26q-13 0 -13 -13q-423 70 -423 146l13 26q-18 1 -53 66v159
q0 13 13 13l-13 27v79h-40v40q212 -31 212 -66l-26 -14h-40l-66 14q13 -95 13 -106l-13 -132q94 -159 225 -159q0 -27 92 -27h199q159 0 225 318q13 0 13 13v331l-13 79q13 26 13 40l-27 13q0 -106 -344 -145q-304 90 -304 277q-26 106 -39 410l26 14q22 -20 53 -437
q50 -159 159 -159q17 -53 119 -53q344 0 344 239v13q0 30 -14 53q14 25 14 39q0 49 -16 219q13 25 13 39q-13 0 -13 13q27 0 27 27q-93 -18 -27 26q-26 0 -26 -53h-40q-30 0 -40 67l267 6zM884 1435q15 -94 15 -152h-13q13 -26 13 -40q0 -44 -13 -66q13 -142 27 -172
q-14 -144 -14 -251v-331q-88 -357 -211 -357l13 -26q281 78 357 238q80 125 80 661l-27 212l13 79l-13 93h13l-13 26q13 23 13 53l-26 13h-199z" />
    <glyph glyph-name="Z" unicode="Z" horiz-adv-x="1217" 
d="M799 1468q29 -15 44 -15t15 15l101 -15h189q29 -4 29 -29q-72 0 -72 -29l-102 15h-58q-102 0 -262 -334q-363 -625 -523 -974q-15 0 -15 -44h29q61 0 160 -14q92 0 306 450l530 959l15 -29v-43q-411 -717 -633 -1163q-101 -134 -101 -145l145 14h29l87 -14q66 58 157 28
q247 240 247 320h14q47 0 87 -291q15 0 15 -14v-102h-29l14 29h-14q-96 -43 -204 -43q-52 0 -130 14l-128 1q-99 14 -160 14q-239 -29 -261 -29q-32 0 -276 29q0 -14 -15 -14l-14 29l14 29l73 -15h14l-14 29v44l654 1177q47 44 72 44v43l-72 15q-321 -44 -334 -44
q-140 44 -262 44h-29q-29 -5 -29 -29q14 -28 14 -44q0 -14 -14 -14q18 -162 29 -204q-15 -25 -15 -58l175 160q158 131 585 213v-15q0 -37 -469 -169l-291 -247h-29q-10 26 -29 203h15l-15 29v160q-58 0 -58 29t44 29q29 0 29 -14l101 14h102q141 -29 160 -29h44
q66 0 319 44zM1177 1424h29v-14h-29v14zM912 87v-29q11 0 87 -15q175 29 175 58q-29 48 -29 88v101h-29q-175 -203 -204 -203z" />
    <glyph glyph-name="bracketleft" unicode="[" horiz-adv-x="915" 
d="M74 1391q180 -18 270 -18h72q40 0 72 -18q31 18 72 18h108l108 -18q29 18 90 18l18 -36q-84 -36 -162 -36q-18 0 -18 18l-90 -18q-153 0 -450 18q42 -108 54 -108q-36 -468 -90 -684q0 -18 18 -18q-36 -261 -36 -611v-216q19 0 54 -18q234 18 378 18v-36
q-242 -36 -306 -36h-144q-18 0 -54 72l18 90q0 40 -18 72l18 36q0 40 -18 72q36 509 90 953v54q0 18 18 18q0 18 -18 18l18 126v54q0 112 -90 198q18 0 18 18z" />
    <glyph glyph-name="backslash" unicode="\" horiz-adv-x="1025" 
d="M0 1424h55q744 -910 833 -1221q111 -171 111 -203h-19q-104 91 -296 518l-684 888v18z" />
    <glyph glyph-name="bracketright" unicode="]" horiz-adv-x="1267" 
d="M75 1490q102 -61 163 -61h712l102 20v-20q74 41 163 41l20 -41l-81 -122v-224q0 -165 -21 -264q21 -128 21 -285q0 -733 -82 -733q-230 -81 -305 -81q-102 0 -305 20v41h244q366 0 366 203q21 529 41 529q-20 14 -41 346l21 143q-21 110 -21 183q0 84 61 203l-529 -40
l-81 20q-15 0 -122 -20q-346 0 -346 122q20 0 20 20z" />
    <glyph glyph-name="asciicircum" unicode="^" 
d="M549 1301h11q9 0 43 -76q292 -76 308 -305q40 0 65 -152q-10 0 -10 -11q10 0 10 -10l-21 -11q-101 403 -287 403q0 21 -163 75q-257 -264 -341 -337q-87 -90 -87 -163h11v-22q-12 0 -32 -10q-21 10 -33 10v22q0 135 331 468q63 97 76 97q56 -10 65 -10z" />
    <glyph glyph-name="underscore" unicode="_" horiz-adv-x="1024" 
d="M0 -100h1024v-60h-1024v60z" />
    <glyph glyph-name="grave" unicode="`" horiz-adv-x="1024" 
d="M673 1079h-69l-330 202q-31 20 -46.5 40t-15.5 42q0 31 20.5 51t53.5 20q20 0 40.5 -12t55.5 -47z" />
    <glyph glyph-name="a" unicode="a" horiz-adv-x="981" 
d="M438 1077q389 -50 389 -250l37 -88l-12 -50q12 -176 25 -188l-13 -63q52 -320 52 -346h-12q-33 0 -77 309l12 25q-12 24 -12 37l12 25q-12 22 -12 51q0 12 12 12q-25 77 -25 100q0 13 13 13q0 363 -401 363l-173 -85q0 30 235 35q126 -93 126 -188l-13 -88q50 0 50 -25
v-12q-50 0 -50 -25q13 -66 13 -75l-13 -63q38 -331 63 -376h50l75 13q24 -13 38 -13l62 13q56 0 113 -100l-25 -13l-38 63q-12 0 -12 -13l-88 13h-12q-172 0 -288 -50l-88 12q-229 -50 -263 -50q-118 0 -188 175l13 63v12q0 45 -13 113q68 247 263 351q75 50 113 50h25
q27 0 163 -38v75q0 112 -176 151h-12q-240 -115 -267 -115q-25 0 -25 25q0 47 354 215zM50 363v-175q0 -104 113 -125h138q65 0 75 37q-88 63 -88 176h13l-13 25q5 92 188 325q50 25 50 38v12q0 32 -138 50q-313 -132 -313 -300q-22 0 -25 -63zM539 626q-124 -123 -201 -275
v-113q0 -79 113 -138q6 0 50 13l50 -13l75 13q-37 0 -62 476v12q0 25 -25 25z" />
    <glyph glyph-name="b" unicode="b" horiz-adv-x="995" 
d="M374 1484v-27q0 -21 -267 -93q-107 13 -107 40q105 40 134 40l53 -13q130 53 187 53zM353 1503q26 -49 21 -206h-13l13 -27q0 -13 -13 -13l13 -27v-174q0 -30 -13 -53q13 -24 13 -54v-187q90 120 134 120l-13 27v13h40q26 0 133 27q262 0 321 -294q0 -13 -13 -13l13 -67
v-13q0 -307 -200 -402q-121 -72 -334 -133v-14l-67 14q-14 0 -14 -14l-67 14h-66l-94 -27v13q0 27 13 27l-53 321l13 94v294q0 13 14 13q-27 70 -27 281v227q8 80 40 80q27 -4 27 -26q-27 -101 -27 -121q13 -504 13 -762l-13 -67q17 -154 40 -173v-134h187q-13 331 -13 394
h14q8 0 -14 -301h13l-13 27v67q0 13 13 13q0 14 -13 14l13 67q0 29 -26 200q0 10 13 80q-27 107 -27 254v348l-8 259zM588 896q0 -30 107 -214q27 -227 27 -254v-27q0 -139 -67 -267q281 119 281 294q13 0 13 13q-13 92 -13 147v94q0 172 -254 227q-53 -13 -94 -13zM401 642
v-80q0 -14 -13 -14q26 -70 26 -281v-160h148q120 78 120 267q0 325 -134 482q-113 0 -147 -214z" />
    <glyph glyph-name="c" unicode="c" horiz-adv-x="860" 
d="M386 1028q117 -36 231 -90q183 -141 218 -141v-13q0 -26 -25 -26q-12 0 -103 13q-23 -13 -52 -13v26q7 0 52 13v13q0 19 -129 64q0 13 -13 13q-137 0 -257 -514q13 -25 13 -39q0 -13 -13 -13q26 -218 142 -218l25 38l65 -12q106 48 154 141v13h-26v25q52 0 52 52
q49 -52 90 -52q24 13 38 13l13 -25q-167 0 -167 -103q-56 -73 -347 -193q-286 0 -347 398h13l-13 26q46 314 180 476q172 128 206 128zM39 437q12 -25 12 -39l-12 -25q0 -147 192 -309h52l90 13q-103 108 -103 257q19 258 180 527q77 48 77 64q-35 29 -129 52
q-99 0 -231 -167q-68 -75 -128 -373z" />
    <glyph glyph-name="d" unicode="d" horiz-adv-x="1130" 
d="M609 1468q220 -42 263 -42h194l70 14l13 -27q-26 -14 -41 -14q14 -298 14 -430q0 -100 -28 -180q0 -14 14 -41q-14 -401 5 -625q14 -24 14 -56l-28 -13l-27 41v14q0 14 14 14q0 14 -14 14l-6 611l-13 28q27 69 27 249v14q0 117 -14 346h-194l-346 41v28q11 0 83 14z
M568 1385q263 -76 263 -346q0 -42 14 -97q-28 -232 -28 -776v-97l-14 -27q14 0 14 -14l-28 -14h-13q-28 0 -28 28q27 13 41 13l-13 70v346q0 125 27 235l-27 14q0 -20 -42 -41h-14v55q-45 28 -83 28h-55q-236 -258 -236 -416v-83q0 -100 139 -180l958 556v-14
q-912 -625 -1055 -625q-388 69 -388 360q0 159 374 443q135 42 166 42q218 -56 249 -56l14 83q-9 250 -55 250q-75 111 -111 111l-14 27v14h14q45 -28 69 -28q0 26 -97 84h-83l-41 -28q-28 0 -28 28q45 33 111 55zM42 346q0 -171 249 -291q53 14 111 14q-97 134 -97 180v56
q0 199 235 484h-14q-266 0 -484 -429v-14zM1058 26h55q0 -37 -36 -37z" />
    <glyph glyph-name="e" unicode="e" horiz-adv-x="1091" 
d="M476 1011q335 0 476 -253v-89l-15 -30q29 -4 29 -29l-14 -30l-268 30q-153 -19 -193 -45q-42 164 -75 164h-15q-193 -116 -193 -268q-69 -113 -74 -208q0 -179 401 -179l223 60v-15q119 74 223 89q0 89 89 89h15q22 0 45 -44q-289 -253 -506 -253l-74 15h-104
q-344 0 -416 223q0 17 -30 163q0 15 15 15l-15 30q144 461 253 461q128 104 223 104zM45 476q11 -39 29 -179q18 3 149 342q141 149 238 149q59 -96 59 -149l104 15h268v60q-76 238 -327 238q-11 0 -89 14q-261 0 -431 -490zM699 535h74q89 -41 89 -104q-77 -74 -133 -74
h-15q-81 0 -119 74v45q24 59 104 59zM654 476v-45q60 0 60 -15q59 23 59 45v30h-15zM862 119h15q30 0 30 30h-15q-30 -5 -30 -30zM669 74v-15h74q29 15 45 15v15h-45z" />
    <glyph glyph-name="f" unicode="f" horiz-adv-x="559" 
d="M574 1451q161 0 191 -281q-16 -256 -40 -256l-12 22q2 223 18 223q-56 157 -101 157q-196 0 -259 -124q-34 -78 -45 -225q11 -19 11 -45l-22 -90q22 -78 22 -135v-22l-11 -23l23 -11q0 23 112 34l169 180q56 -28 45 -169v-67l11 -57l-45 -33l-11 22v90l-79 11
q-39 0 -124 -33l-67 11h-23v-23q0 -25 12 -45q0 -11 -12 -11l57 -382l-23 -113q68 0 68 -34l-23 -11q-11 0 -11 11l-56 -11h-79q-56 0 -169 -11v11l11 23h-112v22q56 0 56 11l79 -11h225l-11 23v56q0 11 11 11q-23 57 -23 79q0 11 12 11l-57 416q0 9 12 68q-12 100 -12 124
l12 101l-12 22q42 372 225 372h169v11q0 42 -112 67h-169q-183 0 -360 -225v-22q0 -34 11 -34l-11 -56v-56q0 -57 22 -135h-11l11 -23v-90q0 -25 -11 -45q19 -63 34 -225q-11 -20 -11 -45v-56q27 -449 27 -468v-23h-11q-17 0 -61 468l11 79v79q0 78 -23 214q0 9 12 90
q-23 84 -23 157v180q0 11 11 11l-11 23q189 236 439 236h124zM607 810q0 -29 -78 -124q40 0 101 -11v101l11 23l-22 11h-12z" />
    <glyph glyph-name="g" unicode="g" horiz-adv-x="1212" 
d="M576 1028q101 0 254 -127q27 0 47 79l285 -63l32 16q27 -16 63 -16h48v-32l-80 -15q-150 15 -316 15q0 -24 -32 -63v-713q0 -314 -317 -490h143q238 0 348 269q16 158 16 237l-16 79l64 586q-16 0 -16 16l31 16l16 -32l-16 -31q0 -16 16 -16l-16 -79v-222q0 -16 -15 -16
q15 -30 15 -47q-31 -101 -31 -127l16 -190q0 -380 -317 -475l-143 -16q-570 0 -570 253l32 16q137 -190 348 -190q365 93 365 491v697h-64q-305 -148 -412 -443q0 -75 80 -238h15q141 20 1408 1062h16v-16q-1301 -1109 -1471 -1109h-158q-174 0 -238 269v174q89 265 301 396
q87 95 269 95zM54 505v-126q0 -238 332 -238q-79 174 -79 222q0 225 443 538q-118 79 -174 79q-249 0 -459 -300q-63 -127 -63 -175z" />
    <glyph glyph-name="h" unicode="h" horiz-adv-x="1104" 
d="M559 1462l14 -29q-57 -14 -100 -43q0 -14 14 -14q-72 -799 -72 -1276q15 0 15 -14q-56 -29 -158 -29q-32 0 -57 15q-28 -15 -43 -15q-19 72 -43 72l14 72v516l-14 71h14q-14 28 -14 43q0 333 43 459q-15 24 -15 72l-143 -15h-14v29q391 43 559 86zM272 1376h-72
q0 -29 15 -29l-29 -200q0 -15 14 -15l-14 -71v-932l-14 -29h186l14 101v114q0 15 15 15q0 14 -15 14l15 172v215q0 14 14 14q0 15 -14 15q43 373 43 616q-15 0 -15 14zM903 917h114q63 -29 172 -301q15 0 15 -14q-43 0 -58 -387l68 -197l-29 -14l-110 326q0 15 14 43l-14 57
q28 138 28 201q0 176 -129 258h-14l-143 -15q33 -106 130 -840q14 0 14 -28h-14q-54 0 -130 539q0 15 14 43q-17 272 -72 272q-20 0 -129 -100h-14v14q14 28 14 43h-14q-20 0 -1072 -695h-29v14q972 733 1388 781zM1261 115l14 -29l-28 -14h-15v14q5 29 29 29zM1146 72h58
q0 -33 -387 -72v29q144 43 329 43z" />
    <glyph glyph-name="i" unicode="i" horiz-adv-x="624" 
d="M320 1358h26q18 0 38 -26v-8h-12q-42 17 -64 17q-115 -26 -115 -77l25 -9l-13 -34q13 -94 77 -94q0 10 90 43h25v-9q-52 -51 -153 -51q-77 30 -77 137v26q0 66 153 85zM257 1255h63l128 -8v-43q0 -12 -38 -25l13 42v9l-64 8h-102v17zM149 914h30q0 -62 20 -62
q151 0 243 62q32 -31 50 -31v-31h-50l10 -31v-124q0 -46 -10 -46q23 -543 60 -543h30v-31l-50 -15q-79 46 -101 46q-10 0 -10 -15l-50 15h-31l-50 -15q0 -22 30 -47l81 31v-15q0 -47 -111 -62q-22 77 -71 77v47h20l-10 108q0 26 10 186q-20 234 -20 372l-20 16h-91
q-20 0 -20 31v15h111v62zM522 914q41 -23 41 -46l-20 -16h-21l-20 16q10 46 20 46zM240 821h-30q0 -52 -11 -77l11 -31q0 -16 -11 -16l21 -294h-10q0 -16 10 -16l-10 -108v-62q0 -56 30 -93l20 15h182v16l-31 620q10 25 10 77h-10q-80 -31 -171 -31z" />
    <glyph glyph-name="j" unicode="j" horiz-adv-x="1344" 
d="M1207 1088v-41q-134 -50 -663 -111l-27 41v14q14 0 41 -14q571 133 649 111zM970 1010l41 83q25 0 42 -124l-14 -69q-14 -741 -14 -871h-14q14 -27 14 -41q0 -282 -207 -373q-50 -28 -124 -28q-429 140 -429 290q-96 68 -96 152v55q0 38 55 208h28v-14q-42 -173 -42 -221
q62 -216 346 -373q124 0 193 345v138q0 119 -14 249q28 104 28 193v249q4 97 27 97l-13 28q4 27 27 27l28 -14l-55 -594q13 -216 13 -318q0 -306 -193 -428q118 -28 152 -28q235 84 235 332q0 15 -14 42q28 573 28 677q-14 26 -14 41q14 23 14 69l-56 28q42 50 28 193z
M286 1202l656 -45l655 140l-668 -198zM376 402l14 -27q0 -28 -28 -28h-345q-28 0 -28 28l28 13v-13l27 13h263z" />
    <glyph glyph-name="k" unicode="k" horiz-adv-x="1174" 
d="M305 1457q59 0 90 -56v-23l-11 -57h-11q-23 0 -23 23l-79 -11h-90l-12 -79v-362q0 -91 12 -214q-23 -49 -23 -181v-328q0 -25 -11 -45q0 -13 34 -56l22 11h102v-11l-11 -23q46 0 90 -11q0 16 34 34l11 -23v-11l-22 -34q-396 41 -396 56q-11 0 -11 12l23 11h90
q9 124 23 124q0 12 -12 12q23 508 23 643q-11 288 -11 339q11 99 11 170q-57 8 -57 34q176 56 215 56zM181 1378h67l34 23h68v22h-11q-158 -11 -158 -45zM294 1378v-11h34v11h-34zM350 1288h11q-11 -187 -11 -283v-305q4 -22 23 -22h11q57 191 794 740q23 -4 23 -23
l-580 -458l11 -22v-11q-162 -204 -180 -204v-11q260 -278 339 -418l-23 -11q-11 45 -68 45l-45 -68q-144 314 -226 418h-22q-57 0 -68 -158q11 -190 34 -305l-34 -23q-23 58 -23 260v136q0 47 12 124q-12 22 -12 34q0 11 12 11l-12 57v338q3 113 23 113l-11 23q3 23 22 23z
M486 825v-23q22 0 22 23h-22zM565 486q88 -170 101 -170h12q22 0 22 23q-25 59 -113 147h-22zM700 282h22q71 -27 130 -195l770 902l-726 -946q0 -31 -65 -65h-22q-38 0 -87 261q-22 0 -22 22v21z" />
    <glyph glyph-name="l" unicode="l" horiz-adv-x="522" 
d="M14 1506h15q584 -149 43 -86l-15 -72q15 -149 15 -172l-15 -57q61 -376 72 -388l-14 -71q0 -493 100 -588q29 -5 29 -29q107 29 129 29q-86 227 -86 272h14l-14 29v115q0 122 -14 258q28 114 28 272q0 15 15 15l-15 28l15 201q-15 28 -15 43q29 0 29 29q-29 0 -29 29v43
q5 28 29 28q29 -114 29 -301l-15 -29q0 -14 15 -14q-15 -223 -43 -387l28 -316l-14 -28q0 -158 115 -244q49 77 234 230l-62 -144q-130 -145 -359 -201h-14q-88 0 -158 229v87q0 167 -29 229q15 78 15 129q0 224 -72 459l14 86v72q0 32 -14 57q14 101 29 101l-15 28v29z" />
    <glyph glyph-name="m" unicode="m" horiz-adv-x="1569" 
d="M1343 1138q174 -103 174 -316q0 -69 -3 -532q31 -117 31 -158h-15q-39 0 -48 158q-12 482 -12 564q-8 134 -111 252l-237 -31v-16q142 -72 170 -832l-15 -79q15 -26 15 -79v-63q199 16 238 47q2 -145 896 278q-786 -388 -817 -388q-13 0 -48 47q-126 0 -300 -32l-16 32
v32q0 16 16 16q-16 30 -16 47q0 135 16 284q-64 643 -155 643q-65 0 -338 -292h-16v16q297 402 591 402zM32 1043q31 -5 31 -31v-79h63q40 0 143 -32v47l-16 79h32q28 -142 63 -142q79 127 284 127h111q21 0 79 -79q0 -36 -16 -64q16 -79 32 -79l-16 -63q16 -140 16 -174
q-16 0 -16 -16q25 0 63 -126l-31 -16h-16q-61 63 -206 63h-31v48q63 0 63 126l-16 32l16 31q-32 222 -79 222l-79 -16v16q0 31 47 31v16h-31q-156 -75 -206 -158v-332q0 -147 84 -430h-47q-84 311 -84 620v190q-103 31 -143 31h-63q16 -261 48 -442h-16l68 -391
q-16 -27 -16 -63h-47v48l-53 406h16q-47 130 -47 442v63l-16 79zM569 980q126 -66 126 -253h16l-31 -221l110 -16q0 79 16 79q-32 71 -32 205v143q-25 63 -110 63h-95zM300 79q174 -32 174 -63q-30 -16 -47 -16q-103 32 -142 32h-190v31q196 16 205 16z" />
    <glyph glyph-name="n" unicode="n" horiz-adv-x="1108" 
d="M0 1077q57 -27 175 -40q4 27 27 27q256 -57 256 -81q-27 -31 -41 -243q21 0 175 175h27l95 -13q0 30 121 40q161 -135 161 -350h-13q0 -13 13 -13q-27 -130 -27 -148l14 -27q-27 -61 22 -318h-41q-28 533 -8 533q-61 239 -135 283h-13q-95 -27 -108 -27q54 -197 54 -323
q-40 -166 -40 -229l49 -210l13 -68h213q131 798 27 56q266 693 -25 -96l-67 14h-67q-27 0 -27 -54h-14q-49 40 -94 40h-40v27h54l-14 94l-49 224q41 180 41 242q0 151 -68 256q-229 -110 -229 -202v-40q0 -142 -13 -480l2 -230l-43 257q5 318 27 318l-13 27v189q0 30 -14 53
l41 162q-27 0 -27 27l27 40l-175 41v-14l13 -27q-27 -80 -40 -80l13 -27v-27q0 -41 -13 -41l13 -67v-323q0 -183 -27 -345h175q27 -5 27 -27v-14h-228l-95 14v27l68 -14q23 58 53 440q-13 23 -13 54v94q0 40 13 40l-13 67v162l-13 67q26 0 26 27q-188 9 -188 68v13z" />
    <glyph glyph-name="o" unicode="o" horiz-adv-x="965" 
d="M453 1061q495 -112 495 -424q-11 -383 -340 -566q-114 -71 -240 -71q-207 0 -354 410q0 32 -14 57q0 263 255 523q82 71 198 71zM283 962l14 -71q-46 -54 -85 -311q0 -286 170 -467v-14h-42v-14q169 -14 169 -28q341 233 396 523v71q0 159 -184 269h-14l113 -270v-42
q0 -21 -42 -43h-14l14 71q-144 340 -226 340h-57q-28 -4 -28 -28q36 0 71 -127h-15q156 -236 156 -467q0 -187 -113 -255h-99v28h42q128 0 128 213q0 164 -142 481q-64 127 -99 127v14q0 28 57 28v29h-14q-61 0 -156 -57zM57 481v-28q0 -117 169 -340q35 -28 57 -28
q27 14 42 14v14q-155 222 -155 439q28 339 85 339v14h-15q-183 -163 -183 -424z" />
    <glyph glyph-name="p" unicode="p" horiz-adv-x="1130" 
d="M264 1056q49 -30 75 -30q4 30 30 30l29 -15q26 15 60 15l60 -45h238q278 0 387 -342v-164q-221 -313 -402 -313q-156 0 -328 45v-15q0 -245 30 -418q-15 -57 -15 -119q0 -25 75 -44q29 14 44 14l15 -29l-15 -30q-15 0 -44 15q-250 -15 -388 -15h-29l-45 -30q-30 0 -30 45
q0 54 60 238q-30 769 -30 1043q15 108 30 134q74 -30 74 -44q119 51 119 74zM86 847q0 -264 29 -804h-15l30 -134l-74 -268l30 -15q152 15 238 15l60 44l-15 30q4 30 29 30l-14 30v164l-15 74h15q-15 29 -15 45q0 547 59 909l-104 15l-30 -15l-30 15q-164 -31 -164 -120
q-14 0 -14 -15zM562 967h-119l15 -30v-15q0 -15 -15 -15q15 -45 30 -45q49 30 89 30h105q89 0 178 -357q-44 -178 -134 -298h30q358 128 358 342q-90 403 -328 403q-127 -15 -209 -15zM443 803q-15 -265 -15 -432v-30q0 -15 -15 -15q30 -89 164 -89h60q164 153 164 327
q-79 298 -194 298q-164 -22 -164 -59z" />
    <glyph glyph-name="q" unicode="q" horiz-adv-x="1091" 
d="M462 1093q125 0 197 -111q138 37 296 37h25q25 -4 25 -25v-12h-13l-24 12q-62 -12 -62 -24l-62 12q-70 0 -148 -25q13 -24 13 -37t-13 -37l13 -74v-24q0 -28 -13 -50q13 -24 13 -37l-13 -61q25 -4 25 -25v-12l-25 -37v-50q0 -27 13 -49q0 -12 -13 -12q13 -250 74 -703
h-12q33 -136 123 -136l161 123v-12q-99 -148 -235 -148q-98 128 -98 185h12l-12 25v37q0 167 -25 271h12l-24 86q0 13 12 13q-12 30 -25 320h-12q-97 -52 -333 -98q-259 0 -259 259v86q0 126 247 284q129 49 160 49zM92 735q0 -208 99 -259q13 0 37 13l160 -25q40 25 74 25
q-97 155 -99 259q35 91 222 259q0 24 -123 49q-370 -114 -370 -321zM400 723q9 -112 111 -210q78 0 148 74v148q0 28 13 50q-13 24 -13 37l13 123h-13q-172 0 -259 -222zM846 1042h37q37 0 60 -405l-12 -25q12 -65 12 -74l-37 -271q0 -52 25 -124q0 -12 -13 -12
q42 -317 99 -333q40 0 647 1038v-25q-590 -1064 -622 -1075v37l-25 -12h-25q-49 30 -98 197q12 24 12 37l-37 259q25 227 25 407v111l12 25q-15 0 -60 245zM1664 873h24v-12q0 -25 -24 -25v37z" />
    <glyph glyph-name="r" unicode="r" horiz-adv-x="1135" 
d="M-13 1058h16q0 -47 78 -47q40 0 422 -16q0 16 15 16l16 -32q-36 -31 -109 -31v-172q0 -15 -16 -15l16 -31v-16l-16 -94q0 -15 16 -15l-16 -110v-250l16 -78l-32 -15l-31 46l6 317q0 35 10 90q-16 30 -16 46q0 17 16 47l-16 94q31 102 31 141v15q-254 21 -265 31
q-30 -15 -47 -15q-125 10 -125 47v15q5 32 31 32zM1052 979v440q58 -440 78 -736l-31 -16q-31 0 -31 31v63q0 15 15 15q-15 24 -31 203zM18 933h47v-688q0 -187 110 -187h281l47 31q31 -5 31 -31v-31q-156 -16 -234 -16h-32q-15 0 -15 16l-31 -16q-204 0 -204 203
q0 115 -15 172l15 94q-15 217 -15 281h15q0 15 -15 15l15 110v47zM940 933q43 0 125 -125v-32h-16q-82 90 -140 125q-337 -94 -364 -237q-8 -28 -249 -401l-15 32q271 682 659 638z" />
    <glyph glyph-name="s" unicode="s" horiz-adv-x="805" 
d="M518 1088q114 0 207 -168v-65q0 -26 -26 -26l-25 13l12 26v39q-72 142 -168 142h-52q-146 0 -311 -220q-25 -80 -25 -104q22 -194 103 -194q7 0 52 13l117 -13l-26 65q0 267 194 414l13 -26q-169 -141 -169 -401q26 0 26 -39h78q13 0 13 -13q25 13 39 13
q194 -50 194 -181q0 -138 -246 -285q0 -16 -91 -78h-38v26q61 0 103 78q-290 0 -388 116v13q161 -103 388 -103q78 0 78 155v13q0 100 -91 207q-59 -26 -246 -26q-86 0 -142 195v64q0 209 349 350h78zM696 1062h39v-52q0 -13 -13 -13q26 -79 26 -103h-13q39 -88 39 -104h-26
q-35 0 -52 233v39zM531 505q78 -126 78 -220l-13 -117q129 82 129 208q-65 129 -155 129h-39zM104 339q13 0 26 -246l-26 -13q-26 65 -26 233q4 26 26 26z" />
    <glyph glyph-name="t" unicode="t" horiz-adv-x="674" 
d="M65 1479l13 -26l-39 -220l13 -26l-13 -65l13 -52l-13 -26q0 -26 13 -26l-13 -130v-117q0 -739 143 -739h116l130 13v13q-156 0 -156 130q0 123 -38 635h-39q-68 0 -78 39l117 26q-13 25 -13 39q13 236 51 286l-13 25q13 26 13 39h26q-7 -129 -26 -129l13 -26
q-9 -78 -26 -78q0 -13 13 -13l-13 -65v-91h26q75 0 260 26l13 -26q-125 -39 -299 -52v-13q52 -331 52 -571q0 -12 -13 -12q40 -126 78 -130h13q172 0 247 233l13 78h26v-65q-101 -337 -273 -337q0 -26 -52 -26l-52 13q-13 0 -13 -13q-103 9 -103 26l-26 -13q-156 0 -156 701
v220q0 13 13 13l-13 26v65l13 78q-13 22 -13 52h13q0 13 -13 13q28 298 65 298z" />
    <glyph glyph-name="u" unicode="u" horiz-adv-x="1300" 
d="M126 1087q504 -100 504 -158q-52 -31 -94 -31q31 -289 31 -315q0 -16 -16 -16l16 -79v-141q26 -63 110 -63q191 0 284 456v48l-16 78q32 0 32 32q-32 0 -32 31l47 32h16q184 0 252 31q95 -37 95 -63v-15h-16q-31 15 -47 15q-48 -63 -48 -535v-16q0 -35 16 -63
q0 -16 -16 -16l16 -78v-48h16q19 0 189 63l198 84q-290 -185 -592 -273q0 -47 -31 -47l-16 32v15q49 95 189 95v16q0 52 -16 78q0 32 16 32l-16 189q0 71 16 472q-154 -11 -189 -63l31 -330h-15q0 -16 15 -16q-15 -112 -15 -126q9 -392 9 -425h-31q-32 0 -32 31l6 425l16 32
l-31 16q-105 -271 -284 -347l-31 -16h-95q-318 0 -409 441v315l15 111q-15 0 -15 15h31q0 -47 32 -47l-16 -79v-220l16 -95l-16 -31q115 -347 315 -347h110q84 0 173 95h-31q-89 -47 -126 -47q-142 0 -142 362h16l-16 31v111l-16 94q16 26 16 79q-71 79 -394 142l-110 -16
v16q0 37 126 47z" />
    <glyph glyph-name="v" unicode="v" horiz-adv-x="1448" 
d="M1448 1039q28 -16 63 -16v-47h-15l-32 16q-56 0 -142 -284q-169 -290 -267 -645q-32 -5 -32 -32l-31 16h-16q-95 0 -394 -47h-47q-22 0 -47 47q26 16 79 16q-142 236 -236 504q-71 38 -205 393h-126v32q65 0 173 16q299 0 299 -111q252 -588 284 -598q5 -31 31 -31
q209 593 356 782q31 -5 31 -32q-178 -313 -355 -798l15 -31v-16q0 -24 -63 -63q0 16 -15 16l15 79v31q-98 0 -299 567q-51 157 -267 157q0 -15 -16 -15q315 -642 315 -677l126 -205q425 0 425 157q0 48 299 693v16q-16 30 -16 47h-157q-66 0 -173 -16q-27 16 -79 16v32
q236 15 346 15h79z" />
    <glyph glyph-name="w" unicode="w" horiz-adv-x="2009" 
d="M1997 1193q25 0 53 -53q-53 -274 -301 -1062h-35v18l265 955v54h-407q0 -49 -159 -549q-125 -234 -156 -273v-88l138 -67l177 -50l89 -18v-53q-493 99 -493 205q-152 390 -212 425h-18q-133 -367 -159 -407q17 -34 17 -53q-17 -34 -17 -53h17q31 18 71 18h18
q35 -6 35 -36l-53 -35q-17 0 -17 17q-30 -17 -319 -53q-34 18 -53 18q0 -25 -53 -53l-71 71q0 40 18 71l-266 654q-30 147 -106 213q71 14 71 35q187 -17 371 -88v-36q0 -17 -17 -17q163 -391 386 -829l-35 -18q-227 367 -298 599q-107 283 -159 283q-173 53 -213 53v-53
l319 -832h124l212 18q-18 34 -18 53q0 181 177 513h18l-18 36v35q0 25 53 53q36 0 36 -53q-18 -34 -18 -53q64 -51 195 -407q48 0 209 396q13 14 142 408q-35 17 -53 17q-35 -17 -54 -17l-17 35l35 18h496zM372 1027h17v-36h-17v36z" />
    <glyph glyph-name="x" unicode="x" horiz-adv-x="1168" 
d="M410 1132h33l66 -49h164q32 -5 32 -33l-16 -33l-82 17h-66v-33q33 -62 197 -230q164 173 164 197v16q-98 0 -98 33q162 17 213 82q33 -5 33 -33q-16 0 -16 -16l278 49v-16q0 -33 -344 -115q-121 -163 -197 -230q208 -208 312 -377q0 -33 -33 -33l-443 509
q-148 135 -148 180l-377 -65h-16l-33 16q0 -16 -17 -16l-16 32l66 33l32 -16q345 53 345 98h-33v33zM49 902h17q525 -568 525 -590q37 0 65 -17q17 0 17 17l197 -17h49q224 0 279 50h16v-83q-193 -16 -279 -16h-65q-37 0 -66 -16q-66 32 -115 32q-29 -16 -66 -16l17 -33
q0 -33 -33 -33q-284 383 -361 443q-168 165 -197 214v65zM377 427l17 -33q-323 -456 -356 -465h-17v32q292 425 356 466zM197 115q148 -37 148 -82q0 -33 -33 -33q0 66 -197 66h-33l-49 -33q-33 0 -33 33q86 49 197 49z" />
    <glyph glyph-name="y" unicode="y" horiz-adv-x="868" 
d="M17 1050h15l30 -15q-30 -255 -45 -298q71 -269 209 -269h74v30q-44 55 -44 269q0 268 44 268l15 -30q-15 -186 -15 -209q0 -184 60 -283q48 36 135 44l-30 -44h15q283 79 283 283l-15 75q12 149 45 149q26 0 45 -74q-45 -284 -60 -568q30 -54 30 -134q0 -371 -194 -463
q-65 -63 -269 -119v-15q120 -30 150 -30h15q441 23 552 373v269q0 33 15 60q-15 26 -15 59v60q0 37 30 478v15q5 30 30 30l15 -30v-120q0 -22 -30 -358q0 -45 15 -105l-30 -283l15 -90q-162 -403 -642 -403q-448 157 -448 373l19 500q59 -649 100 -649h15v15l-15 75l-53 428
q123 -593 217 -593h90q344 98 344 344q14 0 14 59q-14 393 -14 463h-15q-188 -164 -568 -164q-179 168 -179 299q15 166 15 298q5 30 30 30z" />
    <glyph glyph-name="z" unicode="z" horiz-adv-x="1053" 
d="M925 1072q12 -22 12 -34q-40 -62 -113 -248q-210 -382 -271 -564v-12l722 77l34 23l11 -23q-1 -15 -57 -45h-22q-462 -77 -462 -65q-12 0 -12 -12q-113 12 -113 23q-132 0 -157 -90q-40 -102 -57 -102q-22 0 -22 23q73 112 79 135h-23q-46 0 -361 -68l-11 23
q101 32 101 45q170 385 418 779h11q-68 -166 -282 -531l-102 -225q23 -4 23 -23q180 19 180 56q23 -3 23 -22q42 0 124 248q45 41 192 372q30 22 79 181h-11q-53 23 -102 23q-21 0 -124 -68q-60 22 -158 34v-23l11 -22l-22 -12q0 17 -34 34q-150 0 -316 -214q-23 0 -23 22
q169 203 260 203v12h-34q-214 -34 -214 -68l-23 11l-11 -22v-181l34 23q-26 -147 -46 -147q-22 65 -22 282h11l-11 23q11 22 11 34l-22 -12q-23 0 -23 23q251 68 361 68h45l68 -12q110 17 135 34l23 -11q44 22 124 22q90 0 135 -33q15 56 34 56zM1038 621l11 -23
q-33 -145 -33 -305q22 -73 22 -101q-28 0 -56 113l22 180q-230 -259 -304 -259l-12 22l23 12v-12q190 142 293 316q8 57 34 57z" />
    <glyph glyph-name="braceleft" unicode="{" 
d="M769 1633q180 -22 180 -72v-18q0 -36 -36 -36l-18 36q18 0 18 18q-19 0 -54 18l-36 -18l-90 18q-149 0 -234 -360q0 -18 18 -18q-36 -136 -36 -253q0 -38 18 -198q-18 -31 -18 -72q306 -132 306 -288q-198 -262 -198 -433q49 -144 306 -144h54v-36h-72q-41 0 -72 -18
q-270 72 -270 162v18q0 227 180 451v72q0 47 -252 144q-118 -36 -163 -36h-36q-180 0 -270 144v18l18 36q208 -18 414 -72q0 54 18 54l-18 90q0 649 181 739q69 54 162 54zM102 696q0 -59 234 -72h36v36q-212 36 -270 36z" />
    <glyph glyph-name="bar" unicode="|" 
d="M440 1748h52q-17 -582 -17 -791q0 -478 137 -1341l-34 -17q-69 312 -155 1186q17 442 17 757q0 43 17 137q-17 30 -17 69z" />
    <glyph glyph-name="braceright" unicode="}" horiz-adv-x="1454" 
d="M588 1462q408 -85 408 -370q0 -102 -253 -350q-77 -87 -77 -136l175 -175q168 97 330 97q183 -77 273 -175v-19h-176l-116 -20q-100 39 -311 39q-39 0 -78 -525q0 -71 -273 -136h-58v39q292 0 292 272q0 292 78 389v20q-57 0 -195 175v58q311 360 311 428v78
q0 200 -369 253q-237 -20 -448 -117l-19 39q217 136 506 136zM938 412q221 -39 311 -39h58q0 16 -155 116h-39q-175 -55 -175 -77z" />
    <glyph glyph-name="asciitilde" unicode="~" 
d="M923 878v-156q-63 -72 -122 -97.5t-116 -25.5q-60 0 -177.5 48.5t-176.5 48.5q-51 0 -107.5 -28t-129.5 -112v156q64 73 123 99t114 26q64 0 181.5 -49.5t172.5 -49.5q52 0 108.5 28t129.5 112z" />
    <glyph glyph-name="exclamdown" unicode="&#xa1;" horiz-adv-x="672" 
 />
    <glyph glyph-name="cent" unicode="&#xa2;" horiz-adv-x="1139" 
 />
    <glyph glyph-name="sterling" unicode="&#xa3;" 
d="M748 1347q-72 31 -160 31h-2q-100 0 -190 -101q-84 -93 -84 -241q0 -15 1 -30q0 -135 53 -273h360v-60h-334q14 -30 31 -60q35 -63 35 -138q0 -161 -162 -375h402q130 0 189 132l49 -1l-103 -231h-719l1 50q187 238 187 418q0 77 -34 143q-17 32 -31 62h-161v60h135
q-58 143 -58 253q0 226 123.5 347t306.5 121h4q75 0 185.5 -14t110.5 -34v-161h-58q-5 61 -77 102z" />
    <glyph glyph-name="currency" unicode="&#xa4;" 
d="M350 560q41 -40 99 -57q29 -8 58 -8t58 8q58 17 99 57q40 41 57 99q9 29 9 58t-9 58q-17 58 -57 99q-41 40 -100 57q-29 8 -58 8t-58 -9q-58 -17 -98 -56q-39 -40 -56 -98q-10 -30 -10 -60q0 -28 9 -56q16 -59 57 -100zM240 903l-118 118l80 81l118 -118q44 30 99 46
q44 14 89 14q41 0 83 -12q57 -17 102 -48l118 118l80 -81l-117 -117q31 -46 48 -102q12 -42 12 -85q0 -42 -12 -85q-17 -56 -48 -102l117 -117l-80 -81l-118 118q-45 -32 -101 -48q-42 -12 -85 -12q-42 0 -85 12q-57 16 -102 48l-118 -118l-80 81l118 117q-32 46 -48 103
q-12 42 -12 84q0 44 13 87q16 55 47 99z" />
    <glyph glyph-name="yen" unicode="&#xa5;" horiz-adv-x="1262" 
d="M547 225l-2 242q0 19 -1.5 35t-4.5 32l-484 1q-14 0 -21 6.5t-7 19.5t6.5 19t21.5 6h467l-121 172h-344q-17 0 -23.5 5.5t-6.5 18.5q0 14 6 19.5t22 5.5h307q-43 57 -108 155q-131 197 -227 197q-7 0 -13 5.5t-6 11.5q0 19 10.5 27.5t32.5 8.5q27 0 123 -8t164 -8h88
q33 0 41 -6.5t8 -26.5q0 -8 -15 -14t-38 -6q-6 0 -18.5 2t-18.5 2q-24 0 -37.5 -9.5t-13.5 -25.5q0 -18 16.5 -52t46.5 -77l158 -221q13 -19 33 -53q41 -70 71 -70q9 0 16.5 5t14.5 15l277 396q8 12 13 26.5t5 24.5q0 18 -10 27t-37 14q-15 2 -41 4q-47 3 -47 25
q0 15 8 22.5t25 7.5q3 0 15 -1q56 -7 108 -7h139q30 0 65 1t37 1q11 0 18.5 -4.5t8.5 -11.5q0 -28 -38 -34q-18 -3 -27 -5q-63 -15 -147 -117q-7 -9 -12 -15l-169 -206h323q15 0 24 -6t9 -17q0 -15 -6 -20.5t-23 -5.5h-366q-46 -57 -96.5 -112.5t-52.5 -59.5h511
q18 0 25.5 -5.5t7.5 -17.5q0 -14 -7 -21t-22 -7h-530q0 -11 -1 -30.5t-1 -29.5l2 -215q0 -114 5.5 -150t20.5 -44q30 -17 107.5 -19t77.5 -31q0 -12 -10 -20t-25 -8q-2 0 -35.5 4t-64.5 4q-91 0 -208.5 -4t-142.5 -4q-31 0 -40 4t-9 16t8 18.5t37 12.5q9 2 25 5q74 16 92 32
q17 13 24 47t7 102z" />
    <glyph glyph-name="brokenbar" unicode="&#xa6;" 
d="M427 371h160v-789h-160v789zM427 1578h160v-789h-160v789z" />
    <glyph glyph-name="section" unicode="&#xa7;" 
d="M545 321q56 16 97 53q73 65 73 166q0 5 -1 10h-2q-1 14 -4 27q-22 61 -113 127q-59 29 -126 29q-78 0 -125 -44.5t-47 -117.5q0 -123 248 -250zM466 -346q113 6 185 69q72 64 72 165q0 125 -316 276q-123 64 -175.5 137t-52.5 177q0 148 89 237q67 65 170 82l-40 19
q-123 64 -175.5 137t-52.5 177q0 148 89 237q82 79 216 86q8 1 17 1h3q66 0 163 -16.5t97 -41.5v-194h-51q-5 81 -80 132q-70 47 -149 51h-15q-78 0 -125 -44.5t-47 -117.5q0 -132 287 -269q149 -67 204.5 -143.5t55.5 -187.5q0 -171 -101 -282q-47 -39 -99 -64
q108 -56 154 -118q55 -77 55 -187q0 -171 -101 -283q-124 -102 -277 -105v1q-6 -1 -13 -1h-3q-66 0 -163 16.5t-97 41.5v194h51q5 -81 80 -132q68 -45 145 -50z" />
    <glyph glyph-name="dieresis" unicode="&#xa8;" horiz-adv-x="1024" 
d="M223 1289l71 72q13 12 25 12q11 0 27 -14l69 -73q10 -14 10 -25q0 -13 -12 -27l-69 -75q-17 -17 -25 -17q-14 0 -25 12l-76 86q-9 12 -9 23q0 13 14 26zM588 1289l71 72q13 12 25 12q11 0 27 -13l69 -74q10 -14 10 -25q0 -13 -12 -26l-69 -76q-17 -17 -25 -17
q-14 0 -25 12l-76 87q-9 11 -9 22q0 13 14 26z" />
    <glyph glyph-name="copyright" unicode="&#xa9;" horiz-adv-x="1674" 
d="M840 1456q145 0 280 -56.5t239 -160.5q102 -101 158.5 -238t56.5 -283q0 -147 -56.5 -282t-162.5 -240q-105 -105 -239 -159.5t-283 -54.5q-146 0 -278 55.5t-238 160.5q-106 104 -161.5 237.5t-55.5 282.5q0 148 55.5 283t159.5 238q102 104 238.5 160.5t286.5 56.5z
M357 1197q-95 -96 -146 -219.5t-51 -259.5q0 -137 51 -259t148 -219q98 -96 219 -147t256 -51q137 0 259.5 50.5t219.5 145.5q97 98 149 221.5t52 258.5q0 134 -52 259.5t-145 219.5q-96 96 -220 147.5t-258 51.5q-137 0 -262 -51.5t-220 -147.5zM865 223q-142 0 -264 68
t-186 185t-64 243t65.5 244t187.5 184.5t254 66.5q38 0 75 -6.5t76 -20.5q5 -1 9 -1q19 0 26 30h42l72 -198h-44q-52 94 -131 124q-72 26 -147 26h-15q-86 -8 -166.5 -71t-121.5 -177q-33 -90 -33 -184q0 -25 2 -50q11 -121 69.5 -224t149.5 -152q72 -40 166 -42
q124 0 194 56t70 126h53v-100q0 -46 -96.5 -86.5t-242.5 -40.5z" />
    <glyph glyph-name="ordfeminine" unicode="&#xaa;" horiz-adv-x="648" 
 />
    <glyph glyph-name="guillemotleft" unicode="&#xab;" horiz-adv-x="944" 
d="M174 479l342 303h14v-37l-205 -266l205 -266v-37h-14zM487 479l342 303h14v-37l-205 -266l205 -266v-37h-14z" />
    <glyph glyph-name="logicalnot" unicode="&#xac;" 
d="M87 767h840v-491l-1 -1h-98v392h-741v100z" />
    <glyph glyph-name="registered" unicode="&#xae;" horiz-adv-x="1674" 
d="M751 1099v-374l3 -8q23 -56 56 -81q29 -22 56 -22h6q31 4 61.5 38.5t46.5 97.5q13 50 13 103q0 13 -1 27q-4 67 -28 124.5t-56.5 76t-63.5 18.5h-93zM984 576l82 -116q100 -141 150 -141h34v-50h-346v50h45q30 0 30 22q0 29 -69 114l-75 102q-42 0 -84 42v-159
q0 -121 36 -121h53v-50h-316v50h43q37 0 37 121v538q0 121 -37 121h-43v70h356q64 -1 125 -42q60 -41 92.5 -114t32.5 -152q0 -78 -32 -150.5t-114 -134.5zM840 1456q145 0 280 -56.5t239 -160.5q102 -101 158.5 -238t56.5 -283q0 -147 -56.5 -282t-162.5 -240
q-105 -105 -239 -159.5t-283 -54.5q-146 0 -278 55.5t-238 160.5q-106 104 -161.5 237.5t-55.5 282.5q0 148 55.5 283t159.5 238q102 104 238.5 160.5t286.5 56.5zM357 1197q-95 -96 -146 -219.5t-51 -259.5q0 -137 51 -259t148 -219q98 -96 219 -147t256 -51
q137 0 259.5 50.5t219.5 145.5q97 98 149 221.5t52 258.5q0 134 -52 259.5t-145 219.5q-96 96 -220 147.5t-258 51.5q-137 0 -262 -51.5t-220 -147.5z" />
    <glyph glyph-name="macron" unicode="&#xaf;" horiz-adv-x="670" 
 />
    <glyph glyph-name="degree" unicode="&#xb0;" horiz-adv-x="674" 
d="M339 1372q-86 0 -147.5 -61t-61.5 -148t61 -147t148 -60t147 60t60 147t-60.5 148t-146.5 61zM339 1442q115 0 196 -81.5t81 -196.5q0 -114 -82 -196t-197 -82q-117 0 -197 81t-80 197t81.5 197t197.5 81z" />
    <glyph glyph-name="plusminus" unicode="&#xb1;" 
 />
    <glyph glyph-name="uni00B2" unicode="&#xb2;" 
 />
    <glyph glyph-name="uni00B3" unicode="&#xb3;" 
 />
    <glyph glyph-name="acute" unicode="&#xb4;" horiz-adv-x="1024" 
d="M607 1375q35 35 55.5 47t40.5 12q33 0 53.5 -20t20.5 -51q0 -22 -15.5 -42t-46.5 -40l-330 -203h-69z" />
    <glyph glyph-name="mu" unicode="&#xb5;" horiz-adv-x="1180" 
 />
    <glyph glyph-name="paragraph" unicode="&#xb6;" horiz-adv-x="1024" 
d="M929 1435v-70h-127v-1365h-82v1365h-166v-1365h-84v738q-174 8 -275.5 102.5t-101.5 245.5q0 157 107.5 253t285.5 96h443z" />
    <glyph glyph-name="periodcentered" unicode="&#xb7;" horiz-adv-x="508" 
d="M145 740l82 84q15 14 29 14q13 0 31 -16l80 -86q12 -16 12 -29q0 -15 -14 -31l-80 -88q-20 -20 -29 -20q-16 0 -29 14l-88 101q-10 13 -10 26q0 15 16 31z" />
    <glyph glyph-name="periodcentered" unicode="&#x2219;" horiz-adv-x="508" 
d="M145 740l82 84q15 14 29 14q13 0 31 -16l80 -86q12 -16 12 -29q0 -15 -14 -31l-80 -88q-20 -20 -29 -20q-16 0 -29 14l-88 101q-10 13 -10 26q0 15 16 31z" />
    <glyph glyph-name="cedilla" unicode="&#xb8;" horiz-adv-x="1024" 
d="M360 -290q85 -52 152 -52q66 0 94.5 21.5t28.5 66.5t-49 64q-40 16 -102 16q-16 0 -34 -2l48 176h63l-37 -104q32 4 62 5q86 0 134 -40.5t48 -113.5q0 -76 -58.5 -120.5t-160.5 -44.5q-109 0 -189 32v96z" />
    <glyph glyph-name="uni00B9" unicode="&#xb9;" 
 />
    <glyph glyph-name="ordmasculine" unicode="&#xba;" horiz-adv-x="718" 
 />
    <glyph glyph-name="guillemotright" unicode="&#xbb;" horiz-adv-x="944" 
d="M115 176h-14v37l205 266l-205 266v37h14l342 -303zM428 176h-14v37l205 266l-205 266v37h14l342 -303z" />
    <glyph glyph-name="onequarter" unicode="&#xbc;" horiz-adv-x="1708" 
 />
    <glyph glyph-name="onehalf" unicode="&#xbd;" horiz-adv-x="1964" 
 />
    <glyph glyph-name="threequarters" unicode="&#xbe;" horiz-adv-x="1708" 
 />
    <glyph glyph-name="questiondown" unicode="&#xbf;" horiz-adv-x="748" 
 />
    <glyph glyph-name="Agrave" unicode="&#xc0;" horiz-adv-x="1540" 
 />
    <glyph glyph-name="Aacute" unicode="&#xc1;" horiz-adv-x="1540" 
 />
    <glyph glyph-name="Acircumflex" unicode="&#xc2;" horiz-adv-x="1540" 
 />
    <glyph glyph-name="Atilde" unicode="&#xc3;" horiz-adv-x="1540" 
 />
    <glyph glyph-name="Adieresis" unicode="&#xc4;" horiz-adv-x="1540" 
 />
    <glyph glyph-name="Aring" unicode="&#xc5;" horiz-adv-x="1540" 
 />
    <glyph glyph-name="AE" unicode="&#xc6;" horiz-adv-x="2118" 
 />
    <glyph glyph-name="Ccedilla" unicode="&#xc7;" horiz-adv-x="1399" 
 />
    <glyph glyph-name="Egrave" unicode="&#xc8;" horiz-adv-x="1151" 
 />
    <glyph glyph-name="Eacute" unicode="&#xc9;" horiz-adv-x="1151" 
 />
    <glyph glyph-name="Ecircumflex" unicode="&#xca;" horiz-adv-x="1151" 
 />
    <glyph glyph-name="Edieresis" unicode="&#xcb;" horiz-adv-x="1151" 
 />
    <glyph glyph-name="Igrave" unicode="&#xcc;" horiz-adv-x="657" 
 />
    <glyph glyph-name="Iacute" unicode="&#xcd;" horiz-adv-x="657" 
 />
    <glyph glyph-name="Icircumflex" unicode="&#xce;" horiz-adv-x="657" 
 />
    <glyph glyph-name="Idieresis" unicode="&#xcf;" horiz-adv-x="657" 
 />
    <glyph glyph-name="Eth" unicode="&#xd0;" horiz-adv-x="1518" 
 />
    <glyph glyph-name="Ntilde" unicode="&#xd1;" horiz-adv-x="1554" 
 />
    <glyph glyph-name="Ograve" unicode="&#xd2;" horiz-adv-x="1614" 
 />
    <glyph glyph-name="Oacute" unicode="&#xd3;" horiz-adv-x="1614" 
 />
    <glyph glyph-name="Ocircumflex" unicode="&#xd4;" horiz-adv-x="1614" 
 />
    <glyph glyph-name="Otilde" unicode="&#xd5;" horiz-adv-x="1614" 
 />
    <glyph glyph-name="Odieresis" unicode="&#xd6;" horiz-adv-x="1614" 
 />
    <glyph glyph-name="multiply" unicode="&#xd7;" 
d="M507 618l-247 -247l-99 99l247 247l-247 248l99 98l247 -247l248 247l98 -99l-247 -247l247 -247l-99 -99z" />
    <glyph glyph-name="Oslash" unicode="&#xd8;" horiz-adv-x="1614" 
 />
    <glyph glyph-name="Ugrave" unicode="&#xd9;" horiz-adv-x="1501" 
 />
    <glyph glyph-name="Uacute" unicode="&#xda;" horiz-adv-x="1501" 
 />
    <glyph glyph-name="Ucircumflex" unicode="&#xdb;" horiz-adv-x="1501" 
 />
    <glyph glyph-name="Udieresis" unicode="&#xdc;" horiz-adv-x="1501" 
 />
    <glyph glyph-name="Yacute" unicode="&#xdd;" horiz-adv-x="1233" 
 />
    <glyph glyph-name="Thorn" unicode="&#xde;" horiz-adv-x="1120" 
 />
    <glyph glyph-name="germandbls" unicode="&#xdf;" horiz-adv-x="1251" 
 />
    <glyph glyph-name="agrave" unicode="&#xe0;" horiz-adv-x="922" 
 />
    <glyph glyph-name="aacute" unicode="&#xe1;" horiz-adv-x="922" 
 />
    <glyph glyph-name="acircumflex" unicode="&#xe2;" horiz-adv-x="922" 
 />
    <glyph glyph-name="atilde" unicode="&#xe3;" horiz-adv-x="922" 
 />
    <glyph glyph-name="adieresis" unicode="&#xe4;" horiz-adv-x="922" 
 />
    <glyph glyph-name="aring" unicode="&#xe5;" horiz-adv-x="922" 
 />
    <glyph glyph-name="ae" unicode="&#xe6;" horiz-adv-x="1454" 
 />
    <glyph glyph-name="ccedilla" unicode="&#xe7;" horiz-adv-x="905" 
 />
    <glyph glyph-name="egrave" unicode="&#xe8;" horiz-adv-x="909" 
 />
    <glyph glyph-name="eacute" unicode="&#xe9;" horiz-adv-x="909" 
 />
    <glyph glyph-name="ecircumflex" unicode="&#xea;" horiz-adv-x="909" 
 />
    <glyph glyph-name="edieresis" unicode="&#xeb;" horiz-adv-x="909" 
 />
    <glyph glyph-name="igrave" unicode="&#xec;" horiz-adv-x="514" 
 />
    <glyph glyph-name="iacute" unicode="&#xed;" horiz-adv-x="514" 
 />
    <glyph glyph-name="icircumflex" unicode="&#xee;" horiz-adv-x="514" 
 />
    <glyph glyph-name="idieresis" unicode="&#xef;" horiz-adv-x="514" 
 />
    <glyph glyph-name="eth" unicode="&#xf0;" horiz-adv-x="1139" 
 />
    <glyph glyph-name="ntilde" unicode="&#xf1;" horiz-adv-x="1108" 
 />
    <glyph glyph-name="ograve" unicode="&#xf2;" horiz-adv-x="1010" 
 />
    <glyph glyph-name="oacute" unicode="&#xf3;" horiz-adv-x="1010" 
 />
    <glyph glyph-name="ocircumflex" unicode="&#xf4;" horiz-adv-x="1010" 
 />
    <glyph glyph-name="otilde" unicode="&#xf5;" horiz-adv-x="1010" 
 />
    <glyph glyph-name="odieresis" unicode="&#xf6;" horiz-adv-x="1010" 
 />
    <glyph glyph-name="divide" unicode="&#xf7;" 
d="M87 647v140h839l1 -1v-139h-840zM398 408l82 84q15 14 29 14q13 0 31 -16l80 -86q12 -16 12 -29q0 -15 -14 -31l-80 -88q-20 -20 -29 -20q-16 0 -29 14l-88 101q-10 13 -10 26q0 15 16 31zM398 1101l82 84q15 14 29 14q13 0 31 -16l80 -86q12 -16 12 -29q0 -15 -14 -31
l-80 -88q-20 -20 -29 -20q-16 0 -29 14l-88 101q-10 13 -10 26q0 15 16 31z" />
    <glyph glyph-name="oslash" unicode="&#xf8;" horiz-adv-x="1010" 
 />
    <glyph glyph-name="ugrave" unicode="&#xf9;" horiz-adv-x="1059" 
 />
    <glyph glyph-name="uacute" unicode="&#xfa;" horiz-adv-x="1059" 
 />
    <glyph glyph-name="ucircumflex" unicode="&#xfb;" horiz-adv-x="1059" 
 />
    <glyph glyph-name="udieresis" unicode="&#xfc;" horiz-adv-x="1059" 
 />
    <glyph glyph-name="yacute" unicode="&#xfd;" horiz-adv-x="868" 
 />
    <glyph glyph-name="thorn" unicode="&#xfe;" horiz-adv-x="1010" 
 />
    <glyph glyph-name="ydieresis" unicode="&#xff;" horiz-adv-x="868" 
 />
    <glyph glyph-name="circumflex" unicode="&#x2c6;" horiz-adv-x="1024" 
d="M221 1079l232 355h118l232 -355h-58l-233 216l-233 -216h-58z" />
    <glyph glyph-name="tilde" unicode="&#x2dc;" horiz-adv-x="1024" 
d="M808 1382q-20 -103 -68.5 -154t-126.5 -51h-4q-50 0 -113 23q-66 24 -114 24q-39 0 -60.5 -20.5t-33.5 -71.5h-54q19 106 68 158.5t129 52.5q46 -1 113 -24q64 -23 112 -23h4q36 0 58 20t36 66h54z" />
    <glyph glyph-name="endash" unicode="&#x2013;" horiz-adv-x="1108" 
d="M56 419v120h996v-120h-996z" />
    <glyph glyph-name="emdash" unicode="&#x2014;" horiz-adv-x="2048" 
d="M0 419v120h2048v-120h-2048z" />
    <glyph glyph-name="quoteleft" unicode="&#x2018;" horiz-adv-x="557" 
d="M319 1016q-44 0 -88.5 65.5t-44.5 151.5q0 109 71 226.5t139 117.5v-43q-73 -43 -87 -190q0 -119 129 -161v-42z" />
    <glyph glyph-name="quoteright" unicode="&#x2019;" horiz-adv-x="557" 
d="M238 1577q44 0 88.5 -65.5t44.5 -151.5q0 -109 -71 -226.5t-139 -117.5v43q73 43 87 190q0 119 -129 161v42z" />
    <glyph glyph-name="quotesinglbase" unicode="&#x201a;" horiz-adv-x="557" 
d="M238 281q44 0 88.5 -65.5t44.5 -151.5q0 -109 -71 -226.5t-139 -117.5v43q73 43 87 190q0 119 -129 161v42z" />
    <glyph glyph-name="quotedblleft" unicode="&#x201c;" horiz-adv-x="910" 
d="M319 1016q-44 0 -88.5 65.5t-44.5 151.5q0 109 71 226.5t139 117.5v-43q-73 -43 -87 -190q0 -119 129 -161v-42zM672 1016q-44 0 -88.5 65.5t-44.5 151.5q0 109 71 226.5t139 117.5v-43q-73 -43 -87 -190q0 -119 129 -161v-42z" />
    <glyph glyph-name="quotedblright" unicode="&#x201d;" horiz-adv-x="910" 
d="M238 1577q44 0 88.5 -65.5t44.5 -151.5q0 -109 -71 -226.5t-139 -117.5v43q73 43 87 190q0 119 -129 161v42zM591 1577q44 0 88.5 -65.5t44.5 -151.5q0 -109 -71 -226.5t-139 -117.5v43q73 43 87 190q0 119 -129 161v42z" />
    <glyph glyph-name="quotedblbase" unicode="&#x201e;" horiz-adv-x="910" 
d="M238 281q44 0 88.5 -65.5t44.5 -151.5q0 -109 -71 -226.5t-139 -117.5v43q73 43 87 190q0 119 -129 161v42zM591 281q44 0 88.5 -65.5t44.5 -151.5q0 -109 -71 -226.5t-139 -117.5v43q73 43 87 190q0 119 -129 161v42z" />
    <glyph glyph-name="dagger" unicode="&#x2020;" 
d="M486 1022q-8 97 -54 178q-57 101 -57 129q0 49 36 78.5t96 29.5q57 0 94.5 -27.5t37.5 -71.5q0 -32 -55 -137q-46 -85 -55 -179q96 8 177 54q101 57 129 57q49 0 79 -36t30 -96q0 -57 -27.5 -94.5t-72.5 -37.5q-32 0 -136 55q-85 46 -179 57q8 -176 110 -277
q-106 -460 -112 -974h-38q-6 514 -114 974q102 101 111 277q-96 -10 -178 -55q-101 -57 -129 -57q-49 0 -78.5 36t-29.5 96q0 57 27.5 94.5t71.5 37.5q32 0 137 -56q85 -46 179 -55z" />
    <glyph glyph-name="daggerdbl" unicode="&#x2021;" 
d="M528 186q94 11 179 57q104 55 136 55q45 0 72.5 -37.5t27.5 -94.5q0 -60 -30 -96t-79 -36q-28 0 -129 57q-81 46 -177 54q9 -94 55 -179q55 -105 55 -137q0 -44 -37.5 -71.5t-94.5 -27.5q-60 0 -96 29.5t-36 78.5q0 28 57 129q46 81 54 178q-94 -9 -179 -55
q-105 -56 -137 -56q-44 0 -71.5 37.5t-27.5 94.5q0 60 29.5 96t78.5 36q28 0 129 -57q82 -45 178 -55q-9 226 -111 398q102 171 111 397q-96 -10 -178 -55q-101 -57 -129 -57q-49 0 -78.5 36t-29.5 96q0 57 27.5 94.5t71.5 37.5q32 0 137 -56q85 -46 179 -55q-8 97 -54 178
q-57 101 -57 129q0 49 36 78.5t96 29.5q57 0 94.5 -27.5t37.5 -71.5q0 -32 -55 -137q-46 -85 -55 -179q96 8 177 54q101 57 129 57q49 0 79 -36t30 -96q0 -57 -27.5 -94.5t-72.5 -37.5q-32 0 -136 55q-85 46 -179 57q8 -226 110 -397q-102 -172 -110 -398z" />
    <glyph glyph-name="bullet" unicode="&#x2022;" horiz-adv-x="1024" 
d="M216 718q0 123 87 209t210 86q122 0 208.5 -86.5t86.5 -208.5t-87.5 -209.5t-209.5 -87.5q-123 0 -209 87t-86 210z" />
    <glyph glyph-name="ellipsis" unicode="&#x2026;" horiz-adv-x="2048" 
d="M145 167l82 84q15 14 29 14q13 0 31 -16l80 -86q12 -16 12 -29q0 -15 -14 -31l-80 -88q-20 -20 -29 -20q-16 0 -29 14l-88 101q-10 13 -10 26q0 15 16 31zM828 167l82 84q15 14 29 14q13 0 31 -16l80 -86q12 -16 12 -29q0 -15 -14 -31l-80 -88q-20 -20 -29 -20
q-16 0 -29 14l-88 101q-10 13 -10 26q0 15 16 31zM1511 167l82 84q15 14 29 14q13 0 31 -16l80 -86q12 -16 12 -29q0 -15 -14 -31l-80 -88q-20 -20 -29 -20q-16 0 -29 14l-88 101q-10 13 -10 26q0 15 16 31z" />
    <glyph glyph-name="guilsinglleft" unicode="&#x2039;" horiz-adv-x="631" 
d="M174 479l342 303h14v-37l-205 -266l205 -266v-37h-14z" />
    <glyph glyph-name="guilsinglright" unicode="&#x203a;" horiz-adv-x="631" 
d="M115 176h-14v37l205 266l-205 266v37h14l342 -303z" />
    <glyph glyph-name="Euro" unicode="&#x20ac;" 
d="M140 372q-62 135 -76 281h-108l17 60h87v29q0 16 1 31h-71l17 60h58q14 145 76 281q81 178 226 274t298 96q43 0 87 -8q40 -10 82 -29q8 -6 16 -6q20 0 34 45h41l84 -281l-40 -1q-49 134 -138 178q-43 22 -81 32v3q-50 16 -101 16q-17 0 -34 -2q-120 -12 -226 -113.5
t-157 -273.5q-32 -104 -39 -211h706l-17 -60h-692q0 -30 2 -60h674l-17 -60h-652q17 -158 83 -298q74 -157 193 -236q102 -68 216 -69q186 3 256 91q74 91 74 185h48v-143q0 -70 -111 -127q-105 -54 -267 -56q-181 0 -325.5 98t-223.5 274z" />
    <glyph glyph-name="trademark" unicode="&#x2122;" horiz-adv-x="1497" 
 />
  </font>
</defs>
</svg>
