<?xml version="1.0" standalone="no"?>
<!DOCTYPE svg PUBLIC "-//W3C//DTD SVG 1.1//EN" "http://www.w3.org/Graphics/SVG/1.1/DTD/svg11.dtd" >
<svg>
<metadata>
Created by FontForge 20120731 at Wed Apr 23 12:07:37 2014
 By World Wide Web Server
Copyright 1991 as an unpublished work by Bitstream Inc.  All rights reserved.  Confidential.
</metadata>
<defs>
<font id="AppleGaramondLight" horiz-adv-x="500" >
  <font-face 
    font-family="Apple Garamond Light"
    font-weight="400"
    font-stretch="normal"
    units-per-em="1000"
    panose-1="2 0 4 6 8 0 0 2 0 4"
    ascent="800"
    descent="-200"
    x-height="440"
    cap-height="630"
    bbox="-167 -236 915 908"
    underline-thickness="46"
    underline-position="-87"
    unicode-range="U+0020-FB02"
  />
<missing-glyph horiz-adv-x="201" 
 />
    <glyph glyph-name=".notdef" horiz-adv-x="201" 
 />
    <glyph glyph-name=".null" horiz-adv-x="0" 
 />
    <glyph glyph-name="nonmarkingreturn" 
 />
    <glyph glyph-name="space" unicode=" " horiz-adv-x="201" 
 />
    <glyph glyph-name="space" unicode="&#xa0;" horiz-adv-x="201" 
 />
    <glyph glyph-name="Acircumflex" unicode="&#xc2;" horiz-adv-x="459" 
d="M252 591q-8 26 -11.5 41.5t-14.5 15.5q-8 0 -10 -6.5t-6 -17.5l-147 -491q-11 -36 -18.5 -58.5t-15.5 -32.5q-9 -10 -19 -12.5t-18.5 -4t-14 -3.5t-5.5 -11q0 -13 16 -13q13 0 29.5 3.5t36.5 3.5q27 0 46.5 -4t30.5 -4q18 0 18 12q0 11 -10.5 15t-32.5 7q-14 2 -21.5 7.5
t-7.5 20.5q0 16 7 41l32 120q2 7 6 10.5t9 3.5h151q10 0 13 -12l39 -125q5 -17 6.5 -29.5t1.5 -15.5q0 -16 -8.5 -18.5t-28.5 -4.5q-32 -2 -32 -17q0 -8 5 -10t16 -2q17 0 36 2.5t42 2.5q40 0 63 -3t31 -3q20 0 20 13q0 6 -4.5 8.5t-10.5 3.5t-13 2t-13 4q-14 8 -23.5 29
t-21.5 59zM209 489l67 -206q1 -2 1 -7q0 -10 -11 -10h-123q-9 0 -9 7q0 2 2 8l61 209q3 8 6 8t6 -9zM212 873l-87 -171h19l87 114l87 -114h19l-87 171h-38z" />
    <glyph glyph-name="Adieresis" unicode="&#xc4;" horiz-adv-x="459" 
d="M252 591q-8 26 -11.5 41.5t-14.5 15.5q-8 0 -10 -6.5t-6 -17.5l-147 -491q-11 -36 -18.5 -58.5t-15.5 -32.5q-9 -10 -19 -12.5t-18.5 -4t-14 -3.5t-5.5 -11q0 -13 16 -13q13 0 29.5 3.5t36.5 3.5q27 0 46.5 -4t30.5 -4q18 0 18 12q0 11 -10.5 15t-32.5 7q-14 2 -21.5 7.5
t-7.5 20.5q0 16 7 41l32 120q2 7 6 10.5t9 3.5h151q10 0 13 -12l39 -125q5 -17 6.5 -29.5t1.5 -15.5q0 -16 -8.5 -18.5t-28.5 -4.5q-32 -2 -32 -17q0 -8 5 -10t16 -2q17 0 36 2.5t42 2.5q40 0 63 -3t31 -3q20 0 20 13q0 6 -4.5 8.5t-10.5 3.5t-13 2t-13 4q-14 8 -23.5 29
t-21.5 59zM209 489l67 -206q1 -2 1 -7q0 -10 -11 -10h-123q-9 0 -9 7q0 2 2 8l61 209q3 8 6 8t6 -9zM93 778q0 -19 12.5 -31t30.5 -12t30.5 12t12.5 31q0 17 -13 30t-30 13t-30 -13t-13 -30zM283 778q0 -19 12.5 -31t30.5 -12t30.5 12t12.5 31q0 17 -13 30t-30 13t-30 -13
t-13 -30z" />
    <glyph glyph-name="Agrave" unicode="&#xc0;" horiz-adv-x="459" 
d="M252 591q-8 26 -11.5 41.5t-14.5 15.5q-8 0 -10 -6.5t-6 -17.5l-147 -491q-11 -36 -18.5 -58.5t-15.5 -32.5q-9 -10 -19 -12.5t-18.5 -4t-14 -3.5t-5.5 -11q0 -13 16 -13q13 0 29.5 3.5t36.5 3.5q27 0 46.5 -4t30.5 -4q18 0 18 12q0 11 -10.5 15t-32.5 7q-14 2 -21.5 7.5
t-7.5 20.5q0 16 7 41l32 120q2 7 6 10.5t9 3.5h151q10 0 13 -12l39 -125q5 -17 6.5 -29.5t1.5 -15.5q0 -16 -8.5 -18.5t-28.5 -4.5q-32 -2 -32 -17q0 -8 5 -10t16 -2q17 0 36 2.5t42 2.5q40 0 63 -3t31 -3q20 0 20 13q0 6 -4.5 8.5t-10.5 3.5t-13 2t-13 4q-14 8 -23.5 29
t-21.5 59zM209 489l67 -206q1 -2 1 -7q0 -10 -11 -10h-123q-9 0 -9 7q0 2 2 8l61 209q3 8 6 8t6 -9zM185 852q-8 12 -14 18.5t-14 6.5t-14.5 -7.5t-6.5 -18.5q0 -16 18 -34l106 -115h20z" />
    <glyph glyph-name="Aring" unicode="&#xc5;" horiz-adv-x="459" 
d="M222 908q-24 0 -44.5 -9t-35.5 -24t-24 -36t-9 -45t9 -44.5t24 -36t35.5 -24.5t44.5 -9t44.5 9t36 24.5t24.5 36t9 44.5t-9 44.5t-24.5 36t-36 24.5t-44.5 9zM223 868q31 0 52.5 -21.5t21.5 -52.5q0 -32 -21 -53t-53 -21t-53.5 21t-21.5 53q0 31 22 52.5t53 21.5z
M252 591q-8 26 -11.5 41.5t-14.5 15.5q-8 0 -10 -6.5t-6 -17.5l-147 -491q-11 -36 -18.5 -58.5t-15.5 -32.5q-9 -10 -19 -12.5t-18.5 -4t-14 -3.5t-5.5 -11q0 -13 16 -13q13 0 29.5 3.5t36.5 3.5q27 0 46.5 -4t30.5 -4q18 0 18 12q0 11 -10.5 15t-32.5 7q-14 2 -21.5 7.5
t-7.5 20.5q0 16 7 41l32 120q2 7 6 10.5t9 3.5h151q10 0 13 -12l39 -125q5 -17 6.5 -29.5t1.5 -15.5q0 -16 -8.5 -18.5t-28.5 -4.5q-32 -2 -32 -17q0 -8 5 -10t16 -2q17 0 36 2.5t42 2.5q40 0 63 -3t31 -3q20 0 20 13q0 6 -4.5 8.5t-10.5 3.5t-13 2t-13 4q-14 8 -23.5 29
t-21.5 59zM209 489l67 -206q1 -2 1 -7q0 -10 -11 -10h-123q-9 0 -9 7q0 2 2 8l61 209q3 8 6 8t6 -9z" />
    <glyph glyph-name="Atilde" unicode="&#xc3;" horiz-adv-x="459" 
d="M252 591q-8 26 -11.5 41.5t-14.5 15.5q-8 0 -10 -6.5t-6 -17.5l-147 -491q-11 -36 -18.5 -58.5t-15.5 -32.5q-9 -10 -19 -12.5t-18.5 -4t-14 -3.5t-5.5 -11q0 -13 16 -13q13 0 29.5 3.5t36.5 3.5q27 0 46.5 -4t30.5 -4q18 0 18 12q0 11 -10.5 15t-32.5 7q-14 2 -21.5 7.5
t-7.5 20.5q0 16 7 41l32 120q2 7 6 10.5t9 3.5h151q10 0 13 -12l39 -125q5 -17 6.5 -29.5t1.5 -15.5q0 -16 -8.5 -18.5t-28.5 -4.5q-32 -2 -32 -17q0 -8 5 -10t16 -2q17 0 36 2.5t42 2.5q40 0 63 -3t31 -3q20 0 20 13q0 6 -4.5 8.5t-10.5 3.5t-13 2t-13 4q-14 8 -23.5 29
t-21.5 59zM209 489l67 -206q1 -2 1 -7q0 -10 -11 -10h-123q-9 0 -9 7q0 2 2 8l61 209q3 8 6 8t6 -9zM325 833q-7 -43 -36 -43q-7 0 -22 5l-45 17q-22 8 -36 8q-24 0 -41.5 -22.5t-24.5 -67.5h16q5 24 13.5 34t25.5 10q2 0 8 -1t15 -5l46 -17q9 -3 16 -5t14 -2q53 0 68 89
h-17z" />
    <glyph glyph-name="B" unicode="B" horiz-adv-x="491" 
d="M161 379v177q0 28 11.5 39t53.5 11q67 0 102 -34.5t35 -97.5q0 -60 -41.5 -92t-122.5 -32q-23 0 -30.5 4.5t-7.5 24.5zM325 349q112 30 112 128q0 82 -58.5 118t-176.5 36q-183 0 -183 -31q0 -14 12 -14q8 0 15.5 2.5t17.5 2.5q15 0 22 -8.5t7 -30.5v-458q0 -8 -0.5 -13
t-0.5 -7q0 -20 -8 -31.5t-31 -11.5q-24 0 -24 -15q0 -16 19 -16q11 0 29 3t46 3q36 0 78.5 -7.5t93.5 -7.5q39 0 71.5 13.5t55 38t35 58t12.5 73.5q0 66 -37.5 112t-106.5 63zM175 326h70q74 0 111.5 -40.5t37.5 -112.5t-38.5 -112.5t-104.5 -40.5q-51 0 -70.5 18.5
t-19.5 59.5v211q0 10 2.5 13.5t11.5 3.5z" />
    <glyph glyph-name="C" unicode="C" horiz-adv-x="504" 
d="M31 315q0 -72 20 -133t56 -106t85 -70t106 -25q30 0 55 5.5t45 14t34 18.5t20 19t7.5 36.5t1.5 77.5q0 17 -10 17q-8 0 -10.5 -12.5t-10.5 -34.5q-20 -56 -50 -84t-78 -28q-40 0 -75 22.5t-61.5 63t-41.5 96.5t-15 123q0 72 15 129t41 96t60.5 60t74.5 21q77 0 117 -74
q13 -23 16 -39t13 -16q9 0 9 13q0 46 -3 73t-8 33q-5 5 -17.5 11.5t-31 12t-41 9.5t-47.5 4q-58 0 -108 -25t-87.5 -69.5t-59 -105.5t-21.5 -133z" />
    <glyph glyph-name="Ccedilla" unicode="&#xc7;" horiz-adv-x="504" 
d="M31 315q0 -72 20 -133t56 -106t85 -70t106 -25q30 0 55 5.5t45 14t34 18.5t20 19t7.5 36.5t1.5 77.5q0 17 -10 17q-8 0 -10.5 -12.5t-10.5 -34.5q-20 -56 -50 -84t-78 -28q-40 0 -75 22.5t-61.5 63t-41.5 96.5t-15 123q0 72 15 129t41 96t60.5 60t74.5 21q77 0 117 -74
q13 -23 16 -39t13 -16q9 0 9 13q0 46 -3 73t-8 33q-5 5 -17.5 11.5t-31 12t-41 9.5t-47.5 4q-58 0 -108 -25t-87.5 -69.5t-59 -105.5t-21.5 -133zM271 0v-92q13 3 24 3q21 0 33 -12.5t12 -32.5q0 -50 -50 -50q-10 0 -33 7.5t-53 26.5l-11 -32q33 -17 60.5 -25t47.5 -8
q37 0 59 22t22 57q0 36 -18 57.5t-47 21.5q-9 0 -25 -3v60h-21z" />
    <glyph glyph-name="D" unicode="D" horiz-adv-x="584" 
d="M157 118v436q0 15 2.5 25.5t11.5 18t26.5 11t46.5 3.5q53 0 96.5 -22t75 -61.5t49 -93.5t17.5 -118q0 -140 -62 -218t-173 -78q-27 0 -44.5 4.5t-27.5 15.5t-14 29.5t-4 47.5zM92 94v-7q0 -14 -0.5 -23t-3.5 -15t-9.5 -9.5t-17.5 -6.5q-7 -2 -14 -2t-12.5 -1t-9 -4
t-3.5 -10q0 -16 21 -16q20 0 40.5 3.5t43.5 3.5t54.5 -5t72.5 -5q70 0 125.5 21.5t94 61.5t58.5 96.5t20 126.5q0 73 -21.5 135t-61.5 107t-96 70.5t-126 25.5q-31 0 -75.5 -5t-98.5 -16q-26 -5 -38 -11t-12 -18q0 -15 11 -15q9 0 18 4.5t20 4.5q20 0 20 -33v-458z" />
    <glyph glyph-name="E" unicode="E" horiz-adv-x="448" 
d="M143 630h-101q-18 0 -18 -14q0 -8 4 -10.5t10.5 -3.5t14.5 -1q9 0 18 -3q16 -5 19 -14t3 -32v-458q0 -32 -4.5 -43.5t-27.5 -17.5q-7 -2 -14 -2t-12.5 -1t-9 -4t-3.5 -10q0 -16 21 -16q8 0 43.5 3t101.5 3q85 0 134 -5t63 -5q17 0 22 6t7 29l9 94q1 8 1.5 13l0.5 5
q0 2 -3.5 5t-6.5 3q-6 0 -9.5 -6t-6.5 -16t-8 -23t-15 -26q-22 -29 -51 -41.5t-76 -12.5q-49 0 -68.5 16t-19.5 52v215q0 10 2.5 14t11.5 4h55q57 0 76 -34q10 -17 13.5 -31.5t5 -25t3.5 -16.5t9 -6q10 0 10 18q0 4 -1 27t-1 68q0 37 2 59.5t2 30.5q0 18 -11 18
q-7 0 -9 -5.5t-3.5 -13.5t-5 -19t-13.5 -21q-18 -20 -76 -20h-50q-14 0 -17 2t-3 11v164q0 20 4 33t14 21t27.5 11t44.5 3q71 0 107 -48q9 -12 14 -24t8 -22t6.5 -16t9.5 -6q11 0 11 25v86q0 13 -1.5 20t-6 10t-12.5 3.5t-22 0.5h-222z" />
    <glyph glyph-name="Eacute" unicode="&#xc9;" horiz-adv-x="448" 
d="M143 630h-101q-18 0 -18 -14q0 -8 4 -10.5t10.5 -3.5t14.5 -1q9 0 18 -3q16 -5 19 -14t3 -32v-458q0 -32 -4.5 -43.5t-27.5 -17.5q-7 -2 -14 -2t-12.5 -1t-9 -4t-3.5 -10q0 -16 21 -16q8 0 43.5 3t101.5 3q85 0 134 -5t63 -5q17 0 22 6t7 29l9 94q1 8 1.5 13l0.5 5
q0 2 -3.5 5t-6.5 3q-6 0 -9.5 -6t-6.5 -16t-8 -23t-15 -26q-22 -29 -51 -41.5t-76 -12.5q-49 0 -68.5 16t-19.5 52v215q0 10 2.5 14t11.5 4h55q57 0 76 -34q10 -17 13.5 -31.5t5 -25t3.5 -16.5t9 -6q10 0 10 18q0 4 -1 27t-1 68q0 37 2 59.5t2 30.5q0 18 -11 18
q-7 0 -9 -5.5t-3.5 -13.5t-5 -19t-13.5 -21q-18 -20 -76 -20h-50q-14 0 -17 2t-3 11v164q0 20 4 33t14 21t27.5 11t44.5 3q71 0 107 -48q9 -12 14 -24t8 -22t6.5 -16t9.5 -6q11 0 11 25v86q0 13 -1.5 20t-6 10t-12.5 3.5t-22 0.5h-222zM302 817q18 18 18 34q0 11 -6.5 18.5
t-14.5 7.5t-14 -6.5t-14 -18.5l-95 -150h20z" />
    <glyph glyph-name="Ecircumflex" unicode="&#xca;" horiz-adv-x="448" 
d="M143 630h-101q-18 0 -18 -14q0 -8 4 -10.5t10.5 -3.5t14.5 -1q9 0 18 -3q16 -5 19 -14t3 -32v-458q0 -32 -4.5 -43.5t-27.5 -17.5q-7 -2 -14 -2t-12.5 -1t-9 -4t-3.5 -10q0 -16 21 -16q8 0 43.5 3t101.5 3q85 0 134 -5t63 -5q17 0 22 6t7 29l9 94q1 8 1.5 13l0.5 5
q0 2 -3.5 5t-6.5 3q-6 0 -9.5 -6t-6.5 -16t-8 -23t-15 -26q-22 -29 -51 -41.5t-76 -12.5q-49 0 -68.5 16t-19.5 52v215q0 10 2.5 14t11.5 4h55q57 0 76 -34q10 -17 13.5 -31.5t5 -25t3.5 -16.5t9 -6q10 0 10 18q0 4 -1 27t-1 68q0 37 2 59.5t2 30.5q0 18 -11 18
q-7 0 -9 -5.5t-3.5 -13.5t-5 -19t-13.5 -21q-18 -20 -76 -20h-50q-14 0 -17 2t-3 11v164q0 20 4 33t14 21t27.5 11t44.5 3q71 0 107 -48q9 -12 14 -24t8 -22t6.5 -16t9.5 -6q11 0 11 25v86q0 13 -1.5 20t-6 10t-12.5 3.5t-22 0.5h-222zM206 873l-87 -171h19l87 114l87 -114
h19l-87 171h-38z" />
    <glyph glyph-name="Edieresis" unicode="&#xcb;" horiz-adv-x="448" 
d="M143 630h-101q-18 0 -18 -14q0 -8 4 -10.5t10.5 -3.5t14.5 -1q9 0 18 -3q16 -5 19 -14t3 -32v-458q0 -32 -4.5 -43.5t-27.5 -17.5q-7 -2 -14 -2t-12.5 -1t-9 -4t-3.5 -10q0 -16 21 -16q8 0 43.5 3t101.5 3q85 0 134 -5t63 -5q17 0 22 6t7 29l9 94q1 8 1.5 13l0.5 5
q0 2 -3.5 5t-6.5 3q-6 0 -9.5 -6t-6.5 -16t-8 -23t-15 -26q-22 -29 -51 -41.5t-76 -12.5q-49 0 -68.5 16t-19.5 52v215q0 10 2.5 14t11.5 4h55q57 0 76 -34q10 -17 13.5 -31.5t5 -25t3.5 -16.5t9 -6q10 0 10 18q0 4 -1 27t-1 68q0 37 2 59.5t2 30.5q0 18 -11 18
q-7 0 -9 -5.5t-3.5 -13.5t-5 -19t-13.5 -21q-18 -20 -76 -20h-50q-14 0 -17 2t-3 11v164q0 20 4 33t14 21t27.5 11t44.5 3q71 0 107 -48q9 -12 14 -24t8 -22t6.5 -16t9.5 -6q11 0 11 25v86q0 13 -1.5 20t-6 10t-12.5 3.5t-22 0.5h-222zM87 778q0 -19 12.5 -31t30.5 -12
t30.5 12t12.5 31q0 17 -13 30t-30 13t-30 -13t-13 -30zM277 778q0 -19 12.5 -31t30.5 -12t30.5 12t12.5 31q0 17 -13 30t-30 13t-30 -13t-13 -30z" />
    <glyph glyph-name="Egrave" unicode="&#xc8;" horiz-adv-x="448" 
d="M143 630h-101q-18 0 -18 -14q0 -8 4 -10.5t10.5 -3.5t14.5 -1q9 0 18 -3q16 -5 19 -14t3 -32v-458q0 -32 -4.5 -43.5t-27.5 -17.5q-7 -2 -14 -2t-12.5 -1t-9 -4t-3.5 -10q0 -16 21 -16q8 0 43.5 3t101.5 3q85 0 134 -5t63 -5q17 0 22 6t7 29l9 94q1 8 1.5 13l0.5 5
q0 2 -3.5 5t-6.5 3q-6 0 -9.5 -6t-6.5 -16t-8 -23t-15 -26q-22 -29 -51 -41.5t-76 -12.5q-49 0 -68.5 16t-19.5 52v215q0 10 2.5 14t11.5 4h55q57 0 76 -34q10 -17 13.5 -31.5t5 -25t3.5 -16.5t9 -6q10 0 10 18q0 4 -1 27t-1 68q0 37 2 59.5t2 30.5q0 18 -11 18
q-7 0 -9 -5.5t-3.5 -13.5t-5 -19t-13.5 -21q-18 -20 -76 -20h-50q-14 0 -17 2t-3 11v164q0 20 4 33t14 21t27.5 11t44.5 3q71 0 107 -48q9 -12 14 -24t8 -22t6.5 -16t9.5 -6q11 0 11 25v86q0 13 -1.5 20t-6 10t-12.5 3.5t-22 0.5h-222zM179 852q-8 12 -14 18.5t-14 6.5
t-14.5 -7.5t-6.5 -18.5q0 -16 18 -34l106 -115h20z" />
    <glyph glyph-name="F" unicode="F" horiz-adv-x="424" 
d="M143 630h-101q-18 0 -18 -14q0 -8 4 -10.5t10.5 -3.5t14.5 -1q9 0 18 -3q16 -5 19 -14t3 -32v-458q0 -32 -4.5 -43.5t-27.5 -17.5q-7 -2 -14 -2t-12.5 -1t-9 -4t-3.5 -10q0 -16 21 -16q10 0 31 2.5t53 2.5t55.5 -2.5t38.5 -2.5q26 0 26 16q0 7 -4 10t-10.5 4t-15.5 1
q-8 0 -17 2q-14 3 -21.5 6.5t-11 9.5t-4.5 16t-1 26v218q0 10 2 14t11 4h55q57 0 76 -34q10 -17 13.5 -31.5t5 -25t3.5 -16.5t9 -6q10 0 10 18q0 4 -1 27.5t-1 68.5q0 38 2.5 59.5t2.5 29.5q0 18 -12 18q-7 0 -9 -5.5t-4 -13.5t-6 -19t-14 -21q-8 -8 -26.5 -14t-47.5 -6h-52
q-13 0 -15.5 4t-2.5 17v156q0 19 3.5 32t13 21t26.5 11.5t43 3.5q37 0 61 -11.5t44 -38.5q10 -13 15 -25t8.5 -21t6.5 -14.5t9 -5.5q11 0 11 21v90q0 12 -0.5 19t-4.5 10t-12.5 4t-24.5 1h-217z" />
    <glyph glyph-name="G" unicode="G" horiz-adv-x="579" 
d="M433 119q0 -24 -3 -44t-14 -34.5t-31.5 -22.5t-55.5 -8q-46 0 -86 21.5t-69.5 61.5t-46.5 96.5t-17 125.5q0 66 16.5 122.5t46 97t69 63.5t85.5 23q41 0 71 -20t46 -57q11 -24 14.5 -40.5t14.5 -16.5t11 14q0 48 -1.5 75t-7.5 35q-4 5 -16.5 11.5t-30.5 12t-41 9.5t-49 4
q-66 0 -122 -26t-97 -72t-64.5 -109.5t-23.5 -138.5q0 -70 21 -129t58.5 -101.5t89.5 -66.5t115 -24q36 0 69.5 8t59.5 20.5t42 29t16 34.5q0 3 -0.5 12.5t-0.5 24.5v120q0 23 3 32.5t20 14.5q8 2 15 2t12.5 1t8.5 4t3 10q0 13 -13 13q-9 0 -29 -3.5t-53 -3.5q-35 0 -57 3.5
t-32 3.5q-15 0 -15 -13q0 -8 4 -10.5t10.5 -3t15 -1t17.5 -3.5q15 -5 18.5 -14t3.5 -32v-111z" />
    <glyph glyph-name="H" unicode="H" horiz-adv-x="594" 
d="M161 552q0 24 3.5 33.5t22.5 13.5q9 2 17 2.5t14 1.5t9 3.5t3 9.5q0 14 -15 14q-10 0 -32 -4t-58 -4q-33 0 -54 4t-32 4q-15 0 -15 -14q0 -8 3.5 -10.5t10 -3.5t14.5 -1q9 0 19 -3q15 -5 18.5 -13.5t3.5 -32.5v-458q0 -16 -0.5 -26.5t-3.5 -17t-9.5 -10.5t-18.5 -7
q-7 -2 -14 -2t-12.5 -1t-9 -4t-3.5 -10q0 -16 21 -16q10 0 31 2.5t53 2.5t53 -2.5t31 -2.5q21 0 21 14q0 8 -4 11.5t-10 4.5t-14 1t-17 3q-10 3 -15 7t-7.5 10.5t-3 16.5t-0.5 26v217q0 10 2.5 13.5t11.5 3.5h245q9 0 11 -3.5t2 -13.5v-217q0 -16 -0.5 -26.5t-3.5 -17
t-9.5 -10.5t-18.5 -7q-7 -2 -14 -2t-12.5 -1t-9 -4t-3.5 -10q0 -16 22 -16q10 0 31 2.5t53 2.5t53 -2.5t31 -2.5q21 0 21 14q0 8 -4 11.5t-10 4.5t-14 1t-17 3q-10 3 -15 7t-7.5 10.5t-3 16.5t-0.5 26v458q0 24 3.5 33.5t22.5 13.5q9 2 17 2.5t13.5 1.5t8.5 3.5t3 9.5
q0 14 -14 14q-10 0 -32.5 -4t-58.5 -4q-33 0 -53.5 4t-31.5 4q-15 0 -15 -14q0 -8 3.5 -10.5t10 -3.5t14.5 -1q9 0 19 -3q15 -5 18 -13.5t3 -32.5v-176q0 -10 -2 -13.5t-11 -3.5h-245q-9 0 -11.5 3.5t-2.5 13.5v176z" />
    <glyph glyph-name="I" unicode="I" horiz-adv-x="254" 
d="M161 552q0 24 3.5 33.5t22.5 13.5q9 2 17 2.5t14 1.5t9 3.5t3 9.5q0 14 -15 14q-10 0 -32 -4t-58 -4q-33 0 -54 4t-32 4q-15 0 -15 -14q0 -8 3.5 -10.5t10 -3.5t14.5 -1q9 0 19 -3q15 -5 18.5 -13.5t3.5 -32.5v-458q0 -17 -0.5 -27t-4 -17t-10.5 -10.5t-19 -6.5
q-8 -2 -15 -2t-13 -1t-9.5 -4t-3.5 -10q0 -16 22 -16q11 0 33 2.5t54 2.5t53.5 -2.5t32.5 -2.5q22 0 22 14q0 8 -3.5 11t-9 4.5t-13.5 1.5q-7 0 -14 2q-13 3 -20 7t-10 10.5t-3.5 17t-0.5 26.5v458z" />
    <glyph glyph-name="Iacute" unicode="&#xcd;" horiz-adv-x="254" 
d="M161 552q0 24 3.5 33.5t22.5 13.5q9 2 17 2.5t14 1.5t9 3.5t3 9.5q0 14 -15 14q-10 0 -32 -4t-58 -4q-33 0 -54 4t-32 4q-15 0 -15 -14q0 -8 3.5 -10.5t10 -3.5t14.5 -1q9 0 19 -3q15 -5 18.5 -13.5t3.5 -32.5v-458q0 -17 -0.5 -27t-4 -17t-10.5 -10.5t-19 -6.5
q-8 -2 -15 -2t-13 -1t-9.5 -4t-3.5 -10q0 -16 22 -16q11 0 33 2.5t54 2.5t53.5 -2.5t32.5 -2.5q22 0 22 14q0 8 -3.5 11t-9 4.5t-13.5 1.5q-7 0 -14 2q-13 3 -20 7t-10 10.5t-3.5 17t-0.5 26.5v458zM205 817q18 18 18 34q0 11 -6.5 18.5t-14.5 7.5t-14 -6.5t-14 -18.5
l-95 -150h20z" />
    <glyph glyph-name="Icircumflex" unicode="&#xce;" horiz-adv-x="254" 
d="M161 552q0 24 3.5 33.5t22.5 13.5q9 2 17 2.5t14 1.5t9 3.5t3 9.5q0 14 -15 14q-10 0 -32 -4t-58 -4q-33 0 -54 4t-32 4q-15 0 -15 -14q0 -8 3.5 -10.5t10 -3.5t14.5 -1q9 0 19 -3q15 -5 18.5 -13.5t3.5 -32.5v-458q0 -17 -0.5 -27t-4 -17t-10.5 -10.5t-19 -6.5
q-8 -2 -15 -2t-13 -1t-9.5 -4t-3.5 -10q0 -16 22 -16q11 0 33 2.5t54 2.5t53.5 -2.5t32.5 -2.5q22 0 22 14q0 8 -3.5 11t-9 4.5t-13.5 1.5q-7 0 -14 2q-13 3 -20 7t-10 10.5t-3.5 17t-0.5 26.5v458zM109 873l-87 -171h19l87 114l87 -114h19l-87 171h-38z" />
    <glyph glyph-name="Idieresis" unicode="&#xcf;" horiz-adv-x="254" 
d="M161 552q0 24 3.5 33.5t22.5 13.5q9 2 17 2.5t14 1.5t9 3.5t3 9.5q0 14 -15 14q-10 0 -32 -4t-58 -4q-33 0 -54 4t-32 4q-15 0 -15 -14q0 -8 3.5 -10.5t10 -3.5t14.5 -1q9 0 19 -3q15 -5 18.5 -13.5t3.5 -32.5v-458q0 -17 -0.5 -27t-4 -17t-10.5 -10.5t-19 -6.5
q-8 -2 -15 -2t-13 -1t-9.5 -4t-3.5 -10q0 -16 22 -16q11 0 33 2.5t54 2.5t53.5 -2.5t32.5 -2.5q22 0 22 14q0 8 -3.5 11t-9 4.5t-13.5 1.5q-7 0 -14 2q-13 3 -20 7t-10 10.5t-3.5 17t-0.5 26.5v458zM-10 778q0 -19 12.5 -31t30.5 -12t30.5 12t12.5 31q0 17 -13 30t-30 13
t-30 -13t-13 -30zM180 778q0 -19 12.5 -31t30.5 -12t30.5 12t12.5 31q0 17 -13 30t-30 13t-30 -13t-13 -30z" />
    <glyph glyph-name="Igrave" unicode="&#xcc;" horiz-adv-x="254" 
d="M161 552q0 24 3.5 33.5t22.5 13.5q9 2 17 2.5t14 1.5t9 3.5t3 9.5q0 14 -15 14q-10 0 -32 -4t-58 -4q-33 0 -54 4t-32 4q-15 0 -15 -14q0 -8 3.5 -10.5t10 -3.5t14.5 -1q9 0 19 -3q15 -5 18.5 -13.5t3.5 -32.5v-458q0 -17 -0.5 -27t-4 -17t-10.5 -10.5t-19 -6.5
q-8 -2 -15 -2t-13 -1t-9.5 -4t-3.5 -10q0 -16 22 -16q11 0 33 2.5t54 2.5t53.5 -2.5t32.5 -2.5q22 0 22 14q0 8 -3.5 11t-9 4.5t-13.5 1.5q-7 0 -14 2q-13 3 -20 7t-10 10.5t-3.5 17t-0.5 26.5v458zM82 852q-8 12 -14 18.5t-14 6.5t-14.5 -7.5t-6.5 -18.5q0 -16 18 -34
l106 -115h20z" />
    <glyph glyph-name="J" unicode="J" horiz-adv-x="259" 
d="M166 552q0 25 3.5 33.5t22.5 13.5q18 4 30.5 3.5t12.5 13.5t-15 14q-10 0 -32.5 -4t-58.5 -4q-34 0 -57 4t-36 4q-17 0 -17 -14q0 -7 4 -9.5t11.5 -3.5t17 -1.5t21.5 -3.5q17 -5 20.5 -13t3.5 -33v-456q0 -55 -2 -96.5t-10 -70.5q-11 -35 -29 -53t-31 -18
q-11 0 -17.5 8.5t-12.5 18.5t-14 18.5t-22 8.5t-25 -11.5t-11 -31.5q0 -24 14 -39t39 -15q29 0 62.5 19.5t64.5 58.5q41 52 52.5 103t11.5 109q0 8 -0.5 38t-0.5 84v325z" />
    <glyph glyph-name="K" unicode="K" horiz-adv-x="497" 
d="M161 552q0 24 3.5 33.5t22.5 13.5q9 2 17 2.5t14 1.5t9 3.5t3 9.5q0 14 -15 14q-10 0 -32 -4t-58 -4q-33 0 -54 4t-32 4q-15 0 -15 -14q0 -8 3.5 -10.5t10 -3.5t14.5 -1q9 0 19 -3q15 -5 18.5 -13.5t3.5 -32.5v-458q0 -17 -0.5 -27t-4 -17t-10.5 -10.5t-19 -6.5
q-8 -2 -15 -2t-13 -1t-9.5 -4t-3.5 -10q0 -16 22 -16q11 0 33 2.5t54 2.5t53.5 -2.5t32.5 -2.5q22 0 22 14q0 8 -3.5 11t-9 4.5t-13.5 1.5q-7 0 -14 2q-13 3 -20 7t-10 10.5t-3.5 17t-0.5 26.5v167q0 8 1.5 13t6.5 11l27 34q3 5 7 5q2 0 7 -7l128 -204q16 -26 23.5 -44.5
t7.5 -26.5q0 -15 -30 -15q-23 0 -23 -13q0 -5 6 -9.5t17 -4.5q9 0 26.5 2.5t45.5 2.5q31 0 52.5 -2.5t33.5 -2.5q23 0 23 14q0 7 -3 9.5t-8 3t-11.5 1.5t-13.5 4q-14 6 -26.5 20t-26.5 37l-177 285q-2 4 -2 6q0 6 6 12l118 143q28 34 49.5 47.5t36.5 18t23 5.5t8 10
q0 14 -13 14q-10 0 -29.5 -4t-52.5 -4q-30 0 -49.5 4t-28.5 4q-14 0 -14 -14q0 -10 8 -12t18 -3.5t18 -5t8 -16.5q0 -12 -12 -28l-172 -218q-8 -11 -10 -11q-3 0 -3 10v220z" />
    <glyph glyph-name="L" unicode="L" horiz-adv-x="385" 
d="M161 552q0 24 3.5 33.5t22.5 13.5q9 2 17 2.5t14 1.5t9 3.5t3 9.5q0 14 -15 14q-10 0 -32 -4t-58 -4q-33 0 -54 4t-32 4q-15 0 -15 -14q0 -8 3.5 -10.5t10 -3.5t14.5 -1q9 0 19 -3q15 -5 18.5 -13.5t3.5 -32.5v-458q0 -32 -4.5 -43.5t-27.5 -17.5q-7 -2 -14 -2t-12.5 -1
t-9 -4t-3.5 -10q0 -16 21 -16q9 0 39 3.5t83 3.5q63 0 110.5 -4.5t77.5 -4.5q16 0 18.5 5.5t4.5 27.5l9 94q1 8 1 13v5q0 2 -2.5 5t-5.5 3q-5 0 -8 -5.5t-6 -15t-7 -21.5t-13 -25q-40 -58 -113 -58q-23 0 -36.5 4.5t-21 13t-10 21t-2.5 29.5v458z" />
    <glyph glyph-name="M" unicode="M" horiz-adv-x="639" 
d="M50 630q-15 0 -15 -14q0 -8 3.5 -10.5t9.5 -3t14.5 -1t17.5 -3.5q22 -7 22 -39v-11l-18 -358q-2 -45 -4.5 -75.5t-7 -49.5t-12 -27.5t-19.5 -8.5q-3 0 -5.5 0.5t-6.5 0.5q-17 0 -17 -14q0 -17 23 -17q12 0 26.5 2t32.5 2q14 0 28 -2t28 -2q24 0 24 15q0 16 -13 16
q-5 0 -9.5 -0.5t-9.5 -0.5q-25 0 -30.5 22.5t-5.5 69.5q0 17 0.5 34.5t1.5 34.5l15 324q0 14 3 14q5 0 7 -4l162 -496q3 -8 7 -8t7 8l163 493q2 7 6 7q2 0 2 -14l10 -397v-24q0 -26 -2.5 -37.5t-12.5 -16.5q-10 -6 -19.5 -7t-17 -2t-12.5 -3.5t-5 -10.5q0 -16 21 -16
q11 0 30 2.5t49 2.5q29 0 49 -2.5t31 -2.5q20 0 20 14q0 9 -4 12t-10.5 4t-15.5 1.5t-18 4.5q-8 4 -12 8t-5.5 10.5t-2 16t-0.5 23.5l-13 437v21q0 23 3 31.5t14 13.5q9 4 18 4.5t15.5 1t11 3t4.5 10.5q0 14 -15 14h-101q-8 0 -11 -5t-5 -13l-145 -447q-3 -9 -7 -9t-7 8
l-149 456q-2 8 -6.5 9t-11.5 1h-98z" />
    <glyph glyph-name="N" unicode="N" horiz-adv-x="546" 
d="M41 630q-13 0 -13 -14q0 -8 3.5 -10.5t9 -3t13.5 -1t17 -3.5q14 -5 17 -14t3 -32v-379q0 -39 -0.5 -66.5t-4.5 -45t-11.5 -25t-20.5 -7.5q-5 0 -9.5 0.5t-8.5 0.5q-14 0 -14 -14q0 -17 23 -17q11 0 26 2t34 2q15 0 28.5 -2t26.5 -2q24 0 24 15q0 16 -13 16q-7 0 -12 -0.5
t-7 -0.5q-14 0 -21 7.5t-11 25t-4.5 45t-0.5 66.5v355q0 17 4 17q5 0 10 -7l320 -539q5 -8 8 -8q5 0 5 7v471q0 36 1 61.5t5 41.5t12 23t22 7h11q10 0 14 2.5t4 10.5q0 15 -23 15q-10 0 -25 -1.5t-35 -1.5q-18 0 -31.5 1.5t-24.5 1.5q-23 0 -23 -15q0 -8 5.5 -10.5t13.5 -3
t17 -1t15 -6.5q13 -11 15 -48t2 -106v-265q0 -14 -5 -14q-3 0 -10 11l-266 445q-5 9 -10 11t-14 2h-91z" />
    <glyph glyph-name="Ntilde" unicode="&#xd1;" horiz-adv-x="546" 
d="M41 630q-13 0 -13 -14q0 -8 3.5 -10.5t9 -3t13.5 -1t17 -3.5q14 -5 17 -14t3 -32v-379q0 -39 -0.5 -66.5t-4.5 -45t-11.5 -25t-20.5 -7.5q-5 0 -9.5 0.5t-8.5 0.5q-14 0 -14 -14q0 -17 23 -17q11 0 26 2t34 2q15 0 28.5 -2t26.5 -2q24 0 24 15q0 16 -13 16q-7 0 -12 -0.5
t-7 -0.5q-14 0 -21 7.5t-11 25t-4.5 45t-0.5 66.5v355q0 17 4 17q5 0 10 -7l320 -539q5 -8 8 -8q5 0 5 7v471q0 36 1 61.5t5 41.5t12 23t22 7h11q10 0 14 2.5t4 10.5q0 15 -23 15q-10 0 -25 -1.5t-35 -1.5q-18 0 -31.5 1.5t-24.5 1.5q-23 0 -23 -15q0 -8 5.5 -10.5t13.5 -3
t17 -1t15 -6.5q13 -11 15 -48t2 -106v-265q0 -14 -5 -14q-3 0 -10 11l-266 445q-5 9 -10 11t-14 2h-91zM367 833q-7 -43 -36 -43q-7 0 -22 5l-45 17q-22 8 -36 8q-24 0 -41.5 -22.5t-24.5 -67.5h16q5 24 13.5 34t25.5 10q2 0 8 -1t15 -5l46 -17q9 -3 16 -5t14 -2q53 0 68 89
h-17z" />
    <glyph glyph-name="O" unicode="O" horiz-adv-x="602" 
d="M301 648q-54 0 -103 -25t-86 -69.5t-59 -105.5t-22 -133t22 -133t59 -106t86 -70t103 -25t103 25.5t86 70t58.5 105.5t21.5 133t-21.5 133t-58.5 105.5t-86 69.5t-103 25zM300 621q40 0 75.5 -20.5t61.5 -60t41 -96.5t15 -129t-15 -128.5t-41 -96t-60.5 -60t-74.5 -20.5
q-41 0 -76 20.5t-61 59.5t-41 96t-15 129t15 129t41 96.5t61 60t74 20.5z" />
    <glyph glyph-name="OE" unicode="&#x152;" horiz-adv-x="792" 
d="M750 596q0 13 -1 20t-5.5 10t-12.5 3.5t-22 0.5q-6 0 -45 -1.5t-114 -1.5q-98 0 -160 10.5t-88 10.5q-57 0 -106.5 -26t-86 -71t-58 -105.5t-21.5 -130.5q0 -69 20.5 -129.5t56.5 -106t85 -72t107 -26.5q12 0 32.5 4t50 8.5t68 8.5t87.5 4q81 0 129.5 -5t63.5 -5
q14 0 19 6t7 29l9 94q1 8 1 12v6q0 2 -3 5t-6 3q-6 0 -9 -6t-6 -16t-7.5 -23t-14.5 -26q-21 -29 -50 -41.5t-74 -12.5q-48 0 -66.5 16t-18.5 52v215q0 10 2 14t11 4h54q28 0 47 -9t27 -25q9 -18 12.5 -32.5t5 -25t3.5 -16t8 -5.5q10 0 10 18q0 4 -1 26.5t-1 66.5q0 35 2 58
t2 34q0 18 -10 18q-7 0 -9.5 -5.5t-4 -13.5t-5 -19t-12.5 -21q-18 -20 -74 -20h-48q-14 0 -16.5 2t-2.5 11v164q0 19 3.5 32.5t13.5 21t26.5 11t43.5 3.5q35 0 60 -11t44 -37q9 -12 13.5 -24.5t8 -22t6.5 -15.5t9 -6q11 0 11 25v86zM448 492v-346q0 -30 -3.5 -55t-17.5 -43
t-41 -28t-73 -10q-48 0 -86 21t-64.5 60.5t-41 96t-14.5 127.5t14 127.5t41 96.5t65.5 61t87.5 21q39 0 64.5 -8.5t40.5 -25t21.5 -40.5t6.5 -55z" />
    <glyph glyph-name="Oacute" unicode="&#xd3;" horiz-adv-x="602" 
d="M301 648q-54 0 -103 -25t-86 -69.5t-59 -105.5t-22 -133t22 -133t59 -106t86 -70t103 -25t103 25.5t86 70t58.5 105.5t21.5 133t-21.5 133t-58.5 105.5t-86 69.5t-103 25zM300 621q40 0 75.5 -20.5t61.5 -60t41 -96.5t15 -129t-15 -128.5t-41 -96t-60.5 -60t-74.5 -20.5
q-41 0 -76 20.5t-61 59.5t-41 96t-15 129t15 129t41 96.5t61 60t74 20.5zM378 817q18 18 18 34q0 11 -6.5 18.5t-14.5 7.5t-14 -6.5t-14 -18.5l-95 -150h20z" />
    <glyph glyph-name="Ocircumflex" unicode="&#xd4;" horiz-adv-x="602" 
d="M301 648q-54 0 -103 -25t-86 -69.5t-59 -105.5t-22 -133t22 -133t59 -106t86 -70t103 -25t103 25.5t86 70t58.5 105.5t21.5 133t-21.5 133t-58.5 105.5t-86 69.5t-103 25zM300 621q40 0 75.5 -20.5t61.5 -60t41 -96.5t15 -129t-15 -128.5t-41 -96t-60.5 -60t-74.5 -20.5
q-41 0 -76 20.5t-61 59.5t-41 96t-15 129t15 129t41 96.5t61 60t74 20.5zM282 873l-87 -171h19l87 114l87 -114h19l-87 171h-38z" />
    <glyph glyph-name="Odieresis" unicode="&#xd6;" horiz-adv-x="602" 
d="M301 648q-54 0 -103 -25t-86 -69.5t-59 -105.5t-22 -133t22 -133t59 -106t86 -70t103 -25t103 25.5t86 70t58.5 105.5t21.5 133t-21.5 133t-58.5 105.5t-86 69.5t-103 25zM300 621q40 0 75.5 -20.5t61.5 -60t41 -96.5t15 -129t-15 -128.5t-41 -96t-60.5 -60t-74.5 -20.5
q-41 0 -76 20.5t-61 59.5t-41 96t-15 129t15 129t41 96.5t61 60t74 20.5zM163 778q0 -19 12.5 -31t30.5 -12t30.5 12t12.5 31q0 17 -13 30t-30 13t-30 -13t-13 -30zM353 778q0 -19 12.5 -31t30.5 -12t30.5 12t12.5 31q0 17 -13 30t-30 13t-30 -13t-13 -30z" />
    <glyph glyph-name="Ograve" unicode="&#xd2;" horiz-adv-x="602" 
d="M301 648q-54 0 -103 -25t-86 -69.5t-59 -105.5t-22 -133t22 -133t59 -106t86 -70t103 -25t103 25.5t86 70t58.5 105.5t21.5 133t-21.5 133t-58.5 105.5t-86 69.5t-103 25zM300 621q40 0 75.5 -20.5t61.5 -60t41 -96.5t15 -129t-15 -128.5t-41 -96t-60.5 -60t-74.5 -20.5
q-41 0 -76 20.5t-61 59.5t-41 96t-15 129t15 129t41 96.5t61 60t74 20.5zM255 852q-8 12 -14 18.5t-14 6.5t-14.5 -7.5t-6.5 -18.5q0 -16 18 -34l106 -115h20z" />
    <glyph glyph-name="Oslash" unicode="&#xd8;" horiz-adv-x="602" 
d="M493 704l-54 -102q-35 23 -69 34.5t-72 11.5q-53 0 -101 -25t-85 -69t-59 -105.5t-22 -133.5q0 -81 29 -151t83 -120l-67 -127h33l57 108q30 -22 65 -33t70 -11q54 0 103 25t85.5 69.5t58.5 106t22 133.5q0 83 -28.5 152.5t-80.5 115.5l64 121h-32zM420 564l-254 -476
q-32 47 -44.5 99.5t-12.5 118.5q0 76 14.5 134.5t40.5 98.5t61 61t77 21q61 0 118 -57zM438 539q25 -35 40 -92.5t15 -131.5q0 -72 -15 -129t-41 -96.5t-61 -60t-75 -20.5q-30 0 -59.5 13.5t-55.5 40.5z" />
    <glyph glyph-name="Otilde" unicode="&#xd5;" horiz-adv-x="602" 
d="M301 648q-54 0 -103 -25t-86 -69.5t-59 -105.5t-22 -133t22 -133t59 -106t86 -70t103 -25t103 25.5t86 70t58.5 105.5t21.5 133t-21.5 133t-58.5 105.5t-86 69.5t-103 25zM300 621q40 0 75.5 -20.5t61.5 -60t41 -96.5t15 -129t-15 -128.5t-41 -96t-60.5 -60t-74.5 -20.5
q-41 0 -76 20.5t-61 59.5t-41 96t-15 129t15 129t41 96.5t61 60t74 20.5zM395 833q-7 -43 -36 -43q-7 0 -22 5l-45 17q-22 8 -36 8q-24 0 -41.5 -22.5t-24.5 -67.5h16q5 24 13.5 34t25.5 10q2 0 8 -1t15 -5l46 -17q9 -3 16 -5t14 -2q53 0 68 89h-17z" />
    <glyph glyph-name="P" unicode="P" horiz-adv-x="419" 
d="M161 376v177q0 26 9.5 38t48.5 12q23 0 43.5 -11t36 -31t24.5 -48t9 -61q0 -30 -8.5 -55.5t-23 -44t-34 -28.5t-41.5 -10q-24 0 -37 5.5t-19 14.5t-7 19.5t-1 20.5v2zM161 287q0 19 7 19q5 0 14 -4.5t21.5 -9.5t27.5 -9.5t32 -4.5q26 0 50.5 13t43.5 36t30.5 54.5
t11.5 68.5q0 85 -42.5 132.5t-121.5 47.5q-28 0 -60.5 -1.5t-70.5 -1.5h-14q-7 0 -16.5 1.5t-21.5 1.5q-18 0 -18 -14q0 -8 3.5 -10.5t9 -3.5t12.5 -1t15 -3q14 -5 16.5 -14t2.5 -32v-458q0 -16 -1 -28t-5.5 -20t-15 -12t-29.5 -4q-13 0 -13 -14q0 -16 19 -16q8 0 27.5 2.5
t51.5 2.5t51.5 -2.5t27.5 -2.5q20 0 20 14q0 8 -3.5 11t-9 4t-13 1.5t-15.5 3.5q-18 6 -21 18t-3 42v193z" />
    <glyph glyph-name="Q" unicode="Q" horiz-adv-x="602" 
d="M300 621q40 0 75.5 -20.5t61.5 -60t41 -96.5t15 -129t-15 -128.5t-41 -96t-60.5 -60t-74.5 -20.5q-41 0 -76 20.5t-61 59.5t-41 96t-15 129t15 129t41 96.5t61 60t74 20.5zM365 -8q44 12 81.5 41t65 71.5t43 96t15.5 114.5q0 72 -21.5 133t-58.5 105.5t-86 69.5t-103 25
t-103 -25t-86 -69.5t-59 -105.5t-22 -133q0 -58 14.5 -110t41 -94t63.5 -72.5t82 -45.5l17 -5q9 -3 9 -22v-24q0 -30 14 -57t41 -47.5t65 -32.5t86 -12q45 0 75.5 13.5t30.5 29.5q0 11 -12 11q-8 0 -27 -9t-48 -9q-25 0 -49 8t-43.5 22.5t-33 34.5t-18.5 43l-6 29
q0 2 -0.5 3t-0.5 2q0 12 12 15z" />
    <glyph glyph-name="R" unicode="R" horiz-adv-x="460" 
d="M195 336h-20q-9 0 -11.5 3.5t-2.5 13.5v200q0 15 2 24.5t9 15.5t21.5 8.5t40.5 2.5q50 0 80.5 -36.5t30.5 -101.5q0 -130 -150 -130zM276 323q65 11 99 50.5t34 103.5q0 81 -48 117t-144 36q-26 0 -46 -1t-37 -1q-31 0 -51.5 1t-30.5 1q-18 0 -18 -14q0 -8 3.5 -10.5
t9 -3.5t12.5 -1t15 -3q14 -5 16.5 -14t2.5 -32v-458q0 -8 -0.5 -13t-0.5 -7q0 -20 -8 -31.5t-31 -11.5q-24 0 -24 -15q0 -16 19 -16q8 0 27.5 2.5t51.5 2.5t51.5 -2.5t27.5 -2.5q20 0 20 14q0 9 -3.5 12t-10 3.5t-14.5 1.5t-17 5q-14 7 -17 17.5t-3 40.5v199q0 10 2.5 13.5
t11.5 3.5h12q19 0 30.5 -3.5t19.5 -12t14 -22.5l15 -35l87 -204q8 -18 14 -25.5t23 -7.5q9 0 21 1t28 1q8 0 14.5 -1t11.5 -1q11 0 11 10q0 11 -12.5 13.5t-29.5 9.5q-10 4 -20 26t-27 63l-44 105q-15 36 -28 60.5t-39 35.5z" />
    <glyph glyph-name="S" unicode="S" horiz-adv-x="402" 
d="M47 474q0 -33 8 -57t24.5 -43t40 -35t55.5 -33q33 -18 57.5 -34t41.5 -35t25.5 -42.5t8.5 -56.5q0 -29 -9 -52.5t-25 -40.5t-38 -26.5t-49 -9.5q-40 0 -69.5 20t-43.5 56q-7 18 -9 34t-3 28.5t-3 20t-8 7.5q-14 0 -14 -34q0 -11 -0.5 -27t-0.5 -39q0 -22 3 -34.5
t15 -23.5q14 -13 47 -24.5t72 -11.5q40 0 75.5 15t61.5 42t41 64t15 82q0 36 -9.5 63.5t-27.5 50t-44.5 41.5t-60.5 37q-32 17 -55.5 32t-39.5 31.5t-23.5 35t-7.5 42.5q0 49 28.5 77t79.5 28q35 0 58.5 -18.5t38.5 -56.5q10 -24 12 -37.5t12 -13.5q11 0 11 20q0 90 -8 100
q-8 9 -41.5 20.5t-74.5 11.5q-38 0 -68.5 -12.5t-52.5 -35.5t-34 -55t-12 -71z" />
    <glyph glyph-name="T" unicode="T" horiz-adv-x="465" 
d="M458 645v3q0 17 -11 17q-5 0 -7 -3t-3.5 -7.5t-4 -9.5t-6.5 -9q-7 -7 -65 -7q-23 0 -53 0.5t-68 0.5h-120q-30 0 -42 3t-12 15v10q0 11 -9 11q-7 0 -9 -5t-4 -13l-32 -128q-2 -6 -3 -11t-1 -10q0 -15 9 -15q10 0 16 17.5t23 43.5q18 27 44 42.5t50 15.5h37q9 0 11 -6
t2 -16v-490q0 -17 -0.5 -27t-3.5 -17t-10 -10.5t-19 -6.5q-8 -2 -15 -2t-13 -1t-9.5 -4t-3.5 -10q0 -16 22 -16q11 0 32.5 2.5t53.5 2.5t54 -2.5t33 -2.5q22 0 22 14q0 8 -3.5 11t-9.5 4.5t-14 1.5q-7 0 -14 2q-24 6 -28.5 16.5t-4.5 37.5v497q0 10 2 16t11 6h26q26 0 44 -3
t30 -9t20 -15.5t13 -23.5q6 -15 8 -27t3.5 -20t4.5 -12.5t9 -4.5t7.5 4t2.5 12z" />
    <glyph glyph-name="U" unicode="U" horiz-adv-x="546" 
d="M156 552q0 24 3 33.5t22 13.5q9 2 17 2.5t14 1.5t9 3.5t3 9.5q0 14 -15 14q-10 0 -32 -4t-58 -4q-33 0 -54 4t-32 4q-14 0 -14 -14q0 -8 3.5 -10.5t9.5 -3.5t14 -1q9 0 19 -3q15 -5 18.5 -13.5t3.5 -32.5v-354q0 -45 4 -80t22 -64q45 -73 173 -73q57 0 96.5 19.5
t59.5 55.5q19 33 22.5 73.5t3.5 92.5v234q0 40 0.5 67.5t4.5 45t12 25.5t22 8t20 2.5t6 11.5q0 14 -18 14q-4 0 -19 -1.5t-41 -1.5q-23 0 -38 1.5t-21 1.5q-15 0 -15 -14q0 -8 5.5 -11t13 -3.5t15.5 -1.5t13 -6q12 -13 14.5 -50.5t2.5 -103.5v-218q0 -54 -3.5 -92t-23.5 -66
q-19 -26 -50.5 -40.5t-74.5 -14.5q-42 0 -68.5 12t-42 36t-21 60t-5.5 83v352z" />
    <glyph glyph-name="Uacute" unicode="&#xda;" horiz-adv-x="546" 
d="M156 552q0 24 3 33.5t22 13.5q9 2 17 2.5t14 1.5t9 3.5t3 9.5q0 14 -15 14q-10 0 -32 -4t-58 -4q-33 0 -54 4t-32 4q-14 0 -14 -14q0 -8 3.5 -10.5t9.5 -3.5t14 -1q9 0 19 -3q15 -5 18.5 -13.5t3.5 -32.5v-354q0 -45 4 -80t22 -64q45 -73 173 -73q57 0 96.5 19.5
t59.5 55.5q19 33 22.5 73.5t3.5 92.5v234q0 40 0.5 67.5t4.5 45t12 25.5t22 8t20 2.5t6 11.5q0 14 -18 14q-4 0 -19 -1.5t-41 -1.5q-23 0 -38 1.5t-21 1.5q-15 0 -15 -14q0 -8 5.5 -11t13 -3.5t15.5 -1.5t13 -6q12 -13 14.5 -50.5t2.5 -103.5v-218q0 -54 -3.5 -92t-23.5 -66
q-19 -26 -50.5 -40.5t-74.5 -14.5q-42 0 -68.5 12t-42 36t-21 60t-5.5 83v352zM361 817q18 18 18 34q0 11 -6.5 18.5t-14.5 7.5t-14 -6.5t-14 -18.5l-95 -150h20z" />
    <glyph glyph-name="Ucircumflex" unicode="&#xdb;" horiz-adv-x="546" 
d="M156 552q0 24 3 33.5t22 13.5q9 2 17 2.5t14 1.5t9 3.5t3 9.5q0 14 -15 14q-10 0 -32 -4t-58 -4q-33 0 -54 4t-32 4q-14 0 -14 -14q0 -8 3.5 -10.5t9.5 -3.5t14 -1q9 0 19 -3q15 -5 18.5 -13.5t3.5 -32.5v-354q0 -45 4 -80t22 -64q45 -73 173 -73q57 0 96.5 19.5
t59.5 55.5q19 33 22.5 73.5t3.5 92.5v234q0 40 0.5 67.5t4.5 45t12 25.5t22 8t20 2.5t6 11.5q0 14 -18 14q-4 0 -19 -1.5t-41 -1.5q-23 0 -38 1.5t-21 1.5q-15 0 -15 -14q0 -8 5.5 -11t13 -3.5t15.5 -1.5t13 -6q12 -13 14.5 -50.5t2.5 -103.5v-218q0 -54 -3.5 -92t-23.5 -66
q-19 -26 -50.5 -40.5t-74.5 -14.5q-42 0 -68.5 12t-42 36t-21 60t-5.5 83v352zM265 873l-87 -171h19l87 114l87 -114h19l-87 171h-38z" />
    <glyph glyph-name="Udieresis" unicode="&#xdc;" horiz-adv-x="546" 
d="M156 552q0 24 3 33.5t22 13.5q9 2 17 2.5t14 1.5t9 3.5t3 9.5q0 14 -15 14q-10 0 -32 -4t-58 -4q-33 0 -54 4t-32 4q-14 0 -14 -14q0 -8 3.5 -10.5t9.5 -3.5t14 -1q9 0 19 -3q15 -5 18.5 -13.5t3.5 -32.5v-354q0 -45 4 -80t22 -64q45 -73 173 -73q57 0 96.5 19.5
t59.5 55.5q19 33 22.5 73.5t3.5 92.5v234q0 40 0.5 67.5t4.5 45t12 25.5t22 8t20 2.5t6 11.5q0 14 -18 14q-4 0 -19 -1.5t-41 -1.5q-23 0 -38 1.5t-21 1.5q-15 0 -15 -14q0 -8 5.5 -11t13 -3.5t15.5 -1.5t13 -6q12 -13 14.5 -50.5t2.5 -103.5v-218q0 -54 -3.5 -92t-23.5 -66
q-19 -26 -50.5 -40.5t-74.5 -14.5q-42 0 -68.5 12t-42 36t-21 60t-5.5 83v352zM146 778q0 -19 12.5 -31t30.5 -12t30.5 12t12.5 31q0 17 -13 30t-30 13t-30 -13t-13 -30zM336 778q0 -19 12.5 -31t30.5 -12t30.5 12t12.5 31q0 17 -13 30t-30 13t-30 -13t-13 -30z" />
    <glyph glyph-name="Ugrave" unicode="&#xd9;" horiz-adv-x="546" 
d="M156 552q0 24 3 33.5t22 13.5q9 2 17 2.5t14 1.5t9 3.5t3 9.5q0 14 -15 14q-10 0 -32 -4t-58 -4q-33 0 -54 4t-32 4q-14 0 -14 -14q0 -8 3.5 -10.5t9.5 -3.5t14 -1q9 0 19 -3q15 -5 18.5 -13.5t3.5 -32.5v-354q0 -45 4 -80t22 -64q45 -73 173 -73q57 0 96.5 19.5
t59.5 55.5q19 33 22.5 73.5t3.5 92.5v234q0 40 0.5 67.5t4.5 45t12 25.5t22 8t20 2.5t6 11.5q0 14 -18 14q-4 0 -19 -1.5t-41 -1.5q-23 0 -38 1.5t-21 1.5q-15 0 -15 -14q0 -8 5.5 -11t13 -3.5t15.5 -1.5t13 -6q12 -13 14.5 -50.5t2.5 -103.5v-218q0 -54 -3.5 -92t-23.5 -66
q-19 -26 -50.5 -40.5t-74.5 -14.5q-42 0 -68.5 12t-42 36t-21 60t-5.5 83v352zM238 852q-8 12 -14 18.5t-14 6.5t-14.5 -7.5t-6.5 -18.5q0 -16 18 -34l106 -115h20z" />
    <glyph glyph-name="V" unicode="V" horiz-adv-x="456" 
d="M395 492q11 37 19 60t16 33q7 10 16.5 13t17 4.5t13 3.5t5.5 11q0 13 -17 13q-6 0 -23 -3t-43 -3q-24 0 -38.5 3t-22.5 3q-17 0 -17 -13q0 -11 8.5 -13t19 -4t19.5 -8t9 -24q0 -8 -2.5 -25t-10.5 -41l-106 -350q-6 -18 -8 -18q-5 0 -11 17l-122 380q-4 12 -6.5 21
t-2.5 16q0 18 7 23.5t16 7t16 3.5t7 13q0 15 -12 15q-8 0 -22.5 -4t-35.5 -4q-29 0 -53 4t-42 4q-8 0 -12.5 -5t-4.5 -10q0 -7 5 -9.5t12.5 -3.5t16 -2.5t14.5 -7.5q13 -11 25.5 -43.5t29.5 -86.5l126 -391q14 -43 19.5 -66t10.5 -23q6 0 21 47z" />
    <glyph glyph-name="W" unicode="W" horiz-adv-x="678" 
d="M443 519q19 56 38 70q8 6 16.5 8.5t15 4.5t11 4.5t4.5 9.5q0 14 -15 14q-7 0 -20.5 -3t-33.5 -3q-21 0 -34.5 3t-19.5 3q-12 0 -12 -12q0 -10 6 -13.5t13.5 -6t13.5 -6.5t6 -16q0 -2 -3.5 -20t-14.5 -47l-31 -81q-6 -17 -11 -17q-6 0 -12 16l-38 110q-5 13 -6.5 23
t-1.5 16q0 12 6 16t13 6t13 4.5t6 12.5q0 14 -11 14q-5 0 -17.5 -2.5t-32.5 -2.5q-24 0 -44 3t-36 3q-18 0 -18 -14q0 -12 9.5 -13t18.5 -6q13 -8 20 -23.5t15 -39.5l76 -218q2 -5 2 -18q0 -7 -4 -16l-53 -149q-6 -16 -12 -16q-4 0 -10 17l-142 422q-2 5 -3 10t-1 10
q0 12 6 16t13.5 5.5t13.5 4.5t6 13q0 13 -11 13q-8 0 -20 -2t-30 -2q-23 0 -42.5 3t-36.5 3h-8q-22 0 -22 -13q0 -9 7.5 -11t18 -4.5t21.5 -11t19 -31.5l167 -488q15 -44 21.5 -66.5t11.5 -22.5q7 0 15 24l82 231q4 12 9 12t9 -13l56 -165q15 -45 21 -67t12 -22t14 24
l161 513q9 28 19.5 46t18.5 24q7 6 15.5 8.5t15.5 4.5t11.5 4.5t4.5 9.5q0 14 -16 14q-6 0 -20.5 -3t-37.5 -3q-18 0 -30 3t-19 3q-12 0 -12 -12q0 -10 6 -13.5t12.5 -5.5t12.5 -6t6 -14q0 -18 -16 -70l-116 -373q-5 -16 -10 -16q-6 0 -11 14l-69 206q-1 2 -1 6q0 11 2 18
l4 14z" />
    <glyph glyph-name="X" unicode="X" horiz-adv-x="496" 
d="M170 531q-17 30 -17 44q0 13 9.5 17t20.5 5.5t20.5 4t9.5 13.5q0 13 -16 13q-8 0 -24 -3.5t-42 -3.5q-35 0 -62.5 4.5t-47.5 4.5q-9 0 -15 -5t-6 -10q0 -6 4.5 -8t11 -3t14.5 -2t16 -6q12 -8 25.5 -29t32.5 -53l107 -186q4 -7 4 -14q0 -5 -0.5 -9t-2.5 -7l-112 -193
q-17 -29 -30.5 -46t-32.5 -24q-9 -3 -18.5 -4t-17 -2t-12 -4.5t-4.5 -11.5q0 -12 15 -12q9 0 29 2.5t52 2.5q27 0 47 -3.5t31 -3.5q20 0 20 13q0 10 -9 13t-19.5 4.5t-19 5.5t-8.5 17q0 7 4.5 23.5t15.5 36.5l85 154q4 7 9 7q6 0 10 -8l98 -167q7 -11 10.5 -23.5t3.5 -20.5
q0 -14 -9.5 -18t-21 -5.5t-21 -4t-9.5 -13.5q0 -12 16 -12h8q7 0 22 3.5t38 3.5q26 0 53 -4.5t55 -4.5q10 0 15.5 4.5t5.5 9.5q0 4 -4 6.5t-10 4t-14 4t-16 8.5q-17 12 -30.5 32t-28.5 47l-127 222q-2 3 -2 11q0 6 3 11l96 165q16 28 34.5 45.5t34.5 23.5q12 4 22.5 5.5
t19 3t13 4.5t4.5 11q0 12 -17 12q-11 0 -31 -2.5t-48 -2.5q-42 0 -62 3t-24 3q-16 0 -16 -12q0 -10 7.5 -12.5t16 -4t16 -5.5t7.5 -16q0 -8 -5 -26t-16 -39l-67 -121q-5 -8 -11 -8q-5 0 -9 9z" />
    <glyph glyph-name="Y" unicode="Y" horiz-adv-x="451" 
d="M133 531q-8 16 -12 29t-4 18q0 10 7 14t16 6t16 5t7 12q0 13 -12 13q-3 0 -16 -1.5t-37 -1.5q-48 0 -73.5 2.5t-32.5 2.5q-19 0 -19 -16q0 -5 3.5 -7t8 -3t10.5 -1q5 0 10 -2q20 -8 40 -47l149 -280v-180q0 -17 -1 -29t-6.5 -20t-17 -11.5t-32.5 -3.5q-13 0 -13 -14
q0 -16 21 -16q11 0 31.5 2.5t51.5 2.5t51.5 -2.5t31.5 -2.5q22 0 22 14q0 9 -4 12t-10 3.5t-14 1t-17 3.5q-10 3 -15 7t-7.5 10t-3 15t-0.5 22v196l147 269q8 15 16 26.5t25 16.5q14 4 24 5t10 15q0 13 -13 13q-5 0 -19.5 -2.5t-37.5 -2.5q-29 0 -46 3t-25 3q-16 0 -16 -12
q0 -11 8.5 -13.5t19 -4t19 -5.5t8.5 -17q0 -4 -6.5 -22.5t-21.5 -46.5l-98 -178q-4 -7 -7 -7q-5 0 -8 6z" />
    <glyph glyph-name="Ydieresis" unicode="&#x178;" horiz-adv-x="451" 
d="M133 531q-8 16 -12 29t-4 18q0 10 7 14t16 6t16 5t7 12q0 13 -12 13q-3 0 -16 -1.5t-37 -1.5q-48 0 -73.5 2.5t-32.5 2.5q-19 0 -19 -16q0 -5 3.5 -7t8 -3t10.5 -1q5 0 10 -2q20 -8 40 -47l149 -280v-180q0 -17 -1 -29t-6.5 -20t-17 -11.5t-32.5 -3.5q-13 0 -13 -14
q0 -16 21 -16q11 0 31.5 2.5t51.5 2.5t51.5 -2.5t31.5 -2.5q22 0 22 14q0 9 -4 12t-10 3.5t-14 1t-17 3.5q-10 3 -15 7t-7.5 10t-3 15t-0.5 22v196l147 269q8 15 16 26.5t25 16.5q14 4 24 5t10 15q0 13 -13 13q-5 0 -19.5 -2.5t-37.5 -2.5q-29 0 -46 3t-25 3q-16 0 -16 -12
q0 -11 8.5 -13.5t19 -4t19 -5.5t8.5 -17q0 -4 -6.5 -22.5t-21.5 -46.5l-98 -178q-4 -7 -7 -7q-5 0 -8 6zM89 778q0 -19 12.5 -31t30.5 -12t30.5 12t12.5 31q0 17 -13 30t-30 13t-30 -13t-13 -30zM279 778q0 -19 12.5 -31t30.5 -12t30.5 12t12.5 31q0 17 -13 30t-30 13
t-30 -13t-13 -30z" />
    <glyph glyph-name="Z" unicode="Z" horiz-adv-x="447" 
d="M417 613q2 4 2 7q0 10 -17 10q-8 0 -44 -3t-102 -3q-72 0 -111 2.5t-45 10.5q-4 5 -5 11.5t-1.5 12t-2.5 9.5t-9 4t-8 -5.5t-3 -13.5l-26 -121q-3 -14 -4 -21t-1 -9q0 -9 9 -9q6 0 10.5 8t10.5 20.5t15 27.5t25 30q17 17 46.5 20t74.5 3h31q65 0 65 -10q0 -2 -3 -8
l-316 -569q-3 -6 -3 -9q0 -10 18 -10q5 0 36 3.5t94 3.5q118 0 180.5 -3t73.5 -3q13 0 16 3t3 11v137q0 22 -9 22q-7 0 -8.5 -9.5t-3.5 -25t-7 -35t-19 -38.5q-11 -14 -24.5 -22t-31.5 -12t-41 -4.5t-53 -0.5h-44q-44 0 -65.5 2t-21.5 10q0 1 0.5 3.5t2.5 6.5z" />
    <glyph glyph-name="a" unicode="a" horiz-adv-x="363" 
d="M290 345q0 26 -2 47t-11 36t-27 23t-49 8q-39 0 -72 -15t-57 -37t-37 -46t-13 -42q0 -8 5 -12.5t12 -4.5q28 0 39 21.5t22 52.5q9 25 32 43t49 18q31 0 40.5 -20t9.5 -66v-88q-51 -29 -90 -54t-65.5 -48.5t-39.5 -48t-13 -52.5q0 -36 20 -57.5t56 -21.5q32 0 61.5 19
t67.5 51h4q9 -35 19.5 -50.5t30.5 -15.5q10 0 23.5 6.5t25.5 16.5t20.5 20.5t8.5 18.5q0 7 -7 7q-6 0 -15.5 -11t-20.5 -11q-27 0 -27 62v251zM232 223v-92q0 -25 -9 -44.5t-23.5 -33t-31 -20.5t-31.5 -7q-25 0 -39 16.5t-14 44.5q0 66 102 125l30 17q7 4 10 4q6 0 6 -10z
" />
    <glyph glyph-name="aacute" unicode="&#xe1;" horiz-adv-x="363" 
d="M290 345q0 26 -2 47t-11 36t-27 23t-49 8q-39 0 -72 -15t-57 -37t-37 -46t-13 -42q0 -8 5 -12.5t12 -4.5q28 0 39 21.5t22 52.5q9 25 32 43t49 18q31 0 40.5 -20t9.5 -66v-88q-51 -29 -90 -54t-65.5 -48.5t-39.5 -48t-13 -52.5q0 -36 20 -57.5t56 -21.5q32 0 61.5 19
t67.5 51h4q9 -35 19.5 -50.5t30.5 -15.5q10 0 23.5 6.5t25.5 16.5t20.5 20.5t8.5 18.5q0 7 -7 7q-6 0 -15.5 -11t-20.5 -11q-27 0 -27 62v251zM232 223v-92q0 -25 -9 -44.5t-23.5 -33t-31 -20.5t-31.5 -7q-25 0 -39 16.5t-14 44.5q0 66 102 125l30 17q7 4 10 4q6 0 6 -10z
M260 627q18 18 18 34q0 11 -6.5 18.5t-14.5 7.5t-14 -6.5t-14 -18.5l-95 -150h20z" />
    <glyph glyph-name="acircumflex" unicode="&#xe2;" horiz-adv-x="363" 
d="M290 345q0 26 -2 47t-11 36t-27 23t-49 8q-39 0 -72 -15t-57 -37t-37 -46t-13 -42q0 -8 5 -12.5t12 -4.5q28 0 39 21.5t22 52.5q9 25 32 43t49 18q31 0 40.5 -20t9.5 -66v-88q-51 -29 -90 -54t-65.5 -48.5t-39.5 -48t-13 -52.5q0 -36 20 -57.5t56 -21.5q32 0 61.5 19
t67.5 51h4q9 -35 19.5 -50.5t30.5 -15.5q10 0 23.5 6.5t25.5 16.5t20.5 20.5t8.5 18.5q0 7 -7 7q-6 0 -15.5 -11t-20.5 -11q-27 0 -27 62v251zM232 223v-92q0 -25 -9 -44.5t-23.5 -33t-31 -20.5t-31.5 -7q-25 0 -39 16.5t-14 44.5q0 66 102 125l30 17q7 4 10 4q6 0 6 -10z
M164 683l-87 -171h19l87 114l87 -114h19l-87 171h-38z" />
    <glyph glyph-name="acute" unicode="&#xb4;" 
d="M327 627q18 18 18 34q0 11 -6.5 18.5t-14.5 7.5t-14 -6.5t-14 -18.5l-95 -150h20z" />
    <glyph glyph-name="adieresis" unicode="&#xe4;" horiz-adv-x="363" 
d="M290 345q0 26 -2 47t-11 36t-27 23t-49 8q-39 0 -72 -15t-57 -37t-37 -46t-13 -42q0 -8 5 -12.5t12 -4.5q28 0 39 21.5t22 52.5q9 25 32 43t49 18q31 0 40.5 -20t9.5 -66v-88q-51 -29 -90 -54t-65.5 -48.5t-39.5 -48t-13 -52.5q0 -36 20 -57.5t56 -21.5q32 0 61.5 19
t67.5 51h4q9 -35 19.5 -50.5t30.5 -15.5q10 0 23.5 6.5t25.5 16.5t20.5 20.5t8.5 18.5q0 7 -7 7q-6 0 -15.5 -11t-20.5 -11q-27 0 -27 62v251zM232 223v-92q0 -25 -9 -44.5t-23.5 -33t-31 -20.5t-31.5 -7q-25 0 -39 16.5t-14 44.5q0 66 102 125l30 17q7 4 10 4q6 0 6 -10z
M45 588q0 -19 12.5 -31t30.5 -12t30.5 12t12.5 31q0 17 -13 30t-30 13t-30 -13t-13 -30zM235 588q0 -19 12.5 -31t30.5 -12t30.5 12t12.5 31q0 17 -13 30t-30 13t-30 -13t-13 -30z" />
    <glyph glyph-name="ae" unicode="&#xe6;" horiz-adv-x="562" 
d="M268 384q-11 36 -34.5 55t-55.5 19q-35 0 -65.5 -16t-53 -38t-35 -46t-12.5 -39q0 -8 5 -12.5t12 -4.5q24 0 35.5 16.5t20.5 42.5q26 74 82 74q35 0 47.5 -34.5t12.5 -103.5v-52q-105 -47 -156.5 -92.5t-51.5 -96.5q0 -35 21 -55t59 -20q45 0 83 19.5t73 57.5h9
q53 -77 137 -77q31 0 57 12t44.5 28.5t28.5 34t10 28.5q0 8 -7 8q-3 0 -9.5 -10t-19 -22t-32 -22t-48.5 -10q-57 0 -95.5 53.5t-38.5 153.5q0 29 4.5 39t18.5 10h203q17 0 22.5 5t5.5 19q0 32 -10 59.5t-28 47.5t-43.5 31.5t-56.5 11.5q-41 0 -74.5 -18t-64.5 -56zM379 304
h-67q-11 0 -11 11q0 25 7.5 47.5t21 39.5t32 27t40.5 10q32 0 56.5 -26t24.5 -68q0 -26 -24.5 -33.5t-79.5 -7.5zM227 202v-76q0 -55 -20.5 -82.5t-72.5 -27.5q-19 0 -36 17.5t-17 48.5q0 37 29.5 69t81.5 53l22 8q7 3 9 3q4 0 4 -13z" />
    <glyph glyph-name="agrave" unicode="&#xe0;" horiz-adv-x="363" 
d="M290 345q0 26 -2 47t-11 36t-27 23t-49 8q-39 0 -72 -15t-57 -37t-37 -46t-13 -42q0 -8 5 -12.5t12 -4.5q28 0 39 21.5t22 52.5q9 25 32 43t49 18q31 0 40.5 -20t9.5 -66v-88q-51 -29 -90 -54t-65.5 -48.5t-39.5 -48t-13 -52.5q0 -36 20 -57.5t56 -21.5q32 0 61.5 19
t67.5 51h4q9 -35 19.5 -50.5t30.5 -15.5q10 0 23.5 6.5t25.5 16.5t20.5 20.5t8.5 18.5q0 7 -7 7q-6 0 -15.5 -11t-20.5 -11q-27 0 -27 62v251zM232 223v-92q0 -25 -9 -44.5t-23.5 -33t-31 -20.5t-31.5 -7q-25 0 -39 16.5t-14 44.5q0 66 102 125l30 17q7 4 10 4q6 0 6 -10z
M137 662q-8 12 -14 18.5t-14 6.5t-14.5 -7.5t-6.5 -18.5q0 -16 18 -34l106 -115h20z" />
    <glyph glyph-name="ampersand" unicode="&#x26;" horiz-adv-x="581" 
d="M287 420l-25 -15q-7 -4 -13 -4q-7 0 -14 10l-26 36q-33 45 -33 95q0 41 21.5 64.5t56.5 23.5q39 0 65 -31t26 -79q0 -65 -58 -100zM305 403q23 14 40.5 26.5t29 26.5t17.5 30.5t6 37.5q0 26 -10 49t-28 39.5t-44 26t-57 9.5q-29 0 -53.5 -11t-43.5 -29.5t-29.5 -44
t-10.5 -54.5q0 -32 9.5 -58t29.5 -54l17 -24q3 -4 3 -10q0 -2 -1.5 -5t-5.5 -5l-38 -23q-53 -32 -80 -76t-27 -96q0 -39 10 -71t28.5 -55t44.5 -36t57 -13q78 0 144 72q23 25 33 41.5t17 16.5t10 -4l17 -25q8 -11 11 -21t3 -15q0 -12 -8 -16t-18 -5.5t-18 -3.5t-8 -9
q0 -14 21 -14q18 0 38.5 3.5t43.5 3.5t44 -3.5t38 -3.5q21 0 21 16q0 10 -8.5 11t-25.5 8q-23 10 -37 28t-30 40l-48 68q-6 7 -6 11t4 12l24 42q27 48 48.5 76.5t41.5 39.5q17 9 27.5 10.5t10.5 12.5t-11 11q-7 0 -19.5 -2t-30.5 -2q-32 0 -53 3t-30 3q-20 0 -20 -14
q0 -8 9 -10.5t19.5 -4t19.5 -6t9 -17.5q0 -10 -5.5 -26.5t-18.5 -39.5l-28 -48q-9 -15 -13 -15t-11 10l-107 148q-3 4 -3 9t11 12zM209 329l131 -180q4 -6 4 -12q0 -10 -12 -27t-31 -34t-43.5 -29.5t-49.5 -12.5t-46.5 11t-37.5 31.5t-25 48.5t-9 61q0 25 4.5 43t13.5 32.5
t22 26.5t30 24l27 19q5 4 12 4q5 0 10 -6z" />
    <glyph glyph-name="aring" unicode="&#xe5;" horiz-adv-x="363" 
d="M178 719q-24 0 -45 -9t-36 -24t-24 -36t-9 -45t9 -45t24.5 -36t36 -24t44.5 -9t45 9t36 24.5t24 36t9 44.5t-9 44.5t-24.5 36t-36 24.5t-44.5 9zM178 679q31 0 52.5 -21.5t21.5 -52.5q0 -32 -21 -53t-53 -21q-31 0 -52.5 21t-21.5 53q0 31 21.5 52.5t52.5 21.5zM290 345
q0 26 -2 47t-11 36t-27 23t-49 8q-39 0 -72 -15t-57 -37t-37 -46t-13 -42q0 -8 5 -12.5t12 -4.5q28 0 39 21.5t22 52.5q9 25 32 43t49 18q31 0 40.5 -20t9.5 -66v-88q-51 -29 -90 -54t-65.5 -48.5t-39.5 -48t-13 -52.5q0 -36 20 -57.5t56 -21.5q32 0 61.5 19t67.5 51h4
q9 -35 19.5 -50.5t30.5 -15.5q10 0 23.5 6.5t25.5 16.5t20.5 20.5t8.5 18.5q0 7 -7 7q-6 0 -15.5 -11t-20.5 -11q-27 0 -27 62v251zM232 223v-92q0 -25 -9 -44.5t-23.5 -33t-31 -20.5t-31.5 -7q-25 0 -39 16.5t-14 44.5q0 66 102 125l30 17q7 4 10 4q6 0 6 -10z" />
    <glyph glyph-name="asciicircum" unicode="^" horiz-adv-x="1000" 
d="M459 714l-258 -276h42l256 220l255 -220h43l-257 276h-81z" />
    <glyph glyph-name="asciitilde" unicode="~" horiz-adv-x="833" 
d="M747 366q-53 -38 -98.5 -58t-90.5 -20q-37 0 -71 11t-70 24q-33 12 -66.5 22.5t-74.5 10.5q-86 0 -189 -71v-55q54 38 99 58t90 20q38 0 72 -10.5t69 -23.5q32 -11 66 -22t75 -11q91 0 189 70v55z" />
    <glyph glyph-name="asterisk" unicode="*" horiz-adv-x="400" 
d="M203 466v4q0 25 4 45.5t9 37.5t9 31t4 26q0 38 -29 38t-29 -40q0 -12 4 -25.5t8.5 -29t8.5 -33.5t4 -40v-12q-24 15 -38 32.5t-24.5 33.5t-19.5 26.5t-23 10.5q-12 0 -20 -11.5t-8 -26.5q0 -14 11 -25.5t29 -16.5q7 -2 16.5 -3t21 -4t24.5 -9.5t27 -18.5
q-23 -17 -46 -23.5t-41.5 -11t-30 -12.5t-11.5 -28q0 -14 8 -25.5t20 -11.5q15 0 24.5 11t20 27.5t24.5 34.5t37 32q0 -27 -4 -49t-9 -39t-9 -31t-4 -25q0 -39 29 -39t29 44q0 11 -4 24t-9 28.5t-9 33.5t-4 39q0 4 0.5 7.5t0.5 7.5q24 -18 38.5 -36.5t25 -34t19 -25.5
t21.5 -10q12 0 20.5 10.5t8.5 26.5q0 14 -10.5 25.5t-29.5 16.5q-7 2 -16.5 3t-21 4t-24.5 9.5t-27 18.5q18 12 32 18.5t24.5 9.5t17.5 3.5t11 1.5q44 9 44 43q0 14 -8 25t-20 11q-15 0 -24.5 -11t-20 -27t-24.5 -34t-37 -32z" />
    <glyph glyph-name="at" unicode="@" horiz-adv-x="986" 
d="M534 473q36 0 61 -30t25 -78q0 -42 -15.5 -94.5t-45.5 -100.5q-56 -87 -121 -87q-35 0 -56 27t-21 75q0 44 20 104.5t58 118.5q22 32 44 48.5t51 16.5zM582 166q6 -105 100 -105q65 0 124 54q52 48 80.5 114.5t28.5 144.5q0 76 -26.5 137.5t-75 105t-117 67.5t-152.5 24
q-179 0 -308 -108q-81 -67 -122.5 -152.5t-41.5 -185.5q0 -96 38 -173.5t112 -134.5q118 -90 300 -90q174 0 319 107l-15 17q-67 -51 -143.5 -76.5t-157.5 -25.5q-172 0 -286 99q-61 52 -87.5 114.5t-26.5 147.5q0 101 33 183.5t99 144.5q58 55 132 83.5t161 28.5
q78 0 141.5 -22.5t108.5 -63t69.5 -97t24.5 -125.5q0 -72 -25.5 -136t-70.5 -107q-29 -27 -59 -40.5t-50 -13.5q-49 0 -49 54q0 13 2.5 25t6.5 26l83 296h-64l-27 -89q-22 97 -108 97q-35 0 -72.5 -17t-71.5 -50q-45 -44 -68 -96t-23 -103q0 -75 36.5 -119.5t95.5 -44.5
q93 0 152 105z" />
    <glyph glyph-name="atilde" unicode="&#xe3;" horiz-adv-x="363" 
d="M290 345q0 26 -2 47t-11 36t-27 23t-49 8q-39 0 -72 -15t-57 -37t-37 -46t-13 -42q0 -8 5 -12.5t12 -4.5q28 0 39 21.5t22 52.5q9 25 32 43t49 18q31 0 40.5 -20t9.5 -66v-88q-51 -29 -90 -54t-65.5 -48.5t-39.5 -48t-13 -52.5q0 -36 20 -57.5t56 -21.5q32 0 61.5 19
t67.5 51h4q9 -35 19.5 -50.5t30.5 -15.5q10 0 23.5 6.5t25.5 16.5t20.5 20.5t8.5 18.5q0 7 -7 7q-6 0 -15.5 -11t-20.5 -11q-27 0 -27 62v251zM232 223v-92q0 -25 -9 -44.5t-23.5 -33t-31 -20.5t-31.5 -7q-25 0 -39 16.5t-14 44.5q0 66 102 125l30 17q7 4 10 4q6 0 6 -10z
M277 643q-7 -43 -36 -43q-7 0 -22 5l-45 17q-22 8 -36 8q-24 0 -41.5 -22.5t-24.5 -67.5h16q5 24 13.5 34t25.5 10q2 0 8 -1t15 -5l46 -17q9 -3 16 -5t14 -2q53 0 68 89h-17z" />
    <glyph glyph-name="b" unicode="b" horiz-adv-x="433" 
d="M108 670q0 22 -6 22q-5 0 -19.5 -10t-39.5 -18q-17 -5 -28 -7t-11 -13q0 -9 7 -9q5 0 7.5 0.5t3.5 0.5q30 0 30 -45v-518q0 -35 -5.5 -57.5t-5.5 -27.5q0 -12 9 -12q6 0 10 6t8 13t8 13t9 6q4 0 14.5 -5t27.5 -11.5t40.5 -11.5t52.5 -5q39 0 73.5 16.5t59.5 48t39.5 77
t14.5 103.5q0 53 -12.5 96t-34.5 73.5t-52.5 47t-66.5 16.5q-28 0 -48 -8.5t-41 -26.5q-19 -17 -27.5 -30.5t-12.5 -13.5t-4 11v279zM108 85v223q0 25 9.5 46t25.5 36.5t36 24t40 8.5q55 0 90 -53.5t35 -154.5q0 -103 -37.5 -158.5t-97.5 -55.5q-21 0 -39 6.5t-32 17.5
t-22 26.5t-8 33.5z" />
    <glyph glyph-name="backslash" unicode="\" horiz-adv-x="278" 
d="M276 -93h33l-308 741h-33z" />
    <glyph glyph-name="bar" unicode="|" 
d="M224 764v-1000h53v1000h-53z" />
    <glyph glyph-name="braceleft" unicode="{" 
d="M413 740h-5q-54 0 -89 -8.5t-56 -28.5t-29.5 -52t-8.5 -80v-106q0 -38 -6 -63t-22 -41t-42.5 -24.5t-68.5 -12.5v-27q41 -3 68 -11.5t42.5 -25t22 -42t6.5 -62.5v-106q0 -48 8.5 -80t29.5 -52t56 -28.5t89 -8.5h5v24q-38 0 -62.5 6.5t-38 21.5t-18.5 39.5t-5 60.5v71
q0 48 -5 83t-20.5 59.5t-44 39.5t-75.5 24q47 9 75.5 24t44 39.5t20.5 59.5t5 83v71q0 36 5 60.5t18.5 39.5t38 22t62.5 7v24z" />
    <glyph glyph-name="braceright" unicode="}" 
d="M87 740v-24q38 0 62 -7t38 -22t19.5 -39.5t5.5 -60.5v-71q0 -48 5 -83t20 -59.5t43.5 -39.5t75.5 -24q-47 -9 -75.5 -24t-43.5 -39.5t-20 -59.5t-5 -83v-71q0 -36 -5 -60.5t-19 -39.5t-38.5 -21.5t-62.5 -6.5v-24h5q54 0 89.5 8.5t56.5 28.5t29.5 52t8.5 80v106
q0 37 6 62.5t21.5 42t42.5 25t68 11.5v27q-42 4 -68.5 12.5t-42 24.5t-21.5 41t-6 63v106q0 48 -8.5 80t-29.5 52t-56.5 28.5t-89.5 8.5h-5z" />
    <glyph glyph-name="bracketleft" unicode="[" horiz-adv-x="308" 
d="M166 648q-25 0 -30 -9.5t-5 -36.5v-785q0 -27 5 -36.5t30 -9.5h79q16 0 16 12q0 11 -16 11h-53q-14 0 -17.5 7t-3.5 21v775q0 14 3.5 21t17.5 7h53q16 0 16 12q0 11 -16 11h-79z" />
    <glyph glyph-name="bracketright" unicode="]" horiz-adv-x="308" 
d="M63 648q-16 0 -16 -11q0 -12 16 -12h53q14 0 17.5 -7t3.5 -21v-775q0 -14 -3.5 -21t-17.5 -7h-53q-16 0 -16 -11q0 -12 16 -12h79q24 0 29.5 9t5.5 37v785q0 28 -5.5 37t-29.5 9h-79z" />
    <glyph glyph-name="breve" unicode="&#x2d8;" 
d="M139 662q8 -63 36.5 -96t74.5 -33t74 32.5t36 96.5h-18q-5 -40 -27 -58t-65 -18q-42 0 -64 18t-29 58h-18z" />
    <glyph glyph-name="bullet" unicode="&#x2022;" horiz-adv-x="590" 
d="M150 372q0 -30 11 -56.5t30.5 -46t46 -31t56.5 -11.5t56.5 11.5t46 31.5t31 46t11.5 56t-11.5 56t-31 45.5t-45.5 31t-56 11.5t-56.5 -11.5t-46 -31t-31 -45.5t-11.5 -56z" />
    <glyph glyph-name="c" unicode="c" horiz-adv-x="362" 
d="M224 458q-38 0 -74 -17t-63.5 -48t-44 -75t-16.5 -98t14 -98t39 -75.5t58.5 -48.5t72.5 -17q30 0 54 9.5t41 22.5t26.5 26.5t9.5 20.5q0 6 -7 6q-3 0 -10 -8t-20 -17.5t-31.5 -17.5t-43.5 -8q-63 0 -102 54.5t-39 156.5q0 52 10 92t27 67t39.5 40.5t47.5 13.5
q26 0 43.5 -15t34.5 -45q11 -21 15 -32.5t14 -11.5q15 0 15 62q0 29 -29.5 45t-80.5 16z" />
    <glyph glyph-name="caron" unicode="&#x2c7;" 
d="M144 683l87 -171h38l87 171h-19l-87 -113l-87 113h-19z" />
    <glyph glyph-name="ccedilla" unicode="&#xe7;" horiz-adv-x="362" 
d="M224 458q-38 0 -74 -17t-63.5 -48t-44 -75t-16.5 -98t14 -98t39 -75.5t58.5 -48.5t72.5 -17q30 0 54 9.5t41 22.5t26.5 26.5t9.5 20.5q0 6 -7 6q-3 0 -10 -8t-20 -17.5t-31.5 -17.5t-43.5 -8q-63 0 -102 54.5t-39 156.5q0 52 10 92t27 67t39.5 40.5t47.5 13.5
q26 0 43.5 -15t34.5 -45q11 -21 15 -32.5t14 -11.5q15 0 15 62q0 29 -29.5 45t-80.5 16zM186 0v-92q13 3 24 3q21 0 33 -12.5t12 -32.5q0 -50 -50 -50q-10 0 -33 7.5t-53 26.5l-11 -32q33 -17 60.5 -25t47.5 -8q37 0 59 22t22 57q0 36 -18 57.5t-47 21.5q-9 0 -25 -3v60h-21
z" />
    <glyph glyph-name="cedilla" unicode="&#xb8;" horiz-adv-x="400" 
d="M189 0v-92q13 3 24 3q21 0 33 -12.5t12 -32.5q0 -50 -50 -50q-10 0 -33 7.5t-53 26.5l-11 -32q33 -17 60.5 -25t47.5 -8q37 0 59 22t22 57q0 36 -18 57.5t-47 21.5q-9 0 -25 -3v60h-21z" />
    <glyph glyph-name="cent" unicode="&#xa2;" horiz-adv-x="402" 
d="M197 630v-124q-62 -15 -97 -62.5t-35 -118.5q0 -74 36 -123.5t96 -57.5v-144h19v143q21 1 39 8t31 16.5t20.5 19.5t7.5 16q0 5 -5 5q-2 0 -7 -6.5t-14.5 -14.5t-24 -14.5t-36.5 -6.5q-3 0 -5.5 0.5t-5.5 0.5v327q21 -1 34 -13.5t21.5 -27.5t14 -27.5t12.5 -12.5
q11 0 11 48q0 23 -22 34t-71 13v122h-19zM197 492v-320q-38 12 -60 52t-22 106q0 134 82 162z" />
    <glyph glyph-name="circumflex" unicode="&#x2c6;" 
d="M231 683l-87 -171h19l87 114l87 -114h19l-87 171h-38z" />
    <glyph glyph-name="colon" unicode=":" horiz-adv-x="219" 
d="M110 374q-15 0 -25 -14t-10 -37q0 -25 10 -38t25 -13t25 13t10 38q0 23 -9.5 37t-25.5 14zM110 91q-15 0 -25 -14t-10 -37q0 -25 10 -38t25 -13t25 13t10 38q0 23 -9.5 37t-25.5 14z" />
    <glyph glyph-name="comma" unicode="," horiz-adv-x="201" 
d="M61 38q0 -32 23 -42q8 -4 14 -5.5t10.5 -3.5t6.5 -6.5t2 -14.5q0 -24 -9.5 -45.5t-20.5 -38.5t-20.5 -29t-9.5 -18q0 -11 8 -11q6 0 19.5 14t27.5 38t24.5 55t10.5 64q0 45 -13.5 68.5t-34.5 23.5q-15 0 -26.5 -13.5t-11.5 -35.5z" />
    <glyph glyph-name="copyright" unicode="&#xa9;" horiz-adv-x="822" 
d="M412 672q-69 0 -131.5 -26t-110.5 -74q-49 -49 -74 -111t-25 -130q0 -69 25.5 -130.5t74.5 -109.5q50 -49 110.5 -74.5t129.5 -25.5t130.5 26t109.5 74q49 50 74.5 111.5t25.5 128.5q0 68 -26 131.5t-74 110.5q-48 48 -110 73.5t-129 25.5zM412 635q59 0 114 -23t97 -65
t65.5 -98.5t23.5 -117.5q0 -60 -23 -114.5t-66 -99.5q-42 -44 -96.5 -66.5t-115.5 -22.5q-122 0 -211 89q-43 43 -66 97.5t-23 116.5q0 61 22.5 115t65.5 99q42 43 97.5 66.5t115.5 23.5zM547 534q-5 -30 -32 -30q-7 0 -16.5 5t-23 11.5t-31.5 11.5t-41 5q-40 0 -75.5 -16
t-61.5 -44.5t-41.5 -67.5t-15.5 -85q0 -42 15.5 -79.5t42 -65t61.5 -43.5t75 -16q111 0 167 101l-16 11q-54 -85 -139 -85q-133 0 -133 187q0 183 124 183q106 0 138 -134h18v151h-15z" />
    <glyph glyph-name="currency" unicode="&#xa4;" horiz-adv-x="606" 
d="M76 691l-32 -32l101 -100q-44 -58 -44 -127q0 -68 44 -126l-101 -101l32 -32l100 101q57 -44 127 -44q72 0 128 44l100 -101l32 32l-101 101q44 58 44 126q0 69 -44 127l101 100l-32 32l-100 -101q-56 45 -128 45q-70 0 -127 -45zM304 590q33 0 62 -12.5t50 -33.5
t33.5 -49.5t12.5 -61.5q0 -32 -12.5 -61t-33.5 -50.5t-50 -34t-62 -12.5t-61.5 12.5t-49.5 34t-33.5 50t-12.5 61.5q0 32 12.5 60.5t33.5 50t49.5 34t61.5 12.5z" />
    <glyph glyph-name="d" unicode="d" horiz-adv-x="450" 
d="M378 670q0 22 -7 22q-5 0 -19 -9.5t-40 -18.5q-15 -5 -27 -7.5t-12 -12.5q0 -4 3 -6.5t5 -2.5q5 0 7 0.5t3 0.5q31 0 31 -45v-152q0 -11 -8 -11q-3 0 -9.5 4.5t-18.5 10.5t-30 10.5t-43 4.5q-39 0 -73.5 -16.5t-59.5 -48t-39.5 -76.5t-14.5 -102q0 -54 12.5 -97.5t34 -74
t51 -46.5t62.5 -16q35 0 67.5 19.5t65.5 57.5h6l4 -46q3 -26 13 -26q6 0 22.5 10.5t48.5 24.5q13 5 17 9t4 15q0 14 -3 14q-4 0 -8.5 -3.5t-9 -8t-9.5 -8t-9 -3.5q-12 0 -14.5 14t-2.5 44v576zM322 355v-223q0 -25 -9.5 -46t-25 -36.5t-35 -24.5t-40.5 -9q-55 0 -90.5 54.5
t-35.5 154.5q0 103 38 158.5t98 55.5q21 0 39 -6.5t31.5 -17.5t21.5 -26.5t8 -33.5z" />
    <glyph glyph-name="dagger" unicode="&#x2020;" horiz-adv-x="400" 
d="M206 427q0 5 -0.5 11t-0.5 11q0 33 4.5 58t9.5 44t9.5 31.5t4.5 21.5q0 21 -9.5 32.5t-23.5 11.5q-16 0 -24.5 -12t-8.5 -32q0 -10 4 -23.5t9.5 -31.5t9.5 -42t4 -55v-12t-1 -12h-10q-20 0 -34.5 4.5t-26 10.5t-22 10.5t-20.5 4.5q-17 0 -27 -11.5t-10 -30.5
q0 -17 10.5 -27t28.5 -10q11 0 21.5 5t23 11.5t28.5 11.5t39 5v-19q0 -50 -7.5 -90t-24.5 -73q16 -84 24 -167t8 -171v-85h13v97q0 47 4 127.5t27 198.5q-18 31 -25 70.5t-7 91.5v19h9q21 0 35.5 -5t26.5 -11t22.5 -11t21.5 -5q16 0 26 10t10 29q0 18 -10 29t-26 11
q-8 0 -18.5 -5t-24 -10.5t-30.5 -10.5t-39 -5h-3z" />
    <glyph glyph-name="daggerdbl" unicode="&#x2021;" horiz-adv-x="400" 
d="M206 427q0 5 -0.5 11t-0.5 11q0 33 4.5 58t9.5 44t9.5 31.5t4.5 21.5q0 21 -9.5 32.5t-23.5 11.5q-16 0 -24.5 -12t-8.5 -32q0 -10 4 -23.5t9.5 -31.5t9.5 -42t4 -55v-12t-1 -12h-9q-19 0 -34 4.5t-27 10.5t-22.5 10.5t-20.5 4.5q-17 0 -27 -11.5t-10 -28.5
q0 -18 9.5 -28.5t23.5 -10.5q11 0 23 5t25.5 11.5t30.5 11.5t39 5v-19q0 -50 -7.5 -90t-24.5 -73q20 -35 26 -75t6 -91q0 -4 -0.5 -8t-0.5 -8h-9q-21 0 -35.5 5t-26.5 11.5t-22.5 11.5t-21.5 5q-16 0 -25.5 -10.5t-9.5 -29.5t10 -29.5t26 -10.5q8 0 18 5t23 10.5t30 10.5
t40 5h3q1 -6 1 -12v-12q0 -32 -4.5 -56.5t-9.5 -43.5t-9.5 -32.5t-4.5 -23.5q0 -19 9.5 -30t23.5 -11q15 0 24.5 12t9.5 32q0 10 -4.5 23.5t-9.5 31.5t-9.5 42t-4.5 55q0 6 0.5 12t0.5 12h9q19 0 34 -4.5t27 -10.5t22.5 -10.5t21.5 -4.5q17 0 26.5 11.5t9.5 28.5
q0 18 -9.5 28.5t-23.5 10.5q-11 0 -22.5 -5t-25.5 -11.5t-30.5 -11.5t-38.5 -5v19q0 103 32 164q-18 31 -25 70.5t-7 91.5v19h9q21 0 35.5 -5t26.5 -11t22.5 -11t21.5 -5q16 0 26 10t10 29q0 18 -10 29t-26 11q-8 0 -18.5 -5t-24 -10.5t-30.5 -10.5t-39 -5h-3z" />
    <glyph glyph-name="degree" unicode="&#xb0;" horiz-adv-x="329" 
d="M165 709q-28 0 -53 -10.5t-43.5 -29t-29 -43.5t-10.5 -53q0 -29 10.5 -53.5t28.5 -43t42.5 -29t53.5 -10.5q28 0 53 11t43.5 29.5t29 43t10.5 52.5t-10.5 53t-29 43.5t-43 29t-52.5 10.5zM165 675q21 0 39.5 -8t32 -22t21.5 -32.5t8 -39.5t-8 -39.5t-21.5 -32t-32 -21.5
t-39.5 -8t-39.5 8t-32.5 21.5t-22 32t-8 39.5t8 39.5t22 32.5t32.5 22t39.5 8z" />
    <glyph glyph-name="dieresis" unicode="&#xa8;" 
d="M112 588q0 -19 12.5 -31t30.5 -12t30.5 12t12.5 31q0 17 -13 30t-30 13t-30 -13t-13 -30zM302 588q0 -19 12.5 -31t30.5 -12t30.5 12t12.5 31q0 17 -13 30t-30 13t-30 -13t-13 -30z" />
    <glyph glyph-name="divide" unicode="&#xf7;" horiz-adv-x="833" 
d="M417 523q-21 0 -36.5 -15.5t-15.5 -37.5t14.5 -37t37.5 -15t37.5 15.5t14.5 36.5q0 22 -15 37.5t-37 15.5zM124 322v-48h585v48h-585zM417 178q-21 0 -36.5 -15t-15.5 -37t15 -37t37 -15q23 0 37.5 15.5t14.5 36.5q0 22 -15 37t-37 15z" />
    <glyph glyph-name="dollar" unicode="$" horiz-adv-x="402" 
d="M189 700l-9 -89q-52 -19 -82 -62.5t-30 -98.5q0 -45 20 -77.5t63 -58.5l-26 -271q-26 23 -36 48.5t-13 46.5t-4.5 35t-10.5 14q-6 0 -7.5 -12t-1.5 -35v-51q0 -11 1.5 -18.5t8.5 -15t21 -16.5t39 -22l-12 -119h23l12 111q8 -2 14 -3t12 -1h7q5 0 12 1l-11 -108h23l11 110
q28 7 52.5 24t42 41t27.5 53t10 61q0 48 -25.5 90t-73.5 71l23 232q20 -13 28.5 -31t12 -34t5.5 -27.5t10 -11.5q9 0 9 24q0 11 1 23.5t1 26.5q0 10 -3 17.5t-10.5 13.5t-20 12.5t-30.5 15.5l9 91h-23l-8 -84q-8 1 -14 1.5t-10 0.5q-5 0 -10 -0.5t-12 -1.5l8 84h-23z
M247 594l-22 -234l-44 22l21 214q6 1 11.5 1.5t10.5 0.5q7 0 23 -4zM178 588l-19 -194q-50 28 -50 89q0 38 20 68t49 37zM173 302l44 -22l-25 -253q-4 -1 -12 -1q-17 0 -33 6zM238 267q35 -23 49 -49.5t14 -61.5q0 -23 -7 -43.5t-18.5 -37t-27 -28t-33.5 -15.5z" />
    <glyph glyph-name="dotaccent" unicode="&#x2d9;" 
d="M205 588q0 -19 13 -32t32 -13q20 0 33 12.5t13 32.5q0 19 -13.5 32.5t-32.5 13.5q-18 0 -31.5 -14t-13.5 -32z" />
    <glyph glyph-name="dotlessi" unicode="&#x131;" horiz-adv-x="202" 
d="M132 434q0 11 -1 15.5t-6 4.5q-6 0 -20 -13t-42 -29q-13 -11 -24.5 -15t-11.5 -14q0 -7 5 -8.5t13 -1.5q17 0 22 -9.5t5 -27.5v-275q0 -20 -9 -28t-19.5 -10.5t-19 -4t-8.5 -9.5q0 -7 4.5 -8.5t12.5 -1.5q11 0 28.5 2t40.5 2q29 0 46.5 -2t23.5 -2q8 0 11.5 1t3.5 9
t-8.5 9.5t-19 4t-19 10t-8.5 28.5v373z" />
    <glyph glyph-name="e" unicode="e" horiz-adv-x="401" 
d="M190 305h-82q-5 0 -8 3t-3 6q0 21 10 43t26.5 40t38.5 30t46 12q19 0 36 -8t29.5 -21t19.5 -29t7 -32q0 -29 -29 -36.5t-91 -7.5zM345 281q17 0 23.5 5t6.5 16q0 30 -10.5 58.5t-30 50t-47.5 34.5t-63 13q-40 0 -76 -16.5t-63 -47.5t-43 -75.5t-16 -99.5q0 -54 13.5 -98
t38.5 -75t59.5 -48t75.5 -17q36 0 65.5 12t50 28.5t31.5 34t11 28.5q0 8 -7 8q-3 0 -11 -10t-22 -22t-35.5 -22t-52.5 -10q-34 0 -62.5 14.5t-49 41.5t-32 66t-11.5 89q0 25 3 33.5t16 8.5h238z" />
    <glyph glyph-name="eacute" unicode="&#xe9;" horiz-adv-x="401" 
d="M190 305h-82q-5 0 -8 3t-3 6q0 21 10 43t26.5 40t38.5 30t46 12q19 0 36 -8t29.5 -21t19.5 -29t7 -32q0 -29 -29 -36.5t-91 -7.5zM345 281q17 0 23.5 5t6.5 16q0 30 -10.5 58.5t-30 50t-47.5 34.5t-63 13q-40 0 -76 -16.5t-63 -47.5t-43 -75.5t-16 -99.5q0 -54 13.5 -98
t38.5 -75t59.5 -48t75.5 -17q36 0 65.5 12t50 28.5t31.5 34t11 28.5q0 8 -7 8q-3 0 -11 -10t-22 -22t-35.5 -22t-52.5 -10q-34 0 -62.5 14.5t-49 41.5t-32 66t-11.5 89q0 25 3 33.5t16 8.5h238zM279 627q18 18 18 34q0 11 -6.5 18.5t-14.5 7.5t-14 -6.5t-14 -18.5l-95 -150
h20z" />
    <glyph glyph-name="ecircumflex" unicode="&#xea;" horiz-adv-x="401" 
d="M190 305h-82q-5 0 -8 3t-3 6q0 21 10 43t26.5 40t38.5 30t46 12q19 0 36 -8t29.5 -21t19.5 -29t7 -32q0 -29 -29 -36.5t-91 -7.5zM345 281q17 0 23.5 5t6.5 16q0 30 -10.5 58.5t-30 50t-47.5 34.5t-63 13q-40 0 -76 -16.5t-63 -47.5t-43 -75.5t-16 -99.5q0 -54 13.5 -98
t38.5 -75t59.5 -48t75.5 -17q36 0 65.5 12t50 28.5t31.5 34t11 28.5q0 8 -7 8q-3 0 -11 -10t-22 -22t-35.5 -22t-52.5 -10q-34 0 -62.5 14.5t-49 41.5t-32 66t-11.5 89q0 25 3 33.5t16 8.5h238zM183 683l-87 -171h19l87 114l87 -114h19l-87 171h-38z" />
    <glyph glyph-name="edieresis" unicode="&#xeb;" horiz-adv-x="401" 
d="M190 305h-82q-5 0 -8 3t-3 6q0 21 10 43t26.5 40t38.5 30t46 12q19 0 36 -8t29.5 -21t19.5 -29t7 -32q0 -29 -29 -36.5t-91 -7.5zM345 281q17 0 23.5 5t6.5 16q0 30 -10.5 58.5t-30 50t-47.5 34.5t-63 13q-40 0 -76 -16.5t-63 -47.5t-43 -75.5t-16 -99.5q0 -54 13.5 -98
t38.5 -75t59.5 -48t75.5 -17q36 0 65.5 12t50 28.5t31.5 34t11 28.5q0 8 -7 8q-3 0 -11 -10t-22 -22t-35.5 -22t-52.5 -10q-34 0 -62.5 14.5t-49 41.5t-32 66t-11.5 89q0 25 3 33.5t16 8.5h238zM64 588q0 -19 12.5 -31t30.5 -12t30.5 12t12.5 31q0 17 -13 30t-30 13t-30 -13
t-13 -30zM254 588q0 -19 12.5 -31t30.5 -12t30.5 12t12.5 31q0 17 -13 30t-30 13t-30 -13t-13 -30z" />
    <glyph glyph-name="egrave" unicode="&#xe8;" horiz-adv-x="401" 
d="M190 305h-82q-5 0 -8 3t-3 6q0 21 10 43t26.5 40t38.5 30t46 12q19 0 36 -8t29.5 -21t19.5 -29t7 -32q0 -29 -29 -36.5t-91 -7.5zM345 281q17 0 23.5 5t6.5 16q0 30 -10.5 58.5t-30 50t-47.5 34.5t-63 13q-40 0 -76 -16.5t-63 -47.5t-43 -75.5t-16 -99.5q0 -54 13.5 -98
t38.5 -75t59.5 -48t75.5 -17q36 0 65.5 12t50 28.5t31.5 34t11 28.5q0 8 -7 8q-3 0 -11 -10t-22 -22t-35.5 -22t-52.5 -10q-34 0 -62.5 14.5t-49 41.5t-32 66t-11.5 89q0 25 3 33.5t16 8.5h238zM156 662q-8 12 -14 18.5t-14 6.5t-14.5 -7.5t-6.5 -18.5q0 -16 18 -34
l106 -115h20z" />
    <glyph glyph-name="eight" unicode="8" horiz-adv-x="402" 
d="M310 492q0 -31 -10.5 -54.5t-26 -40t-32 -25t-28.5 -8.5q-6 0 -17 3.5t-24 10.5t-25.5 15.5t-22.5 19.5q-33 36 -33 88q0 27 8 49.5t22 39t33 26t41 9.5q24 0 45 -10t36.5 -27.5t24.5 -42t9 -53.5zM286 378q36 25 54 51.5t18 66.5q0 32 -11.5 59t-31.5 47t-47 31.5
t-59 11.5q-36 0 -66.5 -13.5t-52.5 -37.5t-34.5 -56t-12.5 -69q0 -47 19 -81.5t52 -51.5l21 -11q5 -3 5 -9q0 -3 -14 -11l-19 -11q-82 -48 -82 -142q0 -35 12.5 -66t35 -54t53.5 -37t67 -14q37 0 70 15.5t57.5 42.5t38.5 63t14 76q0 52 -20 90t-58 60l-29 16q-12 7 -12 9
q0 3 8 9zM183 309q7 0 20 -5t28 -14t30 -21t26 -26q31 -40 31 -97q0 -32 -9.5 -58t-26.5 -45t-39.5 -29.5t-49.5 -10.5q-50 0 -83 39t-33 105q0 37 12 67t28.5 51t35 32.5t30.5 11.5z" />
    <glyph glyph-name="ellipsis" unicode="&#x2026;" horiz-adv-x="1000" 
d="M166 91q-15 0 -25 -14t-10 -37q0 -25 10 -38t25 -13t25 13t10 38q0 23 -9.5 37t-25.5 14zM499 91q-15 0 -25 -14t-10 -37q0 -25 10 -38t25 -13t25 13t10 38q0 23 -9.5 37t-25.5 14zM833 91q-15 0 -25 -14t-10 -37q0 -25 10 -38t25 -13t25 13t10 38q0 23 -9.5 37t-25.5 14
z" />
    <glyph glyph-name="emdash" unicode="&#x2014;" horiz-adv-x="648" 
d="M-9 197h649q11 0 16 12l8 22q1 3 1 6q0 6 -8 6h-649q-5 0 -9.5 -4t-6.5 -9l-8 -21q-1 -3 -1 -7q0 -5 8 -5z" />
    <glyph glyph-name="endash" unicode="&#x2013;" 
d="M498 243h-479q-11 0 -16 -13l-8 -21q-1 -3 -1 -7q0 -5 8 -5h479q11 0 16 12l7 22l2 6q0 6 -8 6z" />
    <glyph glyph-name="equal" unicode="=" horiz-adv-x="833" 
d="M124 413v-48h585v48h-585zM124 231v-48h585v48h-585z" />
    <glyph glyph-name="exclam" unicode="!" horiz-adv-x="222" 
d="M137 446q5 53 7 82.5t2 34.5q0 26 -9.5 40t-25.5 14q-34 0 -34 -59q0 -2 1.5 -30t6.5 -82l9 -97q4 -36 5 -57t1 -27v-52q0 -24 1.5 -35.5t9.5 -11.5t9.5 10.5t1.5 31.5v54q0 9 1 30.5t5 56.5zM111 91q-15 0 -25 -13.5t-10 -38.5q0 -23 10 -36.5t25 -13.5t25 13t10 38
q0 24 -9.5 37.5t-25.5 13.5z" />
    <glyph glyph-name="exclamdown" unicode="&#xa1;" horiz-adv-x="222" 
d="M111 616q-15 0 -25 -13t-10 -36q0 -25 9.5 -39t25.5 -14q15 0 25 14t10 38q0 25 -10 37.5t-25 12.5zM128 256q-4 35 -5 56.5t-1 29.5v47q0 26 -1.5 38t-9.5 12t-9.5 -11t-1.5 -34v-50q0 -9 -1 -31t-5 -57l-9 -96q-5 -54 -6.5 -82.5t-1.5 -30.5q0 -58 34 -58q16 0 25.5 14
t9.5 40q0 5 -2 34.5t-7 82.5z" />
    <glyph glyph-name="f" unicode="f" horiz-adv-x="226" 
d="M128 504q0 156 58 156q13 0 23 -9.5t19 -20.5t17.5 -20.5t16.5 -9.5t15.5 17.5t7.5 38.5q0 17 -19.5 27.5t-53.5 10.5q-54 0 -99 -55q-25 -31 -30 -62.5t-7 -66.5l-3 -49q-1 -9 -4 -12.5t-9 -7.5l-21 -13q-5 -3 -7.5 -5t-2.5 -7q0 -10 11 -10h19q9 0 11 -3.5t2 -13.5
v-328q0 -20 -9 -27.5t-20 -10.5t-20 -4.5t-9 -9.5q0 -7 4 -8.5t13 -1.5q12 0 29.5 2t39.5 2q27 0 47.5 -2t33.5 -2q16 0 16 10q0 9 -11 10t-23.5 3t-23.5 10t-11 29v328q0 10 2 13.5t11 3.5h78q8 0 10.5 4t2.5 13q0 10 -1.5 13.5t-11.5 3.5h-78q-9 0 -11 3.5t-2 13.5v47z
" />
    <glyph glyph-name="fi" unicode="&#xfb01;" horiz-adv-x="447" 
d="M128 504q0 84 28.5 126t76.5 42q25 0 40.5 -12.5t26.5 -27t19.5 -27t17.5 -12.5q11 0 19.5 16.5t8.5 37.5q0 23 -31 36t-88 13q-85 0 -124.5 -46t-45.5 -140l-3 -49q-1 -9 -4 -12.5t-9 -7.5l-21 -13q-5 -3 -7.5 -5t-2.5 -7q0 -10 11 -10h19q9 0 11 -3.5t2 -13.5v-328
q0 -20 -9 -27.5t-20 -10.5t-20 -4.5t-9 -9.5q0 -7 4 -8.5t13 -1.5q13 0 30 2t39 2q25 0 41 -2t24 -2t11.5 1.5t3.5 8.5q0 9 -8 10t-18 3.5t-18 10t-8 28.5v328q0 10 2 13.5t11 3.5h146q16 0 22 -8t6 -26v-311q0 -20 -9 -27.5t-19.5 -10.5t-19 -4.5t-8.5 -9.5q0 -7 4.5 -8.5
t12.5 -1.5q13 0 30 2t39 2q28 0 45 -2t24 -2q8 0 12.5 1t4.5 9q0 9 -9 10.5t-19.5 3.5t-19 9.5t-8.5 28.5v373q0 23 -8 23q-2 0 -5.5 -2.5t-10.5 -6t-18 -6t-29 -2.5h-163q-9 0 -11 3.5t-2 13.5v47z" />
    <glyph glyph-name="five" unicode="5" horiz-adv-x="402" 
d="M283 556q10 1 19 3t16 9.5t11 21.5t4 39q0 7 -3 8t-8 1h-6q-4 0 -12 -2l-168 -27q-14 -2 -21.5 -4t-12 -7t-8 -15t-7.5 -28l-38 -159q-6 -26 -6 -31t7.5 -7.5t23.5 -5t39.5 -6.5t56.5 -11q66 -15 98.5 -55.5t32.5 -103.5q0 -71 -39 -128.5t-117 -92.5q-25 -11 -44 -16
t-32 -7t-19.5 -4.5t-6.5 -9.5q0 -9 14 -9q9 0 25 3t37 9.5t45.5 17.5t50.5 26q68 41 105.5 103.5t37.5 132.5q0 77 -42 129.5t-120 69.5q-32 7 -54.5 10t-36.5 5.5t-20.5 6.5t-6.5 12t3 20l11 44q3 13 6.5 20t8.5 11t13 5t20 3z" />
    <glyph glyph-name="fl" unicode="&#xfb02;" horiz-adv-x="447" 
d="M327 678q-35 17 -73 17q-85 0 -127 -45.5t-50 -139.5l-4 -49q-1 -9 -4 -12.5t-9 -7.5l-21 -13q-5 -3 -7.5 -5t-2.5 -7q0 -10 11 -10h19q9 0 11 -3.5t2 -13.5v-328q0 -20 -9 -27.5t-20 -10.5t-20 -4.5t-9 -9.5q0 -7 4 -8.5t13 -1.5q12 0 29.5 2t39.5 2q26 0 42.5 -2
t23.5 -2q8 0 12 1t4 9q0 9 -8.5 10t-18.5 3.5t-18.5 10t-8.5 28.5v328q0 10 2 13.5t11 3.5h114q8 0 10.5 4t2.5 13v4q0 8 -2 10.5t-11 2.5h-114q-9 0 -11 3.5t-2 13.5v47q0 86 29.5 128t75.5 42q38 0 62 -29.5t24 -79.5v-504q0 -20 -9 -28t-20 -10.5t-20 -4t-9 -9.5
q0 -7 4 -8.5t13 -1.5q13 0 30 2t39 2q26 0 42 -2t23 -2q8 0 11.5 1.5t3.5 8.5q0 8 -8 9.5t-18 4.5t-18 10.5t-8 27.5v622q0 11 -5 11q-3 0 -13 -5.5t-30 -10.5z" />
    <glyph glyph-name="florin" unicode="&#x192;" horiz-adv-x="402" 
d="M226 488q4 85 18 126.5t34 41.5q14 0 18.5 -10t8.5 -27q8 -34 34 -34q15 0 25.5 12t10.5 32q0 26 -16 42.5t-44 16.5q-62 0 -97.5 -63t-50.5 -191l-2 -20q-2 -18 -13 -18h-76l-2 -32h77q8 0 8 -12v-3l-2 -28q-9 -119 -11 -220t-14 -183q-17 -115 -59 -115q-14 0 -14 11
t-3 31q-6 42 -39 42q-11 0 -20 -10.5t-9 -30.5q0 -28 18.5 -46.5t49.5 -18.5q46 0 74 35t44.5 104t25.5 172t18 239l1 18q1 15 13 15h72l2 32h-74q-6 0 -7.5 3t-1.5 9z" />
    <glyph glyph-name="four" unicode="4" horiz-adv-x="402" 
d="M328 684q6 10 10 16t4 9q0 5 -8 5q-4 0 -9.5 -2t-13.5 -5l-237 -382q-56 -91 -56 -107q0 -15 24 -15h184q11 0 14 -4t3 -16v-100q0 -23 -3.5 -35.5t-17.5 -15.5q-22 -5 -34.5 -6t-12.5 -14q0 -8 4.5 -10.5t13.5 -2.5q4 0 26.5 2t67.5 2q32 0 48 -2t19 -2q11 0 11 13
q0 9 -4 12t-10 3.5t-14 1.5t-15 5q-11 6 -14.5 18t-3.5 32v100q0 10 2.5 14.5t12.5 4.5h47q12 0 12 11v15q0 9 -15 9h-43q-16 0 -16 22v211q0 10 -7 10q-20 0 -37 -8t-17 -28v-185q0 -22 -14 -22h-180q64 114 133 221z" />
    <glyph glyph-name="g" unicode="g" horiz-adv-x="403" 
d="M193 438q41 0 66 -37.5t25 -102.5q0 -63 -25 -100.5t-66 -37.5t-66.5 37t-25.5 101q0 65 26 102.5t66 37.5zM337 419q-1 0 -4.5 -0.5t-8.5 -0.5q-14 0 -28 6t-30 13.5t-35 14t-43 6.5q-32 0 -59.5 -12.5t-47 -34t-30.5 -50.5t-11 -63q0 -39 13.5 -66.5t30 -45.5t30.5 -27
t14 -12q0 -4 -9 -8l-60 -31q-22 -11 -22 -17q0 -2 3 -8.5t11 -14.5l37 -43q9 -11 9 -13q0 -7 -14.5 -17t-31.5 -25t-31.5 -34.5t-14.5 -46.5q0 -49 43 -79t125 -30q46 0 85.5 13.5t68 36.5t44.5 53t16 64q0 120 -168 120q-17 0 -32 -1t-29 -1q-29 0 -42.5 12t-13.5 20
q0 11 20.5 24t73.5 18q69 6 108.5 48t39.5 110q0 23 -5 43.5t-16 42.5l48 -2h7q9 0 12 3t3 11q0 16 -4 21.5t-15 5.5q-5 0 -8 -0.5t-5 -0.5zM208 9q62 0 93.5 -24.5t31.5 -70.5q0 -50 -39.5 -81t-108.5 -31q-58 0 -90 31t-32 75q0 23 13 46.5t30 36.5q10 8 36 13t66 5z" />
    <glyph glyph-name="germandbls" unicode="&#xdf;" horiz-adv-x="458" 
d="M128 463q0 106 25 159t87 53q45 0 70.5 -31.5t25.5 -89.5q0 -42 -14.5 -66t-46.5 -37q-15 -6 -29.5 -11t-26 -14t-18 -23.5t-6.5 -39.5q0 -41 25 -70t69 -60q18 -13 34 -24t27.5 -24t18 -30.5t6.5 -42.5q0 -50 -22.5 -79t-57.5 -29q-56 0 -74 76q-8 32 -9.5 47.5
t-10.5 15.5q-8 0 -9.5 -11t-1.5 -34v-43q0 -17 2 -25.5t11 -14.5q41 -28 86 -28q64 0 100 44t36 114q0 50 -23.5 81.5t-68.5 62.5q-22 15 -38.5 26t-28 21.5t-17.5 21t-6 24.5q0 26 17 38.5t51 19.5q43 9 63 32t20 72q0 32 -11.5 59.5t-31.5 47.5t-47 31.5t-58 11.5
q-74 0 -117.5 -56.5t-52.5 -170.5l-2 -32q-1 -11 -4.5 -15.5t-12.5 -9.5l-23 -11q-6 -3 -9 -5.5t-3 -7.5q0 -10 13 -10h24q9 0 11 -3.5t2 -13.5v-298q0 -20 -9 -27.5t-20 -10.5t-20 -4.5t-9 -9.5q0 -6 2.5 -7.5t9.5 -1.5h72q17 0 23.5 2.5t6.5 13.5v447z" />
    <glyph glyph-name="grave" unicode="`" 
d="M204 662q-8 12 -14 18.5t-14 6.5t-14.5 -7.5t-6.5 -18.5q0 -16 18 -34l106 -115h20z" />
    <glyph glyph-name="greater" unicode="&#x3e;" horiz-adv-x="833" 
d="M129 554v-53l499 -203l-499 -202v-53l575 235v40z" />
    <glyph glyph-name="guillemotleft" unicode="&#xab;" horiz-adv-x="301" 
d="M145 313q22 36 22 47t-6 11q-11 0 -19 -14t-27 -37q-41 -50 -65 -71t-24 -29t24 -29t65 -71q19 -23 27.5 -37t18.5 -14q6 0 6 10q0 12 -22 48l-56 93zM269 313q22 36 22 47t-7 11q-11 0 -18.5 -14.5t-26.5 -37.5q-40 -49 -64.5 -70t-24.5 -29t27.5 -32t70.5 -79
q13 -17 19.5 -28.5t16.5 -11.5q7 0 7 10q0 12 -22 48l-56 93z" />
    <glyph glyph-name="guillemotright" unicode="&#xbb;" horiz-adv-x="301" 
d="M33 127q-11 -17 -17 -28.5t-6 -19.5q0 -10 6 -10q11 0 19 14t27 37q40 49 64.5 70.5t24.5 29.5t-24 29t-65 70q-19 23 -27 37.5t-19 14.5q-6 0 -6 -10q0 -8 6 -19.5t17 -28.5l55 -93zM156 127q-22 -36 -22 -48q0 -10 6 -10q11 0 17.5 12t19.5 28q44 55 71 79t27 32
t-28 32t-70 78q-13 17 -20 29t-17 12q-6 0 -6 -11t22 -47l56 -93z" />
    <glyph glyph-name="guilsinglleft" unicode="&#x2039;" horiz-adv-x="184" 
d="M145 313q22 36 22 47t-6 11q-11 0 -19 -14t-27 -37q-41 -50 -65 -71t-24 -29t24 -29t65 -71q19 -23 27.5 -37t18.5 -14q6 0 6 10q0 12 -22 48l-56 93z" />
    <glyph glyph-name="guilsinglright" unicode="&#x203a;" horiz-adv-x="184" 
d="M40 127q-11 -17 -17 -29t-6 -19q0 -10 6 -10q11 0 19 14t27 37q41 50 65.5 71t24.5 29q0 7 -24 28.5t-66 71.5q-19 23 -27 37t-19 14q-6 0 -6 -11q0 -7 6 -18.5t17 -28.5l55 -93z" />
    <glyph glyph-name="h" unicode="h" horiz-adv-x="457" 
d="M128 670q0 22 -7 22q-5 0 -18.5 -9.5t-39.5 -18.5q-16 -5 -28 -7t-12 -13q0 -9 7 -9q5 0 7.5 0.5t3.5 0.5q31 0 31 -45v-530q0 -20 -8 -27.5t-18 -10.5t-18 -4.5t-8 -9.5t4 -9t13 -1q11 0 26.5 2t36.5 2q26 0 42 -2t23 -2q8 0 11.5 1.5t3.5 8.5q0 8 -8 9.5t-18 4t-18 10
t-8 28.5v183q0 86 24.5 130t81.5 44q54 0 75 -39t21 -117v-201q0 -20 -8.5 -27.5t-18 -10.5t-18 -4.5t-8.5 -9.5t4 -9t13 -1q11 0 26.5 2t36.5 2q26 0 42 -2t23 -2q8 0 11.5 1.5t3.5 8.5q0 8 -8 9.5t-18 4t-18 10t-8 28.5v250q0 66 -35 106.5t-91 40.5q-27 0 -46.5 -9
t-40.5 -27q-20 -17 -28.5 -31.5t-12.5 -14.5q-3 0 -3 11v283z" />
    <glyph glyph-name="hungarumlaut" unicode="&#x2dd;" 
d="M366 633q12 19 12 31q0 10 -6 16.5t-16 6.5q-13 0 -25 -31l-56 -144h17zM269 632q6 11 8.5 18.5t2.5 12.5q0 11 -6.5 17.5t-14.5 6.5q-9 0 -15 -8.5t-11 -25.5l-45 -141h16z" />
    <glyph glyph-name="hyphen" unicode="-" horiz-adv-x="219" 
d="M44 251q-3 0 -6.5 -3.5t-5.5 -9.5l-11 -37q-1 -3 -1 -7q0 -5 6 -5h148q3 0 7 3.5t6 9.5l10 37q2 6 2 7q0 5 -7 5h-148z" />
    <glyph glyph-name="hyphen" unicode="&#xad;" horiz-adv-x="219" 
d="M44 251q-3 0 -6.5 -3.5t-5.5 -9.5l-11 -37q-1 -3 -1 -7q0 -5 6 -5h148q3 0 7 3.5t6 9.5l10 37q2 6 2 7q0 5 -7 5h-148z" />
    <glyph glyph-name="i" unicode="i" horiz-adv-x="202" 
d="M101 630q-14 0 -24.5 -15t-10.5 -35t10.5 -34t24.5 -14q15 0 25.5 14.5t10.5 33.5q0 20 -11 35t-25 15zM132 434q0 11 -1 15.5t-6 4.5q-6 0 -20 -13t-42 -29q-13 -11 -24.5 -15t-11.5 -14q0 -7 5 -8.5t13 -1.5q31 0 31 -37v-275q0 -20 -9.5 -28t-20.5 -10.5t-20.5 -4
t-9.5 -9.5q0 -7 4.5 -8.5t12.5 -1.5q11 0 28.5 2t40.5 2q29 0 46.5 -2t23.5 -2q8 0 11.5 1t3.5 9t-8.5 9.5t-19 4t-19 10t-8.5 28.5v373z" />
    <glyph glyph-name="iacute" unicode="&#xed;" horiz-adv-x="202" 
d="M132 434q0 11 -1 15.5t-6 4.5q-6 0 -20 -13t-42 -29q-13 -11 -24.5 -15t-11.5 -14q0 -7 5 -8.5t13 -1.5q17 0 22 -9.5t5 -27.5v-275q0 -20 -9 -28t-19.5 -10.5t-19 -4t-8.5 -9.5q0 -7 4.5 -8.5t12.5 -1.5q11 0 28.5 2t40.5 2q29 0 46.5 -2t23.5 -2q8 0 11.5 1t3.5 9
t-8.5 9.5t-19 4t-19 10t-8.5 28.5v373zM179 627q18 18 18 34q0 11 -6.5 18.5t-14.5 7.5t-14 -6.5t-14 -18.5l-95 -150h20z" />
    <glyph glyph-name="icircumflex" unicode="&#xee;" horiz-adv-x="202" 
d="M132 434q0 11 -1 15.5t-6 4.5q-6 0 -20 -13t-42 -29q-13 -11 -24.5 -15t-11.5 -14q0 -7 5 -8.5t13 -1.5q17 0 22 -9.5t5 -27.5v-275q0 -20 -9 -28t-19.5 -10.5t-19 -4t-8.5 -9.5q0 -7 4.5 -8.5t12.5 -1.5q11 0 28.5 2t40.5 2q29 0 46.5 -2t23.5 -2q8 0 11.5 1t3.5 9
t-8.5 9.5t-19 4t-19 10t-8.5 28.5v373zM83 683l-87 -171h19l87 114l87 -114h19l-87 171h-38z" />
    <glyph glyph-name="idieresis" unicode="&#xef;" horiz-adv-x="202" 
d="M132 434q0 11 -1 15.5t-6 4.5q-6 0 -20 -13t-42 -29q-13 -11 -24.5 -15t-11.5 -14q0 -7 5 -8.5t13 -1.5q17 0 22 -9.5t5 -27.5v-275q0 -20 -9 -28t-19.5 -10.5t-19 -4t-8.5 -9.5q0 -7 4.5 -8.5t12.5 -1.5q11 0 28.5 2t40.5 2q29 0 46.5 -2t23.5 -2q8 0 11.5 1t3.5 9
t-8.5 9.5t-19 4t-19 10t-8.5 28.5v373zM-36 588q0 -19 12.5 -31t30.5 -12t30.5 12t12.5 31q0 17 -13 30t-30 13t-30 -13t-13 -30zM154 588q0 -19 12.5 -31t30.5 -12t30.5 12t12.5 31q0 17 -13 30t-30 13t-30 -13t-13 -30z" />
    <glyph glyph-name="igrave" unicode="&#xec;" horiz-adv-x="202" 
d="M132 434q0 11 -1 15.5t-6 4.5q-6 0 -20 -13t-42 -29q-13 -11 -24.5 -15t-11.5 -14q0 -7 5 -8.5t13 -1.5q17 0 22 -9.5t5 -27.5v-275q0 -20 -9 -28t-19.5 -10.5t-19 -4t-8.5 -9.5q0 -7 4.5 -8.5t12.5 -1.5q11 0 28.5 2t40.5 2q29 0 46.5 -2t23.5 -2q8 0 11.5 1t3.5 9
t-8.5 9.5t-19 4t-19 10t-8.5 28.5v373zM56 662q-8 12 -14 18.5t-14 6.5t-14.5 -7.5t-6.5 -18.5q0 -16 18 -34l106 -115h20z" />
    <glyph glyph-name="j" unicode="j" horiz-adv-x="192" 
d="M97 630q-14 0 -24.5 -15t-10.5 -35t10.5 -34t24.5 -14q15 0 25 14.5t10 33.5q0 20 -10.5 35t-24.5 15zM127 434q0 11 -1 15.5t-6 4.5q-6 0 -19.5 -13t-41.5 -29q-14 -11 -25.5 -15t-11.5 -14t14 -10h8q16 0 21.5 -11.5t5.5 -36.5v-354q0 -42 -5.5 -75.5t-28.5 -62.5
q-12 -15 -22 -24.5t-10 -18.5q0 -10 8 -10q6 0 22.5 11.5t36.5 34.5q33 38 44 78t11 91v439z" />
    <glyph glyph-name="k" unicode="k" horiz-adv-x="415" 
d="M128 670q0 22 -7 22q-5 0 -18.5 -9.5t-39.5 -18.5q-16 -5 -28 -7t-12 -13q0 -9 7 -9q5 0 7.5 0.5t3.5 0.5q31 0 31 -45v-530q0 -20 -7.5 -27.5t-16 -10.5t-16 -4.5t-7.5 -9.5q0 -7 2.5 -8.5t10.5 -1.5q11 0 26.5 2t35.5 2q26 0 43 -2t25 -2t12 1t4 9t-9 9.5t-19.5 4
t-19 10t-8.5 28.5v119q0 12 7 19l30 30q3 3 7 3q2 0 6 -4l90 -142q21 -35 21 -47q0 -8 -6.5 -12t-14.5 -6.5t-14.5 -5.5t-6.5 -9q0 -10 13 -10q8 0 26 2.5t47 2.5q24 0 40.5 -2.5t26.5 -2.5q12 0 12 10q0 7 -4 8t-12 5t-22 16.5t-33 43.5l-120 192q-2 4 -2 6q0 6 4 10
l102 101q16 16 30.5 22t26 8t18 4t6.5 9q0 6 -3 7.5t-8 1.5q-4 0 -22 -2t-52 -2q-29 0 -46 2t-25 2q-5 0 -7.5 -1.5t-2.5 -7.5q0 -8 7 -10t15 -3t15 -3.5t7 -9.5q0 -12 -20 -34l-122 -129q-8 -8 -11 -8t-3 12v424z" />
    <glyph glyph-name="l" unicode="l" horiz-adv-x="198" 
d="M128 670q0 22 -7 22q-5 0 -18.5 -9.5t-39.5 -18.5q-16 -5 -28 -7t-12 -13q0 -9 7 -9q5 0 7.5 0.5t3.5 0.5q31 0 31 -45v-530q0 -20 -9 -27.5t-20 -10.5t-20 -4.5t-9 -9.5q0 -7 4 -8.5t13 -1.5q12 0 29.5 2t39.5 2q25 0 41 -2t24 -2t11.5 1.5t3.5 8.5q0 8 -8 9.5t-18 4
t-18 10t-8 28.5v609z" />
    <glyph glyph-name="less" unicode="&#x3c;" horiz-adv-x="833" 
d="M704 554l-575 -236v-40l575 -235v53l-499 202l499 203v53z" />
    <glyph glyph-name="logicalnot" unicode="&#xac;" horiz-adv-x="833" 
d="M124 419v-49h538v-196h47v245h-585z" />
    <glyph glyph-name="m" unicode="m" horiz-adv-x="670" 
d="M125 434q0 11 -0.5 17.5t-5.5 6.5t-17 -15.5t-38 -33.5q-11 -8 -21.5 -11.5t-10.5 -12.5q0 -7 6 -7t13.5 -1t14 -7t6.5 -24v-285q0 -20 -8 -27.5t-18 -10.5t-18 -4.5t-8 -9.5q0 -7 3.5 -8.5t11.5 -1.5q11 0 27.5 2t37.5 2q29 0 45 -2t20 -2q8 0 11.5 1.5t3.5 8.5
q0 8 -8 9.5t-18 4t-18 10t-8 28.5v214q0 70 27.5 106.5t66.5 36.5q47 0 66 -39t19 -117v-201q0 -20 -7.5 -27.5t-16.5 -10.5t-16.5 -4.5t-7.5 -9.5q0 -7 3 -8.5t11 -1.5q5 0 21 2t43 2q24 0 39 -2t22 -2q8 0 11 1.5t3 8.5q0 8 -7.5 9.5t-17 4.5t-17 10.5t-7.5 27.5l2 214
q1 73 27.5 108t65.5 35q48 0 66.5 -39t18.5 -117v-201q0 -20 -7.5 -27.5t-17 -10.5t-17 -4.5t-7.5 -9.5q0 -7 3.5 -8.5t11.5 -1.5q10 0 25.5 2t37.5 2q25 0 40 -2t21 -2q8 0 11 1.5t3 8.5q0 8 -7.5 9.5t-16.5 4t-16.5 10t-7.5 28.5v183q0 26 -0.5 41.5t-0.5 20.5
q0 70 -32 111t-84 41q-35 0 -64 -22.5t-58 -69.5h-4q-16 47 -42 69.5t-67 22.5q-23 0 -42 -9t-39 -27q-19 -17 -26 -31.5t-11 -14.5t-4 11v47z" />
    <glyph glyph-name="macron" unicode="&#xaf;" 
d="M150 615v-53h200v53h-200z" />
    <glyph glyph-name="macron" unicode="&#x2c9;" 
d="M150 615v-53h200v53h-200z" />
    <glyph glyph-name="mu" unicode="&#xb5;" horiz-adv-x="527" 
d="M79 93q14 -103 108 -103q91 0 134 104v-13q0 -88 74 -88q60 0 99 67q14 24 21 50t7 35q0 17 -11 17q-7 0 -11.5 -6.5t-8.5 -17t-8 -23t-10 -24.5q-24 -44 -63 -44q-18 0 -28.5 13t-10.5 39q0 24 11 76l56 257h-63l-54 -241q-17 -75 -51 -112.5t-82 -37.5q-36 0 -58 25.5
t-22 70.5q0 13 1.5 24.5t3.5 22.5l53 248h-63l-54 -253q-31 -148 -54.5 -232.5t-23.5 -113.5q0 -36 35 -36q20 0 29.5 18.5t14.5 55t10.5 92t18.5 130.5z" />
    <glyph glyph-name="mu" unicode="&#x3bc;" horiz-adv-x="527" 
d="M79 93q14 -103 108 -103q91 0 134 104v-13q0 -88 74 -88q60 0 99 67q14 24 21 50t7 35q0 17 -11 17q-7 0 -11.5 -6.5t-8.5 -17t-8 -23t-10 -24.5q-24 -44 -63 -44q-18 0 -28.5 13t-10.5 39q0 24 11 76l56 257h-63l-54 -241q-17 -75 -51 -112.5t-82 -37.5q-36 0 -58 25.5
t-22 70.5q0 13 1.5 24.5t3.5 22.5l53 248h-63l-54 -253q-31 -148 -54.5 -232.5t-23.5 -113.5q0 -36 35 -36q20 0 29.5 18.5t14.5 55t10.5 92t18.5 130.5z" />
    <glyph glyph-name="n" unicode="n" horiz-adv-x="450" 
d="M125 434q0 11 -0.5 17.5t-5.5 6.5t-17 -15.5t-38 -33.5q-11 -8 -21.5 -11.5t-10.5 -12.5q0 -6 6 -7t13.5 -2t14 -5.5t6.5 -19.5v-290q0 -20 -8 -27.5t-18 -10.5t-18 -4.5t-8 -9.5q0 -7 3.5 -8.5t11.5 -1.5q14 0 30 2t35 2q26 0 42 -2t23 -2q8 0 11.5 1.5t3.5 8.5
q0 8 -8 9.5t-18 4t-18 10t-8 28.5v183q0 87 24 130.5t78 43.5q52 0 72 -39t20 -117v-201q0 -20 -8 -27.5t-18 -10.5t-18 -4.5t-8 -9.5t4 -9t13 -1q11 0 26.5 2t36.5 2q26 0 42 -2t23 -2q8 0 11.5 1.5t3.5 8.5q0 8 -8 9.5t-18 4t-18 10t-8 28.5v245q0 70 -34 111t-90 41
q-24 0 -44.5 -9t-40.5 -27q-19 -17 -27.5 -31.5t-12.5 -14.5t-4 11v47z" />
    <glyph glyph-name="nine" unicode="9" horiz-adv-x="402" 
d="M24 430q0 -44 10.5 -79t30 -60t46.5 -38.5t59 -13.5q15 0 30 5t26.5 12.5t19 16t7.5 15.5q0 10 -8 10q-3 0 -15.5 -10t-40.5 -10q-46 0 -76 47t-30 129q0 38 8.5 69.5t22.5 53.5t33 34t40 12q23 0 45.5 -16.5t40 -46.5t28.5 -72t11 -93q0 -101 -42.5 -197.5
t-121.5 -174.5q-26 -26 -47.5 -40.5t-36.5 -23.5t-23.5 -14.5t-8.5 -12.5q0 -13 11 -13q6 0 20.5 6t34.5 18t45 30t51 43q179 167 179 369q0 61 -16 110t-41 83.5t-56 53.5t-61 19q-36 0 -68 -16.5t-55.5 -46t-37.5 -70t-14 -88.5z" />
    <glyph glyph-name="ntilde" unicode="&#xf1;" horiz-adv-x="450" 
d="M125 434q0 11 -0.5 17.5t-5.5 6.5t-17 -15.5t-38 -33.5q-11 -8 -21.5 -11.5t-10.5 -12.5q0 -6 6 -7t13.5 -2t14 -5.5t6.5 -19.5v-290q0 -20 -8 -27.5t-18 -10.5t-18 -4.5t-8 -9.5q0 -7 3.5 -8.5t11.5 -1.5q14 0 30 2t35 2q26 0 42 -2t23 -2q8 0 11.5 1.5t3.5 8.5
q0 8 -8 9.5t-18 4t-18 10t-8 28.5v183q0 87 24 130.5t78 43.5q52 0 72 -39t20 -117v-201q0 -20 -8 -27.5t-18 -10.5t-18 -4.5t-8 -9.5t4 -9t13 -1q11 0 26.5 2t36.5 2q26 0 42 -2t23 -2q8 0 11.5 1.5t3.5 8.5q0 8 -8 9.5t-18 4t-18 10t-8 28.5v245q0 70 -34 111t-90 41
q-24 0 -44.5 -9t-40.5 -27q-19 -17 -27.5 -31.5t-12.5 -14.5t-4 11v47zM320 643q-7 -43 -36 -43q-7 0 -22 5l-45 17q-22 8 -36 8q-24 0 -41.5 -22.5t-24.5 -67.5h16q5 24 13.5 34t25.5 10q2 0 8 -1t15 -5l46 -17q9 -3 16 -5t14 -2q53 0 68 89h-17z" />
    <glyph glyph-name="numbersign" unicode="#" horiz-adv-x="769" 
d="M387 710l-83 -236h-175l-17 -48h175l-51 -144h-161l-18 -48h162l-83 -234h55l84 234h143l-83 -234h55l83 234h166l18 48h-166l50 144h154l17 48h-154l84 236h-55l-84 -236h-144l84 236h-56zM342 426h144l-51 -144h-144z" />
    <glyph glyph-name="o" unicode="o" horiz-adv-x="448" 
d="M222 458q-42 0 -78 -17t-62.5 -48t-41 -75t-14.5 -98q0 -53 14 -97t39 -75.5t60 -49t78 -17.5q48 0 86 17t64.5 48.5t40.5 76t14 98.5q0 53 -13.5 97t-39 75t-63 48t-84.5 17zM224 440q61 0 97.5 -60t36.5 -170q0 -103 -36 -156.5t-100 -53.5q-29 0 -53.5 15.5t-42.5 45
t-28 71t-10 94.5q0 105 36.5 159.5t99.5 54.5z" />
    <glyph glyph-name="oacute" unicode="&#xf3;" horiz-adv-x="448" 
d="M222 458q-42 0 -78 -17t-62.5 -48t-41 -75t-14.5 -98q0 -53 14 -97t39 -75.5t60 -49t78 -17.5q48 0 86 17t64.5 48.5t40.5 76t14 98.5q0 53 -13.5 97t-39 75t-63 48t-84.5 17zM224 440q61 0 97.5 -60t36.5 -170q0 -103 -36 -156.5t-100 -53.5q-29 0 -53.5 15.5t-42.5 45
t-28 71t-10 94.5q0 105 36.5 159.5t99.5 54.5zM302 627q18 18 18 34q0 11 -6.5 18.5t-14.5 7.5t-14 -6.5t-14 -18.5l-95 -150h20z" />
    <glyph glyph-name="ocircumflex" unicode="&#xf4;" horiz-adv-x="448" 
d="M222 458q-42 0 -78 -17t-62.5 -48t-41 -75t-14.5 -98q0 -53 14 -97t39 -75.5t60 -49t78 -17.5q48 0 86 17t64.5 48.5t40.5 76t14 98.5q0 53 -13.5 97t-39 75t-63 48t-84.5 17zM224 440q61 0 97.5 -60t36.5 -170q0 -103 -36 -156.5t-100 -53.5q-29 0 -53.5 15.5t-42.5 45
t-28 71t-10 94.5q0 105 36.5 159.5t99.5 54.5zM206 683l-87 -171h19l87 114l87 -114h19l-87 171h-38z" />
    <glyph glyph-name="odieresis" unicode="&#xf6;" horiz-adv-x="448" 
d="M222 458q-42 0 -78 -17t-62.5 -48t-41 -75t-14.5 -98q0 -53 14 -97t39 -75.5t60 -49t78 -17.5q48 0 86 17t64.5 48.5t40.5 76t14 98.5q0 53 -13.5 97t-39 75t-63 48t-84.5 17zM224 440q61 0 97.5 -60t36.5 -170q0 -103 -36 -156.5t-100 -53.5q-29 0 -53.5 15.5t-42.5 45
t-28 71t-10 94.5q0 105 36.5 159.5t99.5 54.5zM87 588q0 -19 12.5 -31t30.5 -12t30.5 12t12.5 31q0 17 -13 30t-30 13t-30 -13t-13 -30zM277 588q0 -19 12.5 -31t30.5 -12t30.5 12t12.5 31q0 17 -13 30t-30 13t-30 -13t-13 -30z" />
    <glyph glyph-name="oe" unicode="&#x153;" horiz-adv-x="667" 
d="M210 440q27 0 49.5 -15t39 -43.5t25.5 -69t9 -91.5q0 -111 -32 -166t-93 -55q-27 0 -49.5 15.5t-39 44.5t-25.5 71t-9 95q0 105 34 159.5t91 54.5zM366 360q-59 98 -156 98q-42 0 -76.5 -17t-59 -48t-38 -75t-13.5 -98t12.5 -98t36 -75.5t56 -48.5t71.5 -17
q108 0 163 102q49 -102 143 -102q32 0 58 12t44.5 28.5t28.5 34t10 28.5q0 8 -7 8q-3 0 -9.5 -10t-19 -22t-32 -22t-48.5 -10t-53.5 14.5t-42.5 41t-28.5 64.5t-10.5 85q0 29 5 40t19 11h203q17 0 22.5 5t5.5 19q0 32 -10 59.5t-28 47.5t-43.5 31.5t-56.5 11.5
q-45 0 -80.5 -24t-65.5 -74zM484 304h-67q-11 0 -11 12q0 25 7.5 47t21 39t32 27t40.5 10q32 0 56.5 -26.5t24.5 -68.5q0 -26 -24.5 -33t-79.5 -7z" />
    <glyph glyph-name="ogonek" unicode="&#x2db;" 
d="M301 15q-48 -37 -71.5 -77.5t-23.5 -79.5q0 -34 17 -53.5t43 -19.5q24 0 44.5 17t34.5 51l-10 7q-12 -19 -23 -28.5t-25 -9.5q-18 0 -30 15.5t-12 42.5q0 35 18.5 68t54.5 67h-17z" />
    <glyph glyph-name="ograve" unicode="&#xf2;" horiz-adv-x="448" 
d="M222 458q-42 0 -78 -17t-62.5 -48t-41 -75t-14.5 -98q0 -53 14 -97t39 -75.5t60 -49t78 -17.5q48 0 86 17t64.5 48.5t40.5 76t14 98.5q0 53 -13.5 97t-39 75t-63 48t-84.5 17zM224 440q61 0 97.5 -60t36.5 -170q0 -103 -36 -156.5t-100 -53.5q-29 0 -53.5 15.5t-42.5 45
t-28 71t-10 94.5q0 105 36.5 159.5t99.5 54.5zM179 662q-8 12 -14 18.5t-14 6.5t-14.5 -7.5t-6.5 -18.5q0 -16 18 -34l106 -115h20z" />
    <glyph glyph-name="one" unicode="1" horiz-adv-x="402" 
d="M253 596q0 17 1 27t1 13q0 12 -11 12q-8 0 -29.5 -16t-67.5 -37q-33 -15 -53 -21.5t-20 -19.5q0 -15 13 -15q5 0 16.5 6t25.5 13.5t28 13.5t25 6q9 0 9 -16v-471q0 -29 -5.5 -42.5t-28.5 -17.5q-9 -2 -17 -2h-14h-9q-13 0 -20 -2t-7 -13q0 -15 20 -15q12 0 42 3t78 3
q43 0 67.5 -2.5t29.5 -2.5q20 0 20 14q0 10 -7 12.5t-17.5 3t-23.5 0.5t-25 6q-15 7 -18 21t-3 38v501z" />
    <glyph glyph-name="ordfeminine" unicode="&#xaa;" horiz-adv-x="272" 
d="M218 562q0 18 -1.5 33t-8.5 25.5t-20 16t-37 5.5q-30 0 -54.5 -10.5t-42 -25.5t-27.5 -32t-10 -30q0 -5 3.5 -8.5t8.5 -3.5q21 0 29.5 15t16.5 37q7 17 24 30t37 13q23 0 30 -14t7 -46v-62q-38 -21 -67.5 -38t-49 -33.5t-29.5 -33.5t-10 -37q0 -26 15 -40.5t42 -14.5
q25 0 47 13t50 36h3q7 -25 15 -35.5t23 -10.5q7 0 17 4.5t19 11.5t15.5 14t6.5 13q0 5 -5 5t-12 -8t-15 -8q-20 0 -20 44v175zM174 477v-64q0 -18 -7 -31.5t-17.5 -23t-23 -14.5t-23.5 -5q-19 0 -29.5 11.5t-10.5 31.5q0 46 77 87l22 12q6 3 8 3q4 0 4 -7z" />
    <glyph glyph-name="ordmasculine" unicode="&#xba;" horiz-adv-x="336" 
d="M167 642q-32 0 -59 -12t-46.5 -33.5t-30.5 -52.5t-11 -69q0 -37 10 -68t29 -53t45.5 -34t58.5 -12q72 0 113 46t41 122q0 75 -39.5 120.5t-110.5 45.5zM168 629q46 0 73.5 -42t27.5 -119q0 -72 -27 -109.5t-75 -37.5q-45 0 -73 42t-28 116q0 73 27.5 111.5t74.5 38.5z
" />
    <glyph glyph-name="oslash" unicode="&#xf8;" horiz-adv-x="448" 
d="M371 532l-51 -97q-20 13 -45 18.5t-55 5.5q-41 0 -76.5 -16.5t-61.5 -48t-41 -76.5t-15 -101q0 -61 18.5 -109.5t59.5 -88.5l-59 -114h25l53 101q21 -14 44.5 -19.5t50.5 -5.5q96 0 150 66t54 181q0 60 -22 111.5t-61 84.5l57 108h-25zM303 403l-177 -341
q-22 34 -30 74.5t-8 91.5q0 103 36.5 157.5t99.5 54.5q26 0 45.5 -10t33.5 -27zM319 384q39 -64 39 -173q0 -104 -36 -157.5t-99 -53.5q-50 0 -82 41z" />
    <glyph glyph-name="otilde" unicode="&#xf5;" horiz-adv-x="448" 
d="M222 458q-42 0 -78 -17t-62.5 -48t-41 -75t-14.5 -98q0 -53 14 -97t39 -75.5t60 -49t78 -17.5q48 0 86 17t64.5 48.5t40.5 76t14 98.5q0 53 -13.5 97t-39 75t-63 48t-84.5 17zM224 440q61 0 97.5 -60t36.5 -170q0 -103 -36 -156.5t-100 -53.5q-29 0 -53.5 15.5t-42.5 45
t-28 71t-10 94.5q0 105 36.5 159.5t99.5 54.5zM319 643q-7 -43 -36 -43q-7 0 -22 5l-45 17q-22 8 -36 8q-24 0 -41.5 -22.5t-24.5 -67.5h16q5 24 13.5 34t25.5 10q2 0 8 -1t15 -5l46 -17q9 -3 16 -5t14 -2q53 0 68 89h-17z" />
    <glyph glyph-name="p" unicode="p" horiz-adv-x="456" 
d="M125 434q0 11 -0.5 17.5t-5.5 6.5t-17 -15.5t-38 -33.5q-11 -8 -21.5 -11.5t-10.5 -12.5q0 -7 6 -7t13.5 -1t14 -7t6.5 -24v-505q0 -20 -8 -27.5t-18 -10.5t-18 -4.5t-8 -9.5q0 -10 14 -10q10 0 28.5 2t46.5 2q26 0 43 -2t26 -2q15 0 15 10q0 9 -10 10.5t-22.5 3.5
t-22.5 9.5t-10 28.5v172h5q26 -17 50.5 -24.5t53.5 -7.5q40 0 74 17t59 48.5t39.5 77t14.5 102.5q0 53 -12.5 96t-34 73.5t-51 47t-63.5 16.5q-31 0 -54 -12t-39.5 -26.5t-26.5 -26.5t-13 -12q-5 0 -5 9v43zM128 85v223q0 25 9.5 46t25 36.5t35.5 24t40 8.5q55 0 90.5 -53.5
t35.5 -154.5q0 -103 -38 -158.5t-98 -55.5q-21 0 -39 6.5t-31.5 17.5t-21.5 26.5t-8 33.5z" />
    <glyph glyph-name="paragraph" unicode="&#xb6;" 
d="M459 722h-226q-44 0 -79.5 -12.5t-60.5 -35t-38.5 -54t-13.5 -68.5q0 -73 48.5 -119.5t135.5 -50.5v-382h40v688h92v-688h40v688h62v34z" />
    <glyph glyph-name="parenleft" unicode="(" horiz-adv-x="308" 
d="M71 209q0 -96 32.5 -187t92.5 -165q18 -22 35.5 -38.5t33 -27t27 -16t16.5 -5.5q7 0 7 7q0 5 -6.5 10t-18 12.5t-27 20t-32.5 33.5q-48 58 -75 148.5t-27 207.5t27 208.5t75 148.5q17 21 32 33t26.5 19.5t18.5 12.5t7 10q0 7 -8 7q-5 0 -18 -6.5t-30 -19t-36.5 -31.5
t-37.5 -44q-57 -78 -85.5 -162.5t-28.5 -175.5z" />
    <glyph glyph-name="parenright" unicode=")" horiz-adv-x="308" 
d="M0 648q-8 0 -8 -7q0 -6 8 -11t21.5 -14t30 -23.5t34.5 -38.5q44 -60 68.5 -148t24.5 -197q0 -117 -27.5 -207.5t-75.5 -148.5q-17 -20 -32 -32.5t-26.5 -20.5t-18.5 -13t-7 -10q0 -7 8 -7q5 0 16.5 5.5t26.5 16.5t32.5 27t35.5 38q60 74 93 165.5t33 186.5t-33 186.5
t-93 165.5q-35 43 -68 65t-43 22z" />
    <glyph glyph-name="percent" unicode="%" horiz-adv-x="607" 
d="M174 648q-26 0 -49.5 -12.5t-41.5 -34.5t-29 -52.5t-11 -66.5q0 -35 11 -64t29 -50t41.5 -32.5t49.5 -11.5q25 0 48.5 12t42 34t29.5 52.5t11 67.5q0 33 -10.5 62t-28.5 50t-41.5 33.5t-50.5 12.5zM495 645l-413 -661h30l413 661h-30zM172 626q18 0 33.5 -10.5t27 -29.5
t18.5 -46t7 -60q0 -63 -24 -98.5t-58 -35.5q-35 0 -61 39.5t-26 108.5q0 60 23 96t60 36zM434 305q-26 0 -49.5 -12.5t-42 -34.5t-29.5 -52.5t-11 -66.5q0 -35 11 -64t29 -50t42 -32.5t50 -11.5q25 0 48.5 12.5t42 34.5t29.5 52.5t11 66.5q0 33 -10.5 62t-28.5 50.5
t-41.5 33.5t-50.5 12zM431 283q35 0 61 -39.5t26 -107.5q0 -61 -24 -97t-58 -36q-17 0 -33 10.5t-28 29.5t-19 46.5t-7 62.5q0 60 22.5 95.5t59.5 35.5z" />
    <glyph glyph-name="period" unicode="." horiz-adv-x="201" 
d="M100 91q-15 0 -25 -14t-10 -37q0 -25 10 -38t25 -13t25 13t10 38q0 23 -9.5 37t-25.5 14z" />
    <glyph glyph-name="periodcentered" unicode="&#xb7;" horiz-adv-x="201" 
d="M100 361q-14 0 -25.5 -12.5t-11.5 -33.5q0 -20 11.5 -33.5t25.5 -13.5t25.5 13.5t11.5 33.5q0 21 -11.5 33.5t-25.5 12.5z" />
    <glyph glyph-name="periodcentered" unicode="&#x22c5;" horiz-adv-x="201" 
d="M100 361q-14 0 -25.5 -12.5t-11.5 -33.5q0 -20 11.5 -33.5t25.5 -13.5t25.5 13.5t11.5 33.5q0 21 -11.5 33.5t-25.5 12.5z" />
    <glyph glyph-name="perthousand" unicode="&#x2030;" horiz-adv-x="911" 
d="M174 648q-26 0 -49.5 -12.5t-41.5 -34.5t-29 -52.5t-11 -66.5q0 -35 11 -64t29 -50t41.5 -32.5t49.5 -11.5q25 0 48.5 12t42 34t29.5 52.5t11 67.5q0 33 -10.5 62t-28.5 50t-41.5 33.5t-50.5 12.5zM495 645l-413 -661h30l413 661h-30zM172 626q18 0 33.5 -10.5t27 -29.5
t18.5 -46t7 -60q0 -63 -24 -98.5t-58 -35.5q-35 0 -61 39.5t-26 108.5q0 60 23 96t60 36zM434 305q-26 0 -49.5 -12.5t-42 -34.5t-29.5 -52.5t-11 -66.5q0 -35 11 -64t29 -50t42 -32.5t50 -11.5q25 0 48.5 12.5t42 34.5t29.5 52.5t11 66.5q0 33 -10.5 62t-28.5 50.5
t-41.5 33.5t-50.5 12zM738 305q-26 0 -49.5 -12.5t-42 -34.5t-29.5 -52.5t-11 -66.5q0 -35 11 -64t29 -50t42 -32.5t50 -11.5q25 0 48.5 12.5t42 34.5t29.5 52.5t11 66.5q0 33 -10.5 62t-28.5 50t-41.5 33.5t-50.5 12.5zM431 283q35 0 61 -39.5t26 -107.5q0 -61 -24 -97
t-58 -36q-17 0 -33 10.5t-28 29.5t-19 46.5t-7 62.5q0 60 22.5 95.5t59.5 35.5zM736 283q18 0 33.5 -10.5t27 -29.5t18.5 -46t7 -60q0 -63 -24 -98.5t-58 -35.5q-35 0 -61 39.5t-26 108.5q0 60 23 96t60 36z" />
    <glyph glyph-name="plus" unicode="+" horiz-adv-x="833" 
d="M393 596v-274h-269v-48h269v-274h48v274h268v48h-268v274h-48z" />
    <glyph glyph-name="plusminus" unicode="&#xb1;" horiz-adv-x="833" 
d="M393 571v-170h-269v-48h269v-170h48v170h268v48h-268v170h-48zM124 73v-48h585v48h-585z" />
    <glyph glyph-name="q" unicode="q" horiz-adv-x="433" 
d="M322 355v-223q0 -25 -9.5 -46t-25 -36.5t-35 -24t-40.5 -8.5q-55 0 -90.5 54t-35.5 154q0 103 38 158.5t98 55.5q44 0 72 -24t28 -60zM381 346q0 55 5.5 79.5t5.5 28.5q0 10 -7 10q-6 0 -9 -6t-6 -13t-7.5 -13t-13.5 -6q-8 0 -21 5t-30 11.5t-38.5 11.5t-46.5 5
q-39 0 -73.5 -16.5t-59.5 -48t-39.5 -77t-14.5 -103.5q0 -54 12.5 -97t34.5 -73t51 -46.5t62 -16.5q70 0 133 79h6v-193q0 -27 -5 -41.5t-20 -19.5q-11 -4 -18.5 -5t-12.5 -1.5t-7.5 -2.5t-2.5 -8q0 -11 18 -11q10 0 29 3.5t47 3.5q25 0 40.5 -3t23.5 -3t12 1.5t4 8.5
t-8 9.5t-18 6.5t-18 13t-8 29v499z" />
    <glyph glyph-name="question" unicode="?" horiz-adv-x="265" 
d="M85 175q3 -15 10 -15q8 0 8 15q0 3 -0.5 6.5t-0.5 7.5q0 35 16 55t40 42q20 18 36 36t27 37.5t17 42t6 50.5q0 37 -11 67.5t-29.5 52.5t-43.5 34t-53 12q-35 0 -50.5 -8.5t-15.5 -25.5q0 -74 20 -74q10 0 16.5 12.5t14 28t18.5 28t29 12.5q27 0 46.5 -27.5t19.5 -71.5
q0 -24 -6.5 -44t-17.5 -37.5t-26.5 -34t-34.5 -33.5q-24 -23 -37 -36.5t-13 -31.5q0 -10 3 -25zM93 91q-15 0 -25 -14t-10 -37q0 -25 10 -38t25 -13t25 13t10 38q0 23 -9.5 37t-25.5 14z" />
    <glyph glyph-name="questiondown" unicode="&#xbf;" horiz-adv-x="265" 
d="M175 616q-15 0 -25 -12.5t-10 -37.5q0 -23 9.5 -37.5t25.5 -14.5q14 0 24.5 14.5t10.5 37.5q0 25 -10.5 37.5t-24.5 12.5zM183 430q-3 16 -10 16t-7 -16v-13q0 -18 -4 -31.5t-11 -24t-17 -20t-21 -19.5q-20 -19 -36.5 -37t-28 -37.5t-18 -42.5t-6.5 -51q0 -37 10.5 -68
t29 -53t43.5 -34t53 -12q36 0 51.5 8.5t15.5 25.5q0 74 -20 74q-9 0 -16 -12.5t-14.5 -27.5t-18.5 -27.5t-29 -12.5q-27 0 -46 27t-19 71q0 24 6 44t17.5 38t27 34.5t35.5 34.5q25 22 36.5 35t11.5 34q0 5 -3 23z" />
    <glyph glyph-name="quotedbl" unicode="&#x22;" horiz-adv-x="328" 
d="M92 424l30 222q1 6 1.5 11t0.5 10q0 47 -40 47q-39 0 -39 -48q0 -5 0.5 -10t1.5 -10l30 -222h15zM251 424l30 222q1 5 1.5 10t0.5 10q0 48 -39 48q-40 0 -40 -47q0 -5 0.5 -10.5t1.5 -10.5l30 -222h15z" />
    <glyph glyph-name="quotedblbase" unicode="&#x201e;" horiz-adv-x="307" 
d="M32 48q0 -14 6.5 -24t17.5 -14q7 -3 13.5 -3.5t10.5 -2t6.5 -6t2.5 -14.5q0 -21 -8 -39t-17 -32.5t-17 -25t-8 -16.5q0 -3 3 -5t5 -2q6 0 17.5 12.5t23 33t20 45.5t8.5 51q0 38 -13.5 60t-33.5 22q-17 0 -27 -10.5t-10 -29.5zM182 48q0 -14 6.5 -24t17.5 -14
q7 -3 13.5 -3.5t10.5 -2t6.5 -6t2.5 -14.5q0 -21 -8 -39t-17 -32.5t-17 -25t-8 -16.5q0 -3 3 -5t5 -2q6 0 17.5 12.5t23 32.5t20 45.5t8.5 51.5q0 38 -13.5 60t-33.5 22q-17 0 -27 -10.5t-10 -29.5z" />
    <glyph glyph-name="quotedblleft" unicode="&#x201c;" horiz-adv-x="307" 
d="M103 648q-4 0 -15 -12t-23 -32t-21 -47.5t-9 -57.5q0 -33 13.5 -54t33.5 -21q17 0 26.5 10.5t9.5 29.5q0 32 -30 40q-14 3 -20 5t-6 19q0 20 7.5 38t17 33t17 25.5t7.5 16.5q0 7 -8 7zM253 648q-4 0 -15 -12t-23 -32t-21 -47.5t-9 -57.5q0 -33 13.5 -54t33.5 -21
q17 0 26.5 10.5t9.5 29.5q0 32 -30 40q-14 3 -20 5t-6 19q0 20 7.5 38t17 33t17 25.5t7.5 16.5q0 7 -8 7z" />
    <glyph glyph-name="quotedblright" unicode="&#x201d;" horiz-adv-x="307" 
d="M40 608q0 -32 30 -39q14 -3 20.5 -5.5t6.5 -19.5q0 -20 -7.5 -38t-17 -32.5t-17 -25t-7.5 -16.5q0 -8 7 -8q5 0 16 12t22.5 32.5t20.5 46.5t9 53q0 37 -13.5 59t-33.5 22q-17 0 -26.5 -11t-9.5 -30zM190 608q0 -32 30 -39q14 -3 20.5 -5.5t6.5 -19.5q0 -20 -7.5 -38
t-17 -32.5t-17 -25t-7.5 -16.5q0 -8 7 -8q5 0 16 12t22.5 32.5t20.5 46.5t9 53q0 37 -13.5 59t-33.5 22q-17 0 -26.5 -11t-9.5 -30z" />
    <glyph glyph-name="quoteleft" unicode="&#x2018;" horiz-adv-x="201" 
d="M129 648q-6 0 -17.5 -12.5t-23 -32.5t-20 -45.5t-8.5 -51.5q0 -38 13.5 -60t33.5 -22q17 0 27 11t10 30q0 14 -6.5 24t-17.5 13q-8 3 -14.5 3.5t-10.5 2.5t-6 6t-2 14q0 21 7.5 39t17 32.5t17 25t7.5 16.5q0 7 -7 7z" />
    <glyph glyph-name="quoteright" unicode="&#x2019;" horiz-adv-x="201" 
d="M60 608q0 -31 31 -39q14 -3 20 -5.5t6 -19.5q0 -20 -7.5 -38t-17 -32.5t-17 -25t-7.5 -16.5q0 -8 8 -8q5 0 16 12t22.5 32.5t20.5 46.5t9 53q0 37 -13.5 59t-33.5 22q-17 0 -27 -11t-10 -30z" />
    <glyph glyph-name="quotesinglbase" unicode="&#x201a;" horiz-adv-x="201" 
d="M60 48q0 -32 31 -40q14 -3 20 -5t6 -19q0 -20 -7.5 -38t-17 -33t-17 -25.5t-7.5 -16.5q0 -7 7 -7q6 0 17.5 12.5t23 33t20 46t8.5 52.5q0 37 -13.5 58.5t-33.5 21.5q-17 0 -27 -10.5t-10 -29.5z" />
    <glyph glyph-name="quotesingle" unicode="'" horiz-adv-x="169" 
d="M92 424l30 222q1 6 1 11v10q0 47 -39 47t-39 -48q0 -5 0.5 -10t1.5 -10l30 -222h15z" />
    <glyph glyph-name="r" unicode="r" horiz-adv-x="291" 
d="M125 434q0 11 -0.5 17.5t-5.5 6.5q-6 0 -18 -15.5t-35 -31.5q-13 -9 -23.5 -13.5t-10.5 -12.5q0 -7 6 -7t13.5 -1t14 -7t6.5 -24v-265q0 -26 -3.5 -38.5t-16.5 -17.5q-17 -6 -25 -6q-7 0 -7 -10q0 -7 3.5 -8.5t11.5 -1.5q12 0 28.5 2t36.5 2q31 0 53.5 -2.5t35.5 -2.5
q16 0 16 11q0 7 -3.5 8.5t-10.5 2t-17 1.5t-23 6q-15 6 -19 17t-4 37v165q0 42 6 72t16 49.5t21.5 28.5t22.5 9q12 0 20 -6t15.5 -13.5t15 -13.5t17.5 -6q13 0 23.5 12.5t10.5 32.5t-14 33.5t-39 13.5q-47 0 -89 -57l-18 -26q-4 -5 -7 -5q-4 0 -4 7v57z" />
    <glyph glyph-name="registered" unicode="&#xae;" horiz-adv-x="822" 
d="M412 672q-69 0 -131.5 -26t-110.5 -74q-49 -49 -74 -111t-25 -130q0 -69 25.5 -130.5t74.5 -109.5q49 -49 110 -74.5t128 -25.5q70 0 131.5 25.5t109.5 73.5q50 50 75.5 112t25.5 129q0 69 -26 131.5t-73 109.5q-48 48 -110.5 74t-129.5 26zM412 635q59 0 114 -23t97 -65
t65.5 -99t23.5 -117t-23 -114.5t-66 -99.5q-42 -44 -96.5 -66.5t-115.5 -22.5q-122 0 -211 89q-43 43 -66 97.5t-23 116.5q0 60 22.5 115t65.5 99q42 43 97.5 66.5t115.5 23.5zM229 532v-20q36 -1 50 -11t14 -38v-251q0 -28 -14 -38.5t-50 -11.5v-20h188v20
q-35 1 -49.5 11.5t-14.5 38.5v120q5 0 9 0.5t9 0.5q43 0 68.5 -15t36.5 -48q3 -11 3.5 -23.5t0.5 -26.5q0 -13 1.5 -26.5t7.5 -26.5q7 -16 23 -25t39 -9q76 0 76 86v6h-20q0 -64 -35 -64q-11 0 -16.5 6t-8 15.5t-4.5 23t-6 28.5q-11 42 -34 65.5t-69 38.5q72 14 106.5 36.5
t34.5 60.5q0 44 -40 70.5t-114 26.5h-192zM353 350v129q0 36 53 36q49 0 75 -22t26 -57q0 -41 -30.5 -63.5t-90.5 -22.5h-33z" />
    <glyph glyph-name="ring" unicode="&#x2da;" 
d="M136 617q0 -24 9 -44.5t24 -36t36 -24.5t45 -9t44.5 9t36 24.5t24.5 36t9 44.5t-9 44.5t-24.5 36t-36 24.5t-44.5 9t-45 -9t-36 -24t-24 -36t-9 -45zM176 617q0 31 21 53t53 22q31 0 53 -22t22 -53q0 -32 -21.5 -53t-53.5 -21t-53 21t-21 53z" />
    <glyph glyph-name="s" unicode="s" horiz-adv-x="320" 
d="M175 458q-65 0 -101 -36t-36 -93q0 -44 26.5 -71t81.5 -53q45 -21 67 -43.5t22 -62.5q0 -45 -25.5 -72.5t-67.5 -27.5q-37 0 -54.5 18.5t-27.5 54.5q-9 35 -11.5 50.5t-11.5 15.5q-11 0 -11 -17q0 -35 -1 -56.5t-1 -29.5q0 -12 10 -21.5t25.5 -17t35 -11.5t39.5 -4
q71 0 110 41t39 112q0 31 -8.5 51.5t-23.5 35.5t-36 27t-47 25q-40 20 -60 39.5t-20 54.5q0 33 20 53.5t49 20.5q21 0 40 -11t32 -33t14 -34.5t10 -12.5t9 20v41q0 10 -2 18.5t-10.5 15t-26 10t-48.5 3.5z" />
    <glyph glyph-name="section" unicode="&#xa7;" horiz-adv-x="400" 
d="M198 427q-30 32 -47.5 58.5t-17.5 62.5q0 39 21 62.5t53 23.5q24 0 40.5 -12.5t16.5 -25.5q0 -6 -4.5 -12.5t-9.5 -13.5t-9.5 -15.5t-4.5 -18.5q0 -16 9 -26t23 -10q16 0 25.5 13t9.5 37q0 42 -28 70t-69 28q-48 0 -77 -33.5t-29 -85.5q0 -38 19 -73.5t57 -73.5
q-8 1 -12.5 1.5t-6.5 0.5q-18 0 -34 -8.5t-28.5 -23.5t-20 -36t-7.5 -46q0 -39 17 -75t51 -73l69 -75q27 -29 44 -55.5t17 -60.5q0 -42 -20 -64.5t-58 -22.5q-26 0 -45.5 11.5t-19.5 25.5q0 6 4 12t8.5 13t8.5 16t4 21q0 35 -29 35q-35 0 -35 -47q0 -42 29 -71.5t76 -29.5
q49 0 80 33.5t31 84.5q0 35 -19 72.5t-58 72.5q3 0 6 -0.5t6 -0.5q44 0 71.5 33.5t27.5 87.5q0 36 -16.5 70t-50.5 71zM162 370q21 0 39.5 -15t43.5 -44q29 -35 45 -63.5t16 -57.5q0 -36 -19 -59t-49 -23q-28 0 -50.5 20.5t-53.5 60.5q-20 26 -31 49.5t-11 49.5q0 36 20 59
t50 23z" />
    <glyph glyph-name="semicolon" unicode=";" horiz-adv-x="219" 
d="M108 374q-15 0 -25 -13.5t-10 -37.5q0 -25 10 -38t25 -13t25 13t10 38q0 24 -9.5 37.5t-25.5 13.5zM69 39q0 -15 6 -26.5t17 -16.5q8 -4 14.5 -5t10.5 -3.5t6 -6.5t2 -14q0 -24 -9.5 -45.5t-20.5 -39t-20.5 -29.5t-9.5 -18q0 -11 8 -11q5 0 18.5 14.5t27.5 38t25 54.5
t11 64q0 45 -13.5 68.5t-35.5 23.5q-15 0 -26 -13.5t-11 -34.5z" />
    <glyph glyph-name="semicolon" unicode="&#x37e;" horiz-adv-x="219" 
d="M108 374q-15 0 -25 -13.5t-10 -37.5q0 -25 10 -38t25 -13t25 13t10 38q0 24 -9.5 37.5t-25.5 13.5zM69 39q0 -15 6 -26.5t17 -16.5q8 -4 14.5 -5t10.5 -3.5t6 -6.5t2 -14q0 -24 -9.5 -45.5t-20.5 -39t-20.5 -29.5t-9.5 -18q0 -11 8 -11q5 0 18.5 14.5t27.5 38t25 54.5
t11 64q0 45 -13.5 68.5t-35.5 23.5q-15 0 -26 -13.5t-11 -34.5z" />
    <glyph glyph-name="seven" unicode="7" horiz-adv-x="402" 
d="M181 626q-64 0 -96.5 2t-37.5 2q-14 0 -16 -5.5t-2 -16.5t1 -26.5t6 -35.5q24 8 51 10.5t59 2.5h116q62 0 62 -14q0 -17 -23 -83l-125 -358q-23 -65 -35.5 -98.5t-12.5 -38.5q0 -8 11 -8q14 0 17 7q2 6 17 53t47 138l107 304q26 73 42.5 111.5t16.5 46.5q0 10 -18 10
q-4 0 -28 -1.5t-72 -1.5h-87z" />
    <glyph glyph-name="six" unicode="6" horiz-adv-x="402" 
d="M357 717q-4 0 -19 -5.5t-36.5 -17t-48.5 -29.5t-55 -43q-167 -153 -167 -360q0 -60 14.5 -111.5t39.5 -89t57 -58.5t68 -21q33 0 62.5 17.5t51.5 47.5t35 70.5t13 87.5q0 45 -11.5 82.5t-30.5 65t-44.5 42.5t-53.5 15q-19 0 -35.5 -7.5t-28.5 -18t-19 -22t-7 -18.5
q0 -9 8 -9q5 0 10 6t12.5 13.5t19.5 14t30 6.5q19 0 36 -13t30 -37.5t20.5 -60t7.5 -80.5q0 -85 -28.5 -130.5t-73.5 -45.5q-26 0 -49 18.5t-40.5 52t-27.5 79t-10 99.5q0 129 48.5 228t134.5 159q22 15 40 24t31 15t20 10.5t7 11.5q0 5 -3 8.5t-8 3.5z" />
    <glyph glyph-name="slash" unicode="/" horiz-adv-x="278" 
d="M15 -93l308 741h-33l-308 -741h33z" />
    <glyph glyph-name="Aacute" unicode="&#xc1;" horiz-adv-x="459" 
d="M252 591q-8 26 -11.5 41.5t-14.5 15.5q-8 0 -10 -6.5t-6 -17.5l-147 -491q-11 -36 -18.5 -58.5t-15.5 -32.5q-9 -10 -19 -12.5t-18.5 -4t-14 -3.5t-5.5 -11q0 -13 16 -13q13 0 29.5 3.5t36.5 3.5q27 0 46.5 -4t30.5 -4q18 0 18 12q0 11 -10.5 15t-32.5 7q-14 2 -21.5 7.5
t-7.5 20.5q0 16 7 41l32 120q2 7 6 10.5t9 3.5h151q10 0 13 -12l39 -125q5 -17 6.5 -29.5t1.5 -15.5q0 -16 -8.5 -18.5t-28.5 -4.5q-32 -2 -32 -17q0 -8 5 -10t16 -2q17 0 36 2.5t42 2.5q40 0 63 -3t31 -3q20 0 20 13q0 6 -4.5 8.5t-10.5 3.5t-13 2t-13 4q-14 8 -23.5 29
t-21.5 59zM209 489l67 -206q1 -2 1 -7q0 -10 -11 -10h-123q-9 0 -9 7q0 2 2 8l61 209q3 8 6 8t6 -9zM308 817q18 18 18 34q0 11 -6.5 18.5t-14.5 7.5t-14 -6.5t-14 -18.5l-95 -150h20z" />
    <glyph glyph-name="sterling" unicode="&#xa3;" horiz-adv-x="402" 
d="M210 339q-27 49 -47.5 88.5t-20.5 83.5q0 24 6.5 44.5t18 35.5t26 23.5t29.5 8.5q18 0 30.5 -12t22 -26.5t16.5 -26.5t15 -12q4 0 8 5.5t7.5 13.5t6 18t2.5 18q0 9 -7.5 17t-20 14.5t-28.5 10t-32 3.5q-29 0 -56 -14.5t-47 -39t-32 -57t-12 -68.5q0 -38 13.5 -77
t41.5 -77h-87q-2 -5 -3 -9t-1 -8l2 -8h103q45 -68 45 -125q0 -13 -3 -24t-8 -23q-68 48 -108 48q-39 0 -64.5 -25t-25.5 -63q0 -36 21.5 -58.5t56.5 -22.5q53 0 110 63q26 -31 46.5 -46.5t47.5 -15.5q16 0 35 12.5t35 33.5t26.5 48t10.5 56q0 32 -14 50t-32 18
q-14 0 -22 -9.5t-8 -26.5q0 -26 24 -34q13 -5 20.5 -10.5t7.5 -22.5q0 -22 -15 -41.5t-38 -19.5q-18 0 -39.5 14.5t-53.5 40.5q15 34 23 62.5t8 52.5q0 35 -15 68h85q3 9 3 11q0 10 -1 14h-97zM172 75q-15 -28 -33.5 -42t-36.5 -14q-19 0 -33 17t-14 47q0 27 11.5 42.5
t28.5 15.5q20 0 37 -16.5t40 -49.5z" />
    <glyph glyph-name="t" unicode="t" horiz-adv-x="256" 
d="M126 508v16q0 12 -4 12q-7 0 -14.5 -19t-29.5 -45t-37.5 -37.5t-15.5 -19.5q0 -9 15 -9h15q9 0 11.5 -3.5t2.5 -13.5l-3 -239v-47q0 -60 21.5 -91t60.5 -31q19 0 36.5 9t31 20.5t21 23t7.5 16.5q0 8 -4 8q-3 0 -9 -6t-14.5 -12.5t-19.5 -12.5t-24 -6q-48 0 -48 76v292
q0 10 2.5 13.5t11.5 3.5h75q8 0 10.5 4t2.5 13v4q0 8 -2 10.5t-11 2.5h-74q-9 0 -11.5 3.5t-2.5 13.5v51z" />
    <glyph glyph-name="three" unicode="3" horiz-adv-x="402" 
d="M230 425q38 26 55.5 54t17.5 62q0 45 -32 76t-89 31q-27 0 -51 -11.5t-42.5 -28t-29 -34.5t-10.5 -31q0 -10 7 -10q6 0 14.5 13t21 29t31.5 29t47 13q31 0 51 -21.5t20 -56.5q0 -43 -26.5 -74.5t-72.5 -67.5t-71 -57t-25 -34q0 -6 3.5 -10t7.5 -4q2 0 9 7.5t20 16.5
t32.5 16.5t46.5 7.5q28 0 51.5 -12t40.5 -34.5t26.5 -53.5t9.5 -69q0 -53 -17 -95t-42.5 -71t-54 -44.5t-51.5 -15.5q-16 0 -25 11t-15.5 24.5t-14.5 25t-22 11.5t-22 -10t-8 -27q0 -28 22 -47t60 -19q43 0 87 23.5t80 63t59 92t23 110.5q0 42 -11 75.5t-30 57t-44.5 36.5
t-54.5 13h-24q-8 0 -8 3t15 13z" />
    <glyph glyph-name="tilde" unicode="&#x2dc;" 
d="M344 643q-7 -43 -36 -43q-7 0 -22 5l-45 17q-22 8 -36 8q-24 0 -41.5 -22.5t-24.5 -67.5h16q5 24 13.5 34t25.5 10q2 0 8 -1t15 -5l46 -17q9 -3 16 -5t14 -2q53 0 68 89h-17z" />
    <glyph glyph-name="trademark" unicode="&#x2122;" horiz-adv-x="822" 
d="M127 700l-5 -85h12q6 74 67 74h11v-208q0 -12 -6 -19.5t-16 -7.5l-16 -1v-12h120v12l-16 1q-11 0 -17 7.5t-6 19.5v208h11q61 0 68 -74h12l-5 85h-214zM388 700v-11l15 -1q11 0 17.5 -7.5t6.5 -19.5v-181q0 -12 -6 -19.5t-17 -7.5h-16v-12h97v12l-16 1q-11 0 -17 7.5
t-6 19.5v195l85 -237h6l89 237v-195q0 -12 -6 -19.5t-17 -7.5l-16 -1v-12h114v12l-15 1q-11 0 -17 7.5t-6 19.5v180q0 12 6 19.5t17 7.5l15 1v11h-82l-75 -198l-70 198h-86z" />
    <glyph glyph-name="two" unicode="2" horiz-adv-x="402" 
d="M113 119q39 61 79.5 106t72.5 83q38 45 59 87t21 93q0 34 -11.5 63.5t-32 51t-48 33.5t-59.5 12q-67 0 -116 -55q-20 -22 -30 -45t-10 -31q0 -13 7 -13q11 0 15 13.5t15 30.5q40 63 100 63q45 0 73 -34.5t28 -95.5q0 -35 -11.5 -70t-32.5 -73t-50 -80.5t-63 -93.5
q-45 -66 -68.5 -104t-23.5 -54q0 -6 25 -6h183q30 0 52.5 -2.5t36.5 -2.5t17 8t3 33l1 101q0 8 -1 13.5t-6 5.5q-8 0 -10 -15t-8 -35q-5 -14 -15 -20t-33 -6h-168q-11 0 -11 4q0 2 5 10z" />
    <glyph glyph-name="u" unicode="u" horiz-adv-x="450" 
d="M128 408q0 22 -2.5 27t-13.5 5q-8 0 -16.5 -1t-19.5 -1q-21 0 -32.5 1t-13.5 1q-5 0 -7.5 -1.5t-2.5 -8.5q0 -8 8 -9t18 -4t18 -11t8 -28v-216q0 -32 3 -61t17 -56q14 -30 41.5 -47t61.5 -17q25 0 45.5 9.5t40.5 27.5q20 17 28 31.5t12 14.5q3 0 3 -12v-47
q0 -11 1.5 -17.5t7.5 -6.5q8 0 19 9.5t29 19.5q15 8 26 12.5t11 12.5q0 7 -7 7q-6 0 -13.5 1t-13.5 8t-6 28v329q0 21 -2 26.5t-13 5.5q-5 0 -17 -1t-29 -1q-15 0 -24 1t-13 1q-5 0 -7.5 -1.5t-2.5 -8.5q0 -8 8 -9t18 -4t18 -11t8 -28v-182q0 -87 -24 -130.5t-78 -43.5
q-52 0 -72 39t-20 117v230z" />
    <glyph glyph-name="uacute" unicode="&#xfa;" horiz-adv-x="450" 
d="M128 408q0 22 -2.5 27t-13.5 5q-8 0 -16.5 -1t-19.5 -1q-21 0 -32.5 1t-13.5 1q-5 0 -7.5 -1.5t-2.5 -8.5q0 -8 8 -9t18 -4t18 -11t8 -28v-216q0 -32 3 -61t17 -56q14 -30 41.5 -47t61.5 -17q25 0 45.5 9.5t40.5 27.5q20 17 28 31.5t12 14.5q3 0 3 -12v-47
q0 -11 1.5 -17.5t7.5 -6.5q8 0 19 9.5t29 19.5q15 8 26 12.5t11 12.5q0 7 -7 7q-6 0 -13.5 1t-13.5 8t-6 28v329q0 21 -2 26.5t-13 5.5q-5 0 -17 -1t-29 -1q-15 0 -24 1t-13 1q-5 0 -7.5 -1.5t-2.5 -8.5q0 -8 8 -9t18 -4t18 -11t8 -28v-182q0 -87 -24 -130.5t-78 -43.5
q-52 0 -72 39t-20 117v230zM303 627q18 18 18 34q0 11 -6.5 18.5t-14.5 7.5t-14 -6.5t-14 -18.5l-95 -150h20z" />
    <glyph glyph-name="ucircumflex" unicode="&#xfb;" horiz-adv-x="450" 
d="M128 408q0 22 -2.5 27t-13.5 5q-8 0 -16.5 -1t-19.5 -1q-21 0 -32.5 1t-13.5 1q-5 0 -7.5 -1.5t-2.5 -8.5q0 -8 8 -9t18 -4t18 -11t8 -28v-216q0 -32 3 -61t17 -56q14 -30 41.5 -47t61.5 -17q25 0 45.5 9.5t40.5 27.5q20 17 28 31.5t12 14.5q3 0 3 -12v-47
q0 -11 1.5 -17.5t7.5 -6.5q8 0 19 9.5t29 19.5q15 8 26 12.5t11 12.5q0 7 -7 7q-6 0 -13.5 1t-13.5 8t-6 28v329q0 21 -2 26.5t-13 5.5q-5 0 -17 -1t-29 -1q-15 0 -24 1t-13 1q-5 0 -7.5 -1.5t-2.5 -8.5q0 -8 8 -9t18 -4t18 -11t8 -28v-182q0 -87 -24 -130.5t-78 -43.5
q-52 0 -72 39t-20 117v230zM207 683l-87 -171h19l87 114l87 -114h19l-87 171h-38z" />
    <glyph glyph-name="udieresis" unicode="&#xfc;" horiz-adv-x="450" 
d="M128 408q0 22 -2.5 27t-13.5 5q-8 0 -16.5 -1t-19.5 -1q-21 0 -32.5 1t-13.5 1q-5 0 -7.5 -1.5t-2.5 -8.5q0 -8 8 -9t18 -4t18 -11t8 -28v-216q0 -32 3 -61t17 -56q14 -30 41.5 -47t61.5 -17q25 0 45.5 9.5t40.5 27.5q20 17 28 31.5t12 14.5q3 0 3 -12v-47
q0 -11 1.5 -17.5t7.5 -6.5q8 0 19 9.5t29 19.5q15 8 26 12.5t11 12.5q0 7 -7 7q-6 0 -13.5 1t-13.5 8t-6 28v329q0 21 -2 26.5t-13 5.5q-5 0 -17 -1t-29 -1q-15 0 -24 1t-13 1q-5 0 -7.5 -1.5t-2.5 -8.5q0 -8 8 -9t18 -4t18 -11t8 -28v-182q0 -87 -24 -130.5t-78 -43.5
q-52 0 -72 39t-20 117v230zM88 588q0 -19 12.5 -31t30.5 -12t30.5 12t12.5 31q0 17 -13 30t-30 13t-30 -13t-13 -30zM278 588q0 -19 12.5 -31t30.5 -12t30.5 12t12.5 31q0 17 -13 30t-30 13t-30 -13t-13 -30z" />
    <glyph glyph-name="ugrave" unicode="&#xf9;" horiz-adv-x="450" 
d="M128 408q0 22 -2.5 27t-13.5 5q-8 0 -16.5 -1t-19.5 -1q-21 0 -32.5 1t-13.5 1q-5 0 -7.5 -1.5t-2.5 -8.5q0 -8 8 -9t18 -4t18 -11t8 -28v-216q0 -32 3 -61t17 -56q14 -30 41.5 -47t61.5 -17q25 0 45.5 9.5t40.5 27.5q20 17 28 31.5t12 14.5q3 0 3 -12v-47
q0 -11 1.5 -17.5t7.5 -6.5q8 0 19 9.5t29 19.5q15 8 26 12.5t11 12.5q0 7 -7 7q-6 0 -13.5 1t-13.5 8t-6 28v329q0 21 -2 26.5t-13 5.5q-5 0 -17 -1t-29 -1q-15 0 -24 1t-13 1q-5 0 -7.5 -1.5t-2.5 -8.5q0 -8 8 -9t18 -4t18 -11t8 -28v-182q0 -87 -24 -130.5t-78 -43.5
q-52 0 -72 39t-20 117v230zM180 662q-8 12 -14 18.5t-14 6.5t-14.5 -7.5t-6.5 -18.5q0 -16 18 -34l106 -115h20z" />
    <glyph glyph-name="underscore" unicode="_" 
d="M0 -187v-49h500v49h-500z" />
    <glyph glyph-name="v" unicode="v" horiz-adv-x="360" 
d="M117 345q-5 17 -8 29.5t-3 23.5q0 10 7.5 13.5t16 6t16 4.5t7.5 9q0 6 -3 7.5t-8 1.5q-4 0 -21 -1.5t-49 -1.5q-28 0 -45.5 1.5t-22.5 1.5h-4q-5 0 -6 -1.5t-1 -7.5q0 -9 5.5 -10t13 -3t15.5 -7.5t14 -23.5l120 -380q2 -8 4 -12t8 -4q5 0 7.5 5t5.5 14l123 338
q11 32 20 46t23 20t20.5 6.5t6.5 10.5q0 7 -2 8t-8 1q-2 0 -15 -1.5t-40 -1.5q-32 0 -47.5 1.5t-18.5 1.5q-5 0 -7.5 -1.5t-2.5 -7.5q0 -8 8.5 -10t18 -3.5t18 -6t8.5 -17.5q0 -14 -3 -27t-8 -27l-81 -232q-3 -9 -6 -9t-6 7z" />
    <glyph glyph-name="w" unicode="w" horiz-adv-x="566" 
d="M319 345q-6 17 -9 32.5t-3 21.5q0 9 7.5 12.5t16.5 5.5t16.5 4.5t7.5 9.5q0 10 -14 10q-5 0 -40.5 -2.5t-107.5 -2.5q-94 0 -138 2.5t-49 2.5q-13 0 -13 -13q0 -6 5.5 -7t13.5 -3t16.5 -8t13.5 -22l123 -377q3 -9 4.5 -14.5t8.5 -5.5q8 0 14 19l84 253q4 12 7 12
q2 0 7 -12l90 -253q3 -9 5 -14t9 -5q8 0 14 19l99 338q10 36 22 50t22.5 18t17 4.5t6.5 10.5t-10 10q-3 0 -16 -2t-38 -2q-26 0 -40.5 2t-18.5 2q-12 0 -12 -10q0 -8 8.5 -10t18 -3.5t18 -6t8.5 -17.5q0 -12 -3 -25t-8 -29l-67 -227q-3 -10 -6 -10q-2 0 -7 11zM257 272
l-52 -160q-5 -12 -9 -12q-3 0 -7 13l-76 232q-6 20 -8.5 33.5t-2.5 19.5q0 13 15.5 16.5t47.5 3.5q31 0 48 -3.5t27 -17.5q4 -7 9 -17.5t8.5 -22t6 -22t2.5 -16.5q0 -7 -2 -19t-7 -28z" />
    <glyph glyph-name="x" unicode="x" horiz-adv-x="367" 
d="M130 371q-13 24 -13 30q0 8 7.5 11.5t16 5t16 4t7.5 9.5t-4 8.5t-12 1.5q-4 0 -25.5 -2t-60.5 -2q-26 0 -40.5 2t-19.5 2q-8 0 -10 -1.5t-2 -8.5q0 -6 2 -8t6.5 -3t11.5 -3t17 -8q15 -9 27 -27t28 -44l65 -106q5 -10 5 -12q0 -7 -4 -12l-73 -116q-16 -26 -29.5 -43
t-30.5 -23t-27 -6t-10 -11q0 -6 2.5 -7.5t7.5 -1.5q4 0 19.5 1.5t44.5 1.5q23 0 39 -1.5t25 -1.5q6 0 7.5 1.5t1.5 7.5q0 7 -6.5 9.5t-14 4.5t-14 5.5t-6.5 14.5q0 5 4.5 19.5t15.5 31.5l54 88q7 12 8 12q3 0 9 -10l68 -115q13 -22 13 -30t-9 -11t-19.5 -5t-19.5 -4.5
t-9 -9.5q0 -10 12 -10q5 0 20 2.5t41 2.5q42 0 63.5 -2.5t25.5 -2.5q7 0 9 1.5t2 8.5q0 6 -2 8t-6 3t-10 3t-15 8q-12 8 -24 25.5t-27 43.5l-80 137q-2 5 -4 7.5t-2 4.5q0 3 5 11l55 88q24 37 43 51.5t32.5 18.5t20.5 4q8 0 8 9q0 10 -14 10t-31.5 -2.5t-40.5 -2.5
q-21 0 -34.5 2.5t-20.5 2.5q-8 0 -10.5 -1.5t-2.5 -8.5q0 -8 6.5 -10t14 -4t14 -6t6.5 -15q0 -6 -4.5 -19.5t-15.5 -30.5l-37 -61q-7 -10 -9 -10q-5 0 -11 11z" />
    <glyph glyph-name="y" unicode="y" horiz-adv-x="360" 
d="M309 348q10 29 19 44t20 20q17 8 24 8t7 11q0 10 -11 10q-3 0 -17 -2t-38 -2q-26 0 -41 2t-19 2q-8 0 -11.5 -1.5t-3.5 -8.5q0 -8 8.5 -10t18 -3.5t18 -6t8.5 -17.5q0 -16 -3.5 -29t-7.5 -25l-76 -235q-5 -14 -9 -14q-3 0 -7 13l-71 241q-5 17 -8 29.5t-3 23.5
q0 9 7.5 13t16 6t16 4.5t7.5 9.5q0 10 -13 10q-8 0 -27 -2t-51 -2q-25 0 -38.5 2t-18.5 2q-7 0 -9.5 -1.5t-2.5 -8.5q0 -8 5.5 -9.5t13.5 -3.5t16 -8t14 -23l113 -357q7 -21 7 -29q0 -9 -5.5 -37.5t-20.5 -71.5q-7 -19 -11 -29t-12 -11q-14 -2 -25 -2q-10 0 -17.5 -3
t-11.5 -10t-4 -23q0 -17 7.5 -25.5t25.5 -8.5q17 0 26 2.5t13.5 9.5t7 18t7.5 28q2 8 19.5 75t63.5 197z" />
    <glyph glyph-name="ydieresis" unicode="&#xff;" horiz-adv-x="360" 
d="M309 348q10 29 19 44t20 20q17 8 24 8t7 11q0 10 -11 10q-3 0 -17 -2t-38 -2q-26 0 -41 2t-19 2q-8 0 -11.5 -1.5t-3.5 -8.5q0 -8 8.5 -10t18 -3.5t18 -6t8.5 -17.5q0 -16 -3.5 -29t-7.5 -25l-76 -235q-5 -14 -9 -14q-3 0 -7 13l-71 241q-5 17 -8 29.5t-3 23.5
q0 9 7.5 13t16 6t16 4.5t7.5 9.5q0 10 -13 10q-8 0 -27 -2t-51 -2q-25 0 -38.5 2t-18.5 2q-7 0 -9.5 -1.5t-2.5 -8.5q0 -8 5.5 -9.5t13.5 -3.5t16 -8t14 -23l113 -357q7 -21 7 -29q0 -9 -5.5 -37.5t-20.5 -71.5q-7 -19 -11 -29t-12 -11q-14 -2 -25 -2q-10 0 -17.5 -3
t-11.5 -10t-4 -23q0 -17 7.5 -25.5t25.5 -8.5q17 0 26 2.5t13.5 9.5t7 18t7.5 28q2 8 19.5 75t63.5 197zM43 588q0 -19 12.5 -31t30.5 -12t30.5 12t12.5 31q0 17 -13 30t-30 13t-30 -13t-13 -30zM233 588q0 -19 12.5 -31t30.5 -12t30.5 12t12.5 31q0 17 -13 30t-30 13
t-30 -13t-13 -30z" />
    <glyph glyph-name="yen" unicode="&#xa5;" horiz-adv-x="507" 
d="M153 531q-8 15 -11.5 28t-3.5 18q0 11 7 14.5t15.5 5.5t15.5 5t7 13q0 13 -11 13q-3 0 -16 -1.5t-36 -1.5q-42 0 -66.5 2.5t-32.5 2.5t-13 -4.5t-5 -10.5q0 -12 11 -11t21 -3q19 -8 39 -47l76 -142h-135v-25h149l42 -78h-191v-25h205l4 -9v-181q0 -17 -1 -29.5t-6.5 -20
t-17 -11t-32.5 -3.5q-13 0 -13 -14q0 -16 21 -16q13 0 32 2.5t45 2.5q28 0 47.5 -2.5t31.5 -2.5q22 0 22 14q0 9 -4 12t-10 3.5t-14 1t-17 3.5q-17 6 -21 15t-4 28v207h209v25h-196l42 78h154v25h-139l76 141q8 15 16 26.5t25 16.5q14 4 24 5t10 15q0 13 -13 13
q-5 0 -18.5 -2.5t-35.5 -2.5q-27 0 -44.5 3t-25.5 3q-15 0 -15 -12q0 -11 8.5 -13.5t19 -4t19 -5.5t8.5 -17q0 -3 -6 -21.5t-22 -47.5l-100 -181q-4 -7 -8 -7q-5 0 -7 5z" />
    <glyph glyph-name="z" unicode="z" horiz-adv-x="344" 
d="M308 406q10 16 10 25q0 5 -4.5 7.5t-9.5 2.5q-7 0 -36 -2t-82 -2q-55 0 -83 2t-32 12q-4 9 -2.5 19.5t-8.5 10.5q-9 0 -11 -11.5t-8 -33.5q-9 -30 -15.5 -49t-6.5 -28t8 -9q5 0 9 5t8 12t9.5 15.5t14.5 15.5q16 13 36.5 16.5t49.5 3.5h18l60 -2q7 0 9.5 -0.5t2.5 -5.5
q0 -2 -2 -6l-222 -371q-6 -10 -9.5 -16t-3.5 -11q0 -8 14 -8q6 0 19.5 1t33.5 1h174q17 0 30.5 -1.5t24.5 -1.5t14.5 3.5t3.5 11.5q0 4 -0.5 7.5t-0.5 8.5q0 33 1.5 53.5t1.5 28.5q0 11 -8 11q-5 0 -7 -4.5t-3.5 -13t-5 -20t-11.5 -25.5q-13 -23 -37 -30t-67 -7h-90
q-10 0 -10 6q0 1 3 6z" />
    <glyph glyph-name="zero" unicode="0" horiz-adv-x="402" 
d="M201 648q-35 0 -66.5 -21.5t-55 -64t-37.5 -104.5t-14 -143t14 -143.5t37.5 -104.5t55 -64t66.5 -22t66.5 22t55 64t37.5 104.5t14 143.5t-14 143t-37.5 104.5t-55 64t-66.5 21.5zM201 623q58 0 84 -76.5t26 -231.5t-25.5 -232t-84.5 -77q-58 0 -84 77t-26 232t26 231.5
t84 76.5z" />
    <glyph glyph-name="A" unicode="A" horiz-adv-x="459" 
d="M252 591q-8 26 -11.5 41.5t-14.5 15.5q-8 0 -10 -6.5t-6 -17.5l-147 -491q-11 -36 -18.5 -58.5t-15.5 -32.5q-9 -10 -19 -12.5t-18.5 -4t-14 -3.5t-5.5 -11q0 -13 16 -13q13 0 29.5 3.5t36.5 3.5q27 0 46.5 -4t30.5 -4q18 0 18 12q0 11 -10.5 15t-32.5 7q-14 2 -21.5 7.5
t-7.5 20.5q0 16 7 41l32 120q2 7 6 10.5t9 3.5h151q10 0 13 -12l39 -125q5 -17 6.5 -29.5t1.5 -15.5q0 -16 -8.5 -18.5t-28.5 -4.5q-32 -2 -32 -17q0 -8 5 -10t16 -2q17 0 36 2.5t42 2.5q40 0 63 -3t31 -3q20 0 20 13q0 6 -4.5 8.5t-10.5 3.5t-13 2t-13 4q-14 8 -23.5 29
t-21.5 59zM209 489l67 -206q1 -2 1 -7q0 -10 -11 -10h-123q-9 0 -9 7q0 2 2 8l61 209q3 8 6 8t6 -9z" />
    <glyph glyph-name="AE" unicode="&#xc6;" horiz-adv-x="693" 
d="M319 627q-14 0 -23 1.5t-13 1.5q-14 0 -14 -14t19 -14q17 0 17 -10q0 -5 -2 -9t-5 -9l-267 -490q-16 -29 -30 -39t-24.5 -13t-17 -5t-6.5 -13q0 -14 20 -14q6 0 23 1.5t44 1.5q20 0 36.5 -1.5t27.5 -1.5q26 0 26 16q0 10 -10 12t-22.5 3t-22.5 4t-10 16q0 5 4 21t15 37
l101 201q4 8 8 12.5t12 4.5h135q9 0 11 -4t2 -14v-215q0 -30 -4.5 -43.5t-27.5 -17.5q-22 -3 -37 -3q-14 0 -14 -14q0 -16 25 -16q14 0 51.5 3t99.5 3q81 0 128.5 -5t59.5 -5q16 0 20.5 6t6.5 29l8 94q1 8 1.5 12.5t0.5 5.5q0 2 -3 5t-6 3q-6 0 -9 -6t-6 -16t-8 -23t-14 -26
q-20 -29 -48 -41.5t-73 -12.5q-47 0 -65.5 16t-18.5 52v215q0 10 2.5 14t10.5 4h53q27 0 45.5 -9t26.5 -24q9 -19 12.5 -33.5t5 -25t3.5 -16t8 -5.5q10 0 10 17q0 4 -1 25.5t-1 63.5q0 41 2.5 65t2.5 32q0 18 -11 18q-6 0 -8.5 -5.5t-4 -14t-5 -19t-12.5 -20.5
q-18 -20 -72 -20h-48q-14 0 -16.5 2t-2.5 11v164q0 19 3.5 32.5t13 21t26 11t43.5 3.5q67 0 102 -48q9 -12 13.5 -24.5t7.5 -22t6.5 -15.5t9.5 -6q9 0 9 25v86q0 13 -1 20t-5 10t-12 3.5t-21 0.5q-8 0 -27.5 -1.5t-50.5 -1.5h-218zM356 552v-180q0 -10 -2.5 -13.5
t-11.5 -3.5h-118q-9 0 -9 6q0 2 3 8l109 202q12 22 19 22q9 0 9 -23q0 -2 0.5 -6.5t0.5 -11.5z" />
    <glyph glyph-name="Eth" unicode="&#xd0;" horiz-adv-x="588" 
d="M161 118v210h139v30h-139v196q0 15 2.5 25.5t11.5 18t26.5 11t46.5 3.5q53 0 96.5 -22t75 -61.5t49 -93.5t17.5 -118q0 -69 -16 -124t-46 -93t-73.5 -58t-98.5 -20q-27 0 -44.5 3.5t-28 14t-14.5 29.5t-4 49zM96 94q0 -16 -0.5 -26.5t-3.5 -17t-9.5 -10.5t-18.5 -7
q-7 -2 -14 -2t-12.5 -1t-9 -4t-3.5 -10q0 -16 22 -16q20 0 40.5 3.5t43.5 3.5t54.5 -5t72.5 -5q70 0 125.5 21.5t94 61.5t58.5 96.5t20 126.5q0 73 -21.5 135t-61.5 107t-96.5 70.5t-126.5 25.5q-31 0 -75 -5t-98 -16q-26 -5 -38.5 -11t-12.5 -18q0 -15 11 -15q9 0 18 4.5
t20 4.5q21 0 21 -33v-194h-92v-30h92v-234z" />
    <glyph glyph-name="Lslash" unicode="&#x141;" horiz-adv-x="389" 
d="M165 552q0 24 3.5 33.5t22.5 13.5q9 2 17 2.5t13.5 1.5t8.5 3.5t3 9.5q0 14 -14 14q-10 0 -32.5 -4t-58.5 -4q-33 0 -53.5 4t-31.5 4q-15 0 -15 -14q0 -8 3.5 -10.5t10 -3.5t14.5 -1q9 0 19 -3q15 -5 18 -13.5t3 -32.5v-240l-92 -80v-36l92 80v-182q0 -32 -4 -43.5
t-27 -17.5q-7 -2 -14 -2t-12.5 -1t-9 -4t-3.5 -10q0 -16 21 -16q9 0 39 3.5t83 3.5q63 0 110.5 -4.5t77.5 -4.5q16 0 18.5 5.5t4.5 27.5l9 94q1 8 1 13v5q0 2 -2.5 5t-5.5 3q-5 0 -8 -5.5t-6 -15t-7.5 -21.5t-13.5 -25q-40 -58 -112 -58q-23 0 -36.5 4.5t-21 13t-10 21
t-2.5 29.5v231l105 92v36l-105 -92v191z" />
    <glyph glyph-name="Scaron" unicode="&#x160;" horiz-adv-x="402" 
d="M47 474q0 -33 8 -57t24.5 -43t40 -35t55.5 -33q33 -18 57.5 -34t41.5 -35t25.5 -42.5t8.5 -56.5q0 -29 -9 -52.5t-25 -40.5t-38 -26.5t-49 -9.5q-40 0 -69.5 20t-43.5 56q-7 18 -9 34t-3 28.5t-3 20t-8 7.5q-14 0 -14 -34q0 -11 -0.5 -27t-0.5 -39q0 -22 3 -34.5
t15 -23.5q14 -13 47 -24.5t72 -11.5q40 0 75.5 15t61.5 42t41 64t15 82q0 36 -9.5 63.5t-27.5 50t-44.5 41.5t-60.5 37q-32 17 -55.5 32t-39.5 31.5t-23.5 35t-7.5 42.5q0 49 28.5 77t79.5 28q35 0 58.5 -18.5t38.5 -56.5q10 -24 12 -37.5t12 -13.5q11 0 11 20q0 90 -8 100
q-8 9 -41.5 20.5t-74.5 11.5q-38 0 -68.5 -12.5t-52.5 -35.5t-34 -55t-12 -71zM96 873l87 -171h38l87 171h-19l-87 -113l-87 113h-19z" />
    <glyph glyph-name="Thorn" unicode="&#xde;" horiz-adv-x="419" 
d="M161 536v7q0 26 4 37.5t24 16.5q7 2 14 2t12 1.5t8 4.5t3 11q0 14 -20 14q-8 0 -26 -2.5t-47 -2.5q-28 0 -48.5 2.5t-32.5 2.5q-18 0 -18 -14q0 -8 3.5 -10.5t9 -3.5t12.5 -1t15 -3q14 -5 16.5 -14t2.5 -32v-467q0 -22 -2.5 -32.5t-16.5 -17.5q-7 -3 -15 -3.5t-14.5 -1.5
t-11 -4t-4.5 -12q0 -14 19 -14q8 0 27.5 2.5t51.5 2.5t51.5 -2.5t27.5 -2.5q20 0 20 14q0 8 -3.5 11t-9 4t-13 1.5t-15.5 3.5q-18 6 -21 18t-3 42v54q0 19 7 19q5 0 14 -4.5t21.5 -9.5t27.5 -9.5t32 -4.5q27 0 51.5 13t43 36t30 54.5t11.5 68.5q0 86 -44.5 134t-125.5 48
q-22 0 -35.5 -5.5t-21.5 -5.5t-9.5 3t-1.5 9v42zM161 237v177q0 26 9.5 37.5t48.5 11.5q23 0 43.5 -11t36 -31t24.5 -48t9 -61q0 -30 -8.5 -55.5t-23 -43.5t-34 -28t-41.5 -10q-24 0 -37 5.5t-19 14.5t-7 19.5t-1 20.5v2z" />
    <glyph glyph-name="Yacute" unicode="&#xdd;" horiz-adv-x="451" 
d="M133 531q-8 16 -12 29t-4 18q0 10 7 14t16 6t16 5t7 12q0 13 -12 13q-3 0 -16 -1.5t-37 -1.5q-48 0 -73.5 2.5t-32.5 2.5q-19 0 -19 -16q0 -5 3.5 -7t8 -3t10.5 -1q5 0 10 -2q20 -8 40 -47l149 -280v-180q0 -17 -1 -29t-6.5 -20t-17 -11.5t-32.5 -3.5q-13 0 -13 -14
q0 -16 21 -16q11 0 31.5 2.5t51.5 2.5t51.5 -2.5t31.5 -2.5q22 0 22 14q0 9 -4 12t-10 3.5t-14 1t-17 3.5q-10 3 -15 7t-7.5 10t-3 15t-0.5 22v196l147 269q8 15 16 26.5t25 16.5q14 4 24 5t10 15q0 13 -13 13q-5 0 -19.5 -2.5t-37.5 -2.5q-29 0 -46 3t-25 3q-16 0 -16 -12
q0 -11 8.5 -13.5t19 -4t19 -5.5t8.5 -17q0 -4 -6.5 -22.5t-21.5 -46.5l-98 -178q-4 -7 -7 -7q-5 0 -8 6zM304 817q18 18 18 34q0 11 -6.5 18.5t-14.5 7.5t-14 -6.5t-14 -18.5l-95 -150h20z" />
    <glyph glyph-name="Zcaron" unicode="&#x17d;" horiz-adv-x="447" 
d="M417 613q2 4 2 7q0 10 -17 10q-8 0 -44 -3t-102 -3q-72 0 -111 2.5t-45 10.5q-4 5 -5 11.5t-1.5 12t-2.5 9.5t-9 4t-8 -5.5t-3 -13.5l-26 -121q-3 -14 -4 -21t-1 -9q0 -9 9 -9q6 0 10.5 8t10.5 20.5t15 27.5t25 30q17 17 46.5 20t74.5 3h31q65 0 65 -10q0 -2 -3 -8
l-316 -569q-3 -6 -3 -9q0 -10 18 -10q5 0 36 3.5t94 3.5q118 0 180.5 -3t73.5 -3q13 0 16 3t3 11v137q0 22 -9 22q-7 0 -8.5 -9.5t-3.5 -25t-7 -35t-19 -38.5q-11 -14 -24.5 -22t-31.5 -12t-41 -4.5t-53 -0.5h-44q-44 0 -65.5 2t-21.5 10q0 1 0.5 3.5t2.5 6.5zM119 873
l87 -171h38l87 171h-19l-87 -113l-87 113h-19z" />
    <glyph glyph-name="brokenbar" unicode="&#xa6;" 
d="M224 699v-370h53v370h-53zM224 199v-370h53v370h-53z" />
    <glyph glyph-name="eth" unicode="&#xf0;" horiz-adv-x="448" 
d="M97 703l-12 -18q57 -49 103 -100l-122 -87l12 -24l129 89q24 -26 47 -55t45 -64q-32 14 -69 14q-47 0 -84.5 -17t-64 -48t-41 -75t-14.5 -98q0 -53 14 -97t39 -75.5t60 -49t78 -17.5q97 0 151.5 66.5t54.5 185.5q0 97 -44.5 188t-132.5 170l120 86l-11 23l-129 -89
q-66 51 -129 92zM224 440q30 0 55.5 -16t43.5 -46t28.5 -73.5t10.5 -98.5q0 -98 -39 -152t-101 -54q-29 0 -53.5 15.5t-42.5 45t-28 71t-10 94.5q0 105 36.5 159.5t99.5 54.5z" />
    <glyph glyph-name="fraction" unicode="&#x2215;" horiz-adv-x="167" 
d="M300 648l-467 -667h33l467 667h-33z" />
    <glyph glyph-name="lslash" unicode="&#x142;" horiz-adv-x="206" 
d="M131 670q0 11 -0.5 16.5t-5.5 5.5t-18.5 -9.5t-39.5 -18.5q-16 -5 -28 -7t-12 -13q0 -9 7 -9q5 0 7.5 0.5t3.5 0.5q31 0 31 -45v-248l-72 -63v-29l72 63v-253q0 -20 -9 -27.5t-20 -10.5t-20 -4.5t-9 -9.5q0 -7 4 -8.5t13 -1.5q12 0 29.5 2t39.5 2q25 0 41 -2t24 -2
t11.5 1.5t3.5 8.5q0 8 -8.5 9.5t-18 4t-18 10t-8.5 28.5v294l73 63v30l-73 -63v285z" />
    <glyph glyph-name="minus" unicode="&#x2212;" horiz-adv-x="833" 
d="M124 322v-48h585v48h-585z" />
    <glyph glyph-name="multiply" unicode="&#xd7;" horiz-adv-x="833" 
d="M183 567l-34 -33l235 -236l-235 -235l34 -33l235 235l235 -235l34 33l-235 235l235 236l-34 33l-235 -235z" />
    <glyph glyph-name="onehalf" unicode="&#xbd;" horiz-adv-x="673" 
d="M159 611q0 9 1 14.5t1 7.5q0 7 -7 7q-5 0 -18.5 -9t-42.5 -21q-21 -8 -33.5 -11.5t-12.5 -11.5t8 -8q3 0 10.5 3.5t16 7.5t17.5 7.5t16 3.5q5 0 5 -9v-264q0 -16 -3.5 -24t-17.5 -10q-6 -1 -11 -1h-9h-5q-8 0 -12.5 -1t-4.5 -7q0 -9 12 -9q8 0 27 2t49 2q27 0 42.5 -1.5
t18.5 -1.5q13 0 13 8q0 6 -4.5 7.5t-11.5 1.5h-15q-8 0 -15 3q-10 4 -12 11.5t-2 21.5v281zM553 648l-467 -667h33l467 667h-33zM491 67q25 34 50.5 59t45.5 46q23 26 36.5 49.5t13.5 51.5q0 39 -27 64.5t-68 25.5q-42 0 -73 -31q-12 -12 -18.5 -25t-6.5 -17q0 -8 4 -8
q7 0 9.5 7.5t9.5 17.5q26 35 63 35q28 0 46 -19t18 -54q0 -39 -28 -80t-71 -97q-28 -37 -43 -58.5t-15 -30.5q0 -3 16 -3h115q19 0 33 -1.5t23 -1.5t11 4.5t2 18.5v57q0 10 -4 10q-5 0 -6 -8.5t-5 -19.5q-3 -8 -9.5 -11t-21.5 -3h-105q-7 0 -7 2q0 1 3 6z" />
    <glyph glyph-name="onequarter" unicode="&#xbc;" horiz-adv-x="673" 
d="M159 611q0 9 1 14.5t1 7.5q0 7 -7 7q-5 0 -18.5 -9t-42.5 -21q-21 -8 -33.5 -11.5t-12.5 -11.5t8 -8q3 0 10.5 3.5t16 7.5t17.5 7.5t16 3.5q5 0 5 -9v-264q0 -16 -3.5 -24t-17.5 -10q-6 -1 -11 -1h-9h-5q-8 0 -12.5 -1t-4.5 -7q0 -9 12 -9q8 0 27 2t49 2q27 0 42.5 -1.5
t18.5 -1.5q13 0 13 8q0 6 -4.5 7.5t-11.5 1.5h-15q-8 0 -15 3q-10 4 -12 11.5t-2 21.5v281zM553 648l-467 -667h33l467 667h-33zM627 383q8 11 8 14t-5 3q-2 0 -5.5 -1t-8.5 -3l-149 -214q-36 -51 -36 -60q0 -8 15 -8h116q8 0 9.5 -2.5t1.5 -9.5v-56q0 -13 -2.5 -19.5
t-10.5 -8.5q-14 -2 -22 -3t-8 -8q0 -8 12 -8q2 0 16 1.5t43 1.5q20 0 30 -1.5t12 -1.5q7 0 7 8q0 5 -2.5 6.5t-6.5 2t-9 1t-9 2.5q-8 4 -9.5 10.5t-1.5 17.5v56q0 5 1.5 8t7.5 3h30q7 0 7 6v8q0 5 -9 5h-27q-10 0 -10 13v118q0 5 -5 5q-13 0 -23.5 -4.5t-10.5 -15.5v-103
q0 -13 -9 -13h-113q20 32 41 63t43 61z" />
    <glyph glyph-name="onesuperior" unicode="&#xb9;" horiz-adv-x="265" 
d="M167 610q0 10 1 16t1 8q0 7 -8 7q-5 0 -19 -9.5t-45 -22.5q-22 -9 -35 -13t-13 -12q0 -9 9 -9q3 0 11 3.5t17 8t18 8.5t16 4q6 0 6 -10v-282q0 -17 -3.5 -25.5t-18.5 -10.5q-6 -2 -11 -2h-9h-6q-9 0 -13.5 -1t-4.5 -8q0 -9 13 -9q8 0 27.5 2t51.5 2q29 0 45 -1.5t19 -1.5
q13 0 13 8q0 6 -4.5 8t-11.5 2t-15.5 0.5t-16.5 3.5q-10 4 -12 12.5t-2 22.5v301z" />
    <glyph glyph-name="scaron" unicode="&#x161;" horiz-adv-x="320" 
d="M175 458q-65 0 -101 -36t-36 -93q0 -44 26.5 -71t81.5 -53q45 -21 67 -43.5t22 -62.5q0 -45 -25.5 -72.5t-67.5 -27.5q-37 0 -54.5 18.5t-27.5 54.5q-9 35 -11.5 50.5t-11.5 15.5q-11 0 -11 -17q0 -35 -1 -56.5t-1 -29.5q0 -12 10 -21.5t25.5 -17t35 -11.5t39.5 -4
q71 0 110 41t39 112q0 31 -8.5 51.5t-23.5 35.5t-36 27t-47 25q-40 20 -60 39.5t-20 54.5q0 33 20 53.5t49 20.5q21 0 40 -11t32 -33t14 -34.5t10 -12.5t9 20v41q0 10 -2 18.5t-10.5 15t-26 10t-48.5 3.5zM55 683l87 -171h38l87 171h-19l-87 -113l-87 113h-19z" />
    <glyph glyph-name="thorn" unicode="&#xfe;" horiz-adv-x="456" 
d="M125 670q0 22 -6 22q-4 0 -19 -9t-41 -20q-14 -5 -25 -7t-11 -12q0 -9 7 -9q5 0 7.5 0.5t3.5 0.5q31 0 31 -45v-750q0 -20 -8 -27.5t-18 -10.5t-18 -4.5t-8 -9.5q0 -10 14 -10q10 0 28.5 2t46.5 2q26 0 43 -2t26 -2q15 0 15 10q0 9 -10 10.5t-22.5 3.5t-22.5 9.5
t-10 28.5v172h5q26 -17 50.5 -24.5t53.5 -7.5q40 0 74 17t59 48.5t39.5 77t14.5 102.5q0 53 -12.5 96t-34 73.5t-51 47t-63.5 16.5q-31 0 -54 -12t-39.5 -26.5t-26.5 -26.5t-13 -12q-5 0 -5 9v279zM128 85v223q0 25 9.5 46t25 36.5t35.5 24t40 8.5q55 0 90.5 -53.5
t35.5 -154.5q0 -103 -38 -158.5t-98 -55.5q-21 0 -39 6.5t-31.5 17.5t-21.5 26.5t-8 33.5z" />
    <glyph glyph-name="threequarters" unicode="&#xbe;" horiz-adv-x="674" 
d="M145 515q46 29 46 65q0 25 -20.5 42.5t-55.5 17.5q-17 0 -32.5 -6.5t-27 -15.5t-18 -19.5t-6.5 -17.5q0 -6 4 -6t9 7.5t13.5 16.5t20 16.5t29.5 7.5q20 0 32.5 -12t12.5 -32q0 -24 -17 -42t-46 -38t-44.5 -31.5t-15.5 -19.5q0 -7 7 -7q1 0 5.5 4t12.5 9t20.5 9t29.5 4
q35 0 58 -26t23 -68q0 -30 -11 -53.5t-27 -40t-34 -25t-32 -8.5q-10 0 -15.5 6.5t-10 14t-9.5 14t-14 6.5q-19 0 -19 -21q0 -16 14 -26.5t38 -10.5q27 0 55 13t50.5 35.5t37 51.5t14.5 62q0 47 -26 74.5t-62 27.5h-16q-5 0 -5 1t10 8zM553 648l-467 -667h33l467 667h-33z
M627 383q8 11 8 14t-5 3q-2 0 -5.5 -1t-8.5 -3l-149 -214q-36 -51 -36 -60q0 -8 15 -8h116q8 0 9.5 -2.5t1.5 -9.5v-56q0 -13 -2.5 -19.5t-10.5 -8.5q-14 -2 -22 -3t-8 -8q0 -8 12 -8q2 0 16 1.5t43 1.5q20 0 30 -1.5t12 -1.5q7 0 7 8q0 5 -2.5 6.5t-6.5 2t-9 1t-9 2.5
q-8 4 -9.5 10.5t-1.5 17.5v56q0 5 1.5 8t7.5 3h30q7 0 7 6v8q0 5 -9 5h-27q-10 0 -10 13v118q0 5 -5 5q-13 0 -23.5 -4.5t-10.5 -15.5v-103q0 -13 -9 -13h-113q20 32 41 63t43 61z" />
    <glyph glyph-name="threesuperior" unicode="&#xb3;" horiz-adv-x="265" 
d="M152 507q48 31 48 70q0 26 -21 45t-59 19q-18 0 -34 -7t-28 -16.5t-19 -20.5t-7 -19q0 -6 5 -6q4 0 9.5 8t14 17t21 17t30.5 8q20 0 33.5 -12.5t13.5 -34.5q0 -26 -17.5 -44.5t-47.5 -40.5q-31 -22 -47.5 -34t-16.5 -20q0 -9 8 -9q1 0 5.5 4.5t13 10t21.5 10t31 4.5
q37 0 60.5 -28t23.5 -73q0 -32 -11.5 -57t-28 -42.5t-35.5 -27t-34 -9.5q-11 0 -16.5 6.5t-10 15t-9.5 15t-14 6.5q-20 0 -20 -22q0 -17 14 -28.5t40 -11.5q28 0 57 14t53 38t39 55.5t15 66.5q0 50 -27 79.5t-65 29.5h-16q-5 0 -5 2q0 1 10 8z" />
    <glyph glyph-name="twosuperior" unicode="&#xb2;" horiz-adv-x="265" 
d="M75 323q26 37 52.5 64t47.5 50q25 27 39 52.5t14 55.5q0 42 -28.5 69t-71.5 27q-44 0 -77 -33q-13 -14 -19.5 -27.5t-6.5 -18.5q0 -8 5 -8q7 0 9.5 8t10.5 19q26 38 66 38q29 0 47.5 -21t18.5 -57q0 -42 -29 -86t-74 -105q-29 -39 -45 -62t-16 -32q0 -4 16 -4h121
q20 0 34.5 -1.5t24.5 -1.5q9 0 11 5t2 20l1 60q0 12 -5 12t-6.5 -9t-5.5 -21q-3 -9 -9.5 -12.5t-21.5 -3.5h-111q-8 0 -8 2t1 3l3 3z" />
    <glyph glyph-name="yacute" unicode="&#xfd;" horiz-adv-x="360" 
d="M309 348q10 29 19 44t20 20q17 8 24 8t7 11q0 10 -11 10q-3 0 -17 -2t-38 -2q-26 0 -41 2t-19 2q-8 0 -11.5 -1.5t-3.5 -8.5q0 -8 8.5 -10t18 -3.5t18 -6t8.5 -17.5q0 -16 -3.5 -29t-7.5 -25l-76 -235q-5 -14 -9 -14q-3 0 -7 13l-71 241q-5 17 -8 29.5t-3 23.5
q0 9 7.5 13t16 6t16 4.5t7.5 9.5q0 10 -13 10q-8 0 -27 -2t-51 -2q-25 0 -38.5 2t-18.5 2q-7 0 -9.5 -1.5t-2.5 -8.5q0 -8 5.5 -9.5t13.5 -3.5t16 -8t14 -23l113 -357q7 -21 7 -29q0 -9 -5.5 -37.5t-20.5 -71.5q-7 -19 -11 -29t-12 -11q-14 -2 -25 -2q-10 0 -17.5 -3
t-11.5 -10t-4 -23q0 -17 7.5 -25.5t25.5 -8.5q17 0 26 2.5t13.5 9.5t7 18t7.5 28q2 8 19.5 75t63.5 197zM258 627q18 18 18 34q0 11 -6.5 18.5t-14.5 7.5t-14 -6.5t-14 -18.5l-95 -150h20z" />
    <glyph glyph-name="zcaron" unicode="&#x17e;" horiz-adv-x="344" 
d="M308 406q10 16 10 25q0 5 -4.5 7.5t-9.5 2.5q-7 0 -36 -2t-82 -2q-55 0 -83 2t-32 12q-4 9 -2.5 19.5t-8.5 10.5q-9 0 -11 -11.5t-8 -33.5q-9 -30 -15.5 -49t-6.5 -28t8 -9q5 0 9 5t8 12t9.5 15.5t14.5 15.5q16 13 36.5 16.5t49.5 3.5h18l60 -2q7 0 9.5 -0.5t2.5 -5.5
q0 -2 -2 -6l-222 -371q-6 -10 -9.5 -16t-3.5 -11q0 -8 14 -8q6 0 19.5 1t33.5 1h174q17 0 30.5 -1.5t24.5 -1.5t14.5 3.5t3.5 11.5q0 4 -0.5 7.5t-0.5 8.5q0 33 1.5 53.5t1.5 28.5q0 11 -8 11q-5 0 -7 -4.5t-3.5 -13t-5 -20t-11.5 -25.5q-13 -23 -37 -30t-67 -7h-90
q-10 0 -10 6q0 1 3 6zM67 683l87 -171h38l87 171h-19l-87 -113l-87 113h-19z" />
    </font>
</defs>
</svg>
